<?xml version="1.0" encoding="utf-8"?>
<!-- Generator: Adobe Illustrator 19.0.0, SVG Export Plug-In . SVG Version: 6.00 Build 0)  -->
<svg version="1.1" id="Layer_1" xmlns="http://www.w3.org/2000/svg" xmlns:xlink="http://www.w3.org/1999/xlink" x="0px" y="0px"
	 viewBox="120 -320 1200 1200" style="enable-background:new 120 -320 1200 1200;" xml:space="preserve">
<style type="text/css">
	.st0{fill:#DC080E;}
</style>
<g>
	<path class="st0" d="M832.9,71.8c-0.1,102.8-0.1,205.7,0,308.7c21.5,0,43.1,0,64.6,0v-309C876,71.8,854.5,71.3,832.9,71.8z"/>
	<path class="st0" d="M388.1,164.4c-5.3-9.7-11-18.8-19.1-26.4c-16-16.2-36.7-25.6-58.3-31.7c-20.6-5.1-41.5-7.4-62.7-8.1
		c-38.8,0-77.7,0-116.5,0c-3.8,0-7.6-0.1-11.4,0.2c-0.1,94-0.1,188,0,282.1c4.6,0.3,9.3,0.3,13.9,0c45.6,0,91.3,0,136.8,0
		c19.2-1.6,38.3-7.9,55.4-16.8c25.9-13.8,46.8-35.3,59.9-61.6c12.8-25.2,16.8-53.1,15.4-81.2C400.2,201.4,397.1,182.1,388.1,164.4z
		 M320.5,302.7c-9.1,21.5-25.9,39.4-47.4,48.7c-1.9,1-4,1.4-6.2,1.3c-26.6,0-53.2,0-79.8,0c0-75.2,0-151.4,0-226.7h3.6
		c20.3-0.1,40.6,0,60.9,0c4,0,7.9,0.7,11.7,2.1c24.3,6.4,45.3,24.2,56.3,46.6c7.4,14.8,11.6,31,12.3,47.6
		C333.6,249,331,277.8,320.5,302.7z"/>
	<path class="st0" d="M559.7,187.7c-9.4-5.2-19.6-7.5-30-9.4c-20.2-2.8-40.7-0.7-59.9,6.2c-17.9,6.9-34,19.4-43.7,36.1
		c-8.4,14-13.4,29.8-14.7,46c-1.6,17.6-0.9,36.1,3.9,53.2c5.8,18.3,16.3,34.9,31.9,46.5c7,5.2,14.8,9.4,23,12.4
		c12.8,4.4,26.3,6.8,39.9,7.2c13.3,0.2,27.5,0.1,40.5-2.8c8.6-2,17-5.1,24.8-9.2c3.4-2,7.2-4,8.9-7.7c2.6-5.3,4.8-10.7,6.7-16.2
		c0.7-1.8,0.5-4.8-1.6-5.6c-2.8-1.6-5.7,1-8.1,2.3c-13.2,8.9-28.7,13.7-44.6,13.9c-10.2,0.8-20.4-1.3-29.4-6.2
		c-12.4-6.3-21-18.7-25.6-31.5c-3.4-10.3-5.9-21.4-5.8-32.3c0.1-2-0.1-4.7,1.3-6.3c1.7-1.2,4.4-1.1,6.4-1.3c36.7,0,73.6,0,110.2,0
		c3.2-0.1,6.3-0.1,7-4c1.2-15.3-0.3-30.6-4.4-45.3C590.8,214.4,577.7,196.8,559.7,187.7z M541,263.4c-2.5,1.7-5.3,1.4-8.2,1.5
		c-16,0.1-32.1,0-48.1,0.1c-2.8,0-5.6-0.5-8.2-1.5c-1.3-5.7-0.3-10.8,0.3-16.5c1.4-10.5,3.6-21.4,7.8-31.2
		c2.8-6.4,7.1-12.1,12.7-16.4c8.3-5.5,20.3-5.1,27.8,1.5c6.7,5.8,9.4,13.8,11.8,22c2.7,11,4.4,22.2,5,33.5
		C542,258.9,542.2,261.2,541,263.4L541,263.4z"/>
	<path class="st0" d="M793.7,203.3c-10.1-11.7-23.6-19.8-38.7-23.2c-16.3-4.5-33.6-3.8-49.4,2.1c-6,2.2-10.9,5.7-15.9,9.5
		c-6.8,5.2-12.2,12.9-16.8,20c-2.3-9,0.3-19.5-0.9-28.8c-19.8,0-39.6,0-59.4,0c0,101.7,0,203.4,0,305.2c5.5,0.6,10.9,0,16.5,0
		c15.2,0.1,30.4-0.1,45.6,0.2c0-38.1,0.2-76.1,0-114.2c-0.1-4.1,0.2-8.2,1-12.3c4.8,2.1,6.8,6.2,10.7,9.4c8.7,8,21,12.4,32.6,13.8
		c18.1,2.1,36.9-0.1,53.3-8.3c16.1-8.5,28.4-24.1,35.2-40.8c9-20.4,10.9-43.6,10.1-65.7C816.4,246.2,810.1,221.8,793.7,203.3z
		 M752.1,299.3c-0.3,7.3-1.3,14.6-2.9,21.8c-2.3,11.4-7.4,23.9-16.2,31.8c-11.5,11.2-32.4,10.2-43.5-1.2
		c-8.3-8.1-11.6-18.6-14.1-29.7c-1.8-10.4-2.8-20.9-3-31.4c-0.2-17.3,0.8-35.6,5.9-52.2c2.5-9.2,6.9-18.6,13.3-25.7
		c7.2-7.7,18-11.9,28.5-9.5c8.8,1.6,15.7,7.9,20.3,15.2c8.5,12.6,10.5,29.6,11.8,44.4C753.1,275,753.1,287.1,752.1,299.3
		L752.1,299.3z"/>
	<path class="st0" d="M1100,203.4c-16.5-15.6-37.3-22.4-59.4-25.3c-12.5-1.2-24.9-1.5-37.4,0.7c-11.3,2.2-23.4,5.1-33.5,10.7
		c-17.7,9-32.1,23.2-41.4,40.8c-11.6,20.6-14.7,46.1-12.8,69.3c1,9.6,2.7,19.6,6.4,28.5c7.4,18.2,20.5,33.9,37.8,43.4
		c14.7,8.6,30.8,12.1,47.6,13.9c19.8,1.4,39.4,0.4,58.2-6.3c20.7-7.4,38-22,48.8-41.2c5.2-9.3,9.2-19.3,11.7-29.6
		c4.1-19.4,4.1-39.5,0-59C1121.6,231.7,1113.4,215.6,1100,203.4z M1057.3,334c-3.1,10.5-8.3,21.6-17.3,28.2
		c-7.6,5.8-18.1,6.3-27.1,4.2c-8.2-1.8-14.7-7.9-19.4-14.5c-7.8-11.8-11-27.2-12.2-41.1c-2-19.4-1.7-38.9,0.8-58.2
		c1.5-14.4,5.4-30.2,13.9-42.2c4.6-6.3,11.2-11.7,18.8-13.9c9.7-2.2,20.7-1.1,28.8,5.1c7.4,5.3,11.3,12.9,14.3,21.2
		c5.4,16.3,6.3,34.2,6.6,51.3C1063.8,294,1062.9,315,1057.3,334z"/>
	<path class="st0" d="M1304,184.3c-5.5,0.1-11-0.3-16.5,0.2c-2.1,0.8-2.9,4.2-3.7,6.1c-11.5,35-25.4,69.7-39.4,103.8
		c-1.8,4-3.2,8.5-5.6,12.2c-3.4,1.7-4.4-2.4-5.7-4.7c-14.6-34.1-28.1-68.3-41.7-102.7c-2-5.1-3.8-10.4-6.6-15c-17.7,0-35.5,0-53.2,0
		c-3.2-0.1-6.5,0-9.7,0.4c-0.1,2.6,0.5,5.2,1.8,7.5c23.4,54,47.4,108.4,70.8,162.4c3.3,7.3,6.7,14.4,9.7,21.8
		c0.8,2.1,1.8,4.5,1.1,6.7c-1.3,4.6-3.9,8.9-6,13.2c-12.4,25.3-25.8,50.1-38.9,75.1c-2.4,4.9-6.7,10.3-6.6,15.8c4,1.6,7.8,0.9,12,1
		c6.3-0.1,12.7,0.2,19,0c2.7-0.2,4.1-1.5,5.1-4c15.9-39.7,32.9-78.8,50.2-117.9c25.4-57,50.6-113.8,76.6-170.4
		c1.6-3.6,3.3-6.8,3.2-10.9C1315,183.8,1309.2,184.4,1304,184.3z"/>
</g>
</svg>
