<?xml version="1.0" encoding="utf-8"?>
<!-- Generator: Adobe Illustrator 19.0.0, SVG Export Plug-In . SVG Version: 6.00 Build 0)  -->
<svg version="1.1" id="Layer_1" xmlns="http://www.w3.org/2000/svg" xmlns:xlink="http://www.w3.org/1999/xlink" x="0px" y="0px"
	 viewBox="120 -320 1200 1200" style="enable-background:new 120 -320 1200 1200;" xml:space="preserve">
<style type="text/css">
	.st0{clip-path:url(#SVGID_2_);fill:#DC080E;}
	.st1{clip-path:url(#SVGID_4_);fill:#DC080E;}
	.st2{clip-path:url(#SVGID_6_);fill:#DC080E;}
	.st3{clip-path:url(#SVGID_8_);fill:#DC080E;}
	.st4{clip-path:url(#SVGID_10_);fill:#DC080E;}
	.st5{clip-path:url(#SVGID_12_);fill:#DC080E;}
	.st6{clip-path:url(#SVGID_14_);fill:#DC080E;}
	.st7{clip-path:url(#SVGID_16_);fill:#DC080E;}
	.st8{clip-path:url(#SVGID_18_);fill:#DC080E;}
	.st9{clip-path:url(#SVGID_20_);fill:#DC080E;}
	.st10{clip-path:url(#SVGID_22_);fill:#DC080E;}
	.st11{clip-path:url(#SVGID_24_);fill:#DC080E;}
	.st12{clip-path:url(#SVGID_26_);fill:#DC080E;}
	.st13{clip-path:url(#SVGID_28_);fill:#DC080E;}
	.st14{clip-path:url(#SVGID_30_);fill:#DC080E;}
	.st15{clip-path:url(#SVGID_32_);fill:#DC080E;}
	.st16{clip-path:url(#SVGID_34_);fill:#DC080E;}
	.st17{clip-path:url(#SVGID_36_);fill:#DC080E;}
	.st18{clip-path:url(#SVGID_38_);fill:#DC080E;}
	.st19{clip-path:url(#SVGID_40_);fill:#DC080E;}
	.st20{clip-path:url(#SVGID_42_);fill:#DC080E;}
	.st21{clip-path:url(#SVGID_44_);fill:#DC080E;}
	.st22{clip-path:url(#SVGID_46_);fill:#DC080E;}
	.st23{clip-path:url(#SVGID_48_);fill:#DC080E;}
	.st24{fill:#DC080E;}
	.st25{clip-path:url(#SVGID_51_);fill:#DC080E;}
</style>
<g>
	<g>
		<g>
			<defs>
				<rect id="SVGID_1_" x="400.9" y="249" width="53.5" height="12.4"/>
			</defs>
			<use xlink:href="#SVGID_1_"  style="overflow:visible;fill:#DC080E;"/>
			<clipPath id="SVGID_2_">
				<use xlink:href="#SVGID_1_"  style="overflow:visible;"/>
			</clipPath>
			<rect x="390.6" y="238.7" class="st0" width="74.1" height="32.9"/>
		</g>
	</g>
	<g>
		<g>
			<defs>
				<path id="SVGID_3_" d="M147.5,154.3H121v109.1h26.6c16.7,0,24.9-9.5,24.9-27v-55.2C172.4,163.8,164.2,154.3,147.5,154.3z
					 M155.8,237.3c0,7.8-3.3,10.5-8.4,10.5h-9.7V170h9.5c5.4,0,8.4,2.9,8.4,10.5v56.8H155.8z"/>
			</defs>
			<use xlink:href="#SVGID_3_"  style="overflow:visible;fill:#DC080E;"/>
			<clipPath id="SVGID_4_">
				<use xlink:href="#SVGID_3_"  style="overflow:visible;"/>
			</clipPath>
			<rect x="110.7" y="144" class="st1" width="72" height="129.7"/>
		</g>
	</g>
	<g>
		<g>
			<defs>
				<path id="SVGID_5_" d="M229.2,154.3h-25.1l-17.3,109.1h15.6l2.9-19.8h21l2.9,19.8h17.3L229.2,154.3z M207.6,228.8l8.2-55.2
					l8.2,55.2H207.6z"/>
			</defs>
			<use xlink:href="#SVGID_5_"  style="overflow:visible;fill:#DC080E;"/>
			<clipPath id="SVGID_6_">
				<use xlink:href="#SVGID_5_"  style="overflow:visible;"/>
			</clipPath>
			<rect x="176.6" y="144" class="st2" width="80.3" height="129.7"/>
		</g>
	</g>
	<g>
		<g>
			<defs>
				<path id="SVGID_7_" d="M369.2,154.3h-24.9l-17.5,109.1h15.6l2.9-19.8h21l2.9,19.8h17.3L369.2,154.3z M347.6,228.8l8.2-55.2
					l8.2,55.2H347.6z"/>
			</defs>
			<use xlink:href="#SVGID_7_"  style="overflow:visible;fill:#DC080E;"/>
			<clipPath id="SVGID_8_">
				<use xlink:href="#SVGID_7_"  style="overflow:visible;"/>
			</clipPath>
			<rect x="316.5" y="144" class="st3" width="80.3" height="129.7"/>
		</g>
	</g>
	<g>
		<g>
			<defs>
				<path id="SVGID_9_" d="M498.9,152.3c16.9,0,25.3,9.9,25.3,27.4v3.5H508v-4.5c0-7.8-3.1-10.7-8.6-10.7s-8.6,2.9-8.6,10.7
					c0,22.4,33.8,26.6,33.8,57.6c0,17.3-8.9,27.4-25.7,27.4s-25.7-9.9-25.7-27.4v-6.6h16.3v7.8c0,7.8,3.5,10.5,8.9,10.5
					c5.6,0,8.9-2.9,8.9-10.5c0-22.4-33.8-26.6-33.8-57.6C473.4,162.2,482,152.3,498.9,152.3"/>
			</defs>
			<use xlink:href="#SVGID_9_"  style="overflow:visible;fill:#DC080E;"/>
			<clipPath id="SVGID_10_">
				<use xlink:href="#SVGID_9_"  style="overflow:visible;"/>
			</clipPath>
			<rect x="462.7" y="142" class="st4" width="72" height="131.7"/>
		</g>
	</g>
	<g>
		<g>
			<defs>
				<path id="SVGID_11_" d="M594.4,221.6v14.4c0,17.3-8.9,27.4-25.7,27.4s-25.7-9.9-25.7-27.4v-56.4c0-17.5,8.9-27.4,25.7-27.4
					s25.7,9.9,25.7,27.4v10.5h-16.3v-11.7c0-7.8-3.5-10.7-8.9-10.7c-5.6,0-8.9,2.9-8.9,10.7v58.7c0,7.8,3.5,10.5,8.9,10.5
					c5.6,0,8.9-2.9,8.9-10.5v-15.4H594.4z"/>
			</defs>
			<use xlink:href="#SVGID_11_"  style="overflow:visible;fill:#DC080E;"/>
			<clipPath id="SVGID_12_">
				<use xlink:href="#SVGID_11_"  style="overflow:visible;"/>
			</clipPath>
			<rect x="532.7" y="142" class="st5" width="72" height="131.7"/>
		</g>
	</g>
	<g>
		<g>
			<defs>
				<polygon id="SVGID_13_" points="664.4,171.4 664.4,154.3 612.9,154.3 612.9,171.4 630.6,171.4 630.6,246.3 612.9,246.3 
					612.9,263.4 630.6,263.4 647.5,263.4 664.4,263.4 664.4,246.3 647.5,246.3 647.5,171.4 				"/>
			</defs>
			<use xlink:href="#SVGID_13_"  style="overflow:visible;fill:#DC080E;"/>
			<clipPath id="SVGID_14_">
				<use xlink:href="#SVGID_13_"  style="overflow:visible;"/>
			</clipPath>
			<rect x="602.6" y="144" class="st6" width="72" height="129.7"/>
		</g>
	</g>
	<g>
		<g>
			<defs>
				<polygon id="SVGID_15_" points="704.3,200.2 728.2,200.2 728.2,215.9 704.3,215.9 704.3,247.8 734.4,247.8 734.4,263.4 
					687,263.4 687,154.3 734.4,154.3 734.4,170 704.3,170 				"/>
			</defs>
			<use xlink:href="#SVGID_15_"  style="overflow:visible;fill:#DC080E;"/>
			<clipPath id="SVGID_16_">
				<use xlink:href="#SVGID_15_"  style="overflow:visible;"/>
			</clipPath>
			<rect x="676.7" y="144" class="st7" width="67.9" height="129.7"/>
		</g>
	</g>
	<g>
		<g>
			<defs>
				<polygon id="SVGID_17_" points="768.1,184.4 768.1,263.4 752.9,263.4 752.9,154.3 774.1,154.3 791.4,219.6 791.4,154.3 
					806.4,154.3 806.4,263.4 789.1,263.4 				"/>
			</defs>
			<use xlink:href="#SVGID_17_"  style="overflow:visible;fill:#DC080E;"/>
			<clipPath id="SVGID_18_">
				<use xlink:href="#SVGID_17_"  style="overflow:visible;"/>
			</clipPath>
			<rect x="742.6" y="144" class="st8" width="74.1" height="129.7"/>
		</g>
	</g>
	<g>
		<g>
			<defs>
				<path id="SVGID_19_" d="M876.4,221.6v14.4c0,17.3-8.9,27.4-25.7,27.4s-25.7-9.9-25.7-27.4v-56.4c0-17.5,8.9-27.4,25.7-27.4
					s25.7,9.9,25.7,27.4v10.5h-16.3v-11.7c0-7.8-3.5-10.7-8.9-10.7c-5.6,0-8.9,2.9-8.9,10.7v58.7c0,7.8,3.5,10.5,8.9,10.5
					c5.6,0,8.9-2.9,8.9-10.5v-15.4H876.4z"/>
			</defs>
			<use xlink:href="#SVGID_19_"  style="overflow:visible;fill:#DC080E;"/>
			<clipPath id="SVGID_20_">
				<use xlink:href="#SVGID_19_"  style="overflow:visible;"/>
			</clipPath>
			<rect x="814.7" y="142" class="st9" width="72" height="131.7"/>
		</g>
	</g>
	<g>
		<g>
			<defs>
				<polygon id="SVGID_21_" points="914.3,200.2 938.2,200.2 938.2,215.9 914.3,215.9 914.3,247.8 944.3,247.8 944.3,263.4 
					897,263.4 897,154.3 944.3,154.3 944.3,170 914.3,170 				"/>
			</defs>
			<use xlink:href="#SVGID_21_"  style="overflow:visible;fill:#DC080E;"/>
			<clipPath id="SVGID_22_">
				<use xlink:href="#SVGID_21_"  style="overflow:visible;"/>
			</clipPath>
			<rect x="886.7" y="144" class="st10" width="67.9" height="129.7"/>
		</g>
	</g>
	<g>
		<g>
			<defs>
				<path id="SVGID_23_" d="M244.5,365.7v14.4c0,17.3-9.1,27.4-26.8,27.4s-26.8-9.9-26.8-27.4v-56.4c0-17.5,9.1-27.4,26.8-27.4
					s26.8,9.9,26.8,27.4v10.5h-16.9v-11.7c0-7.8-3.5-10.7-9.3-10.7s-9.3,2.9-9.3,10.7v58.7c0,7.8,3.5,10.5,9.3,10.5
					s9.3-2.9,9.3-10.5v-15.4C227.6,365.7,244.5,365.7,244.5,365.7z"/>
			</defs>
			<use xlink:href="#SVGID_23_"  style="overflow:visible;fill:#DC080E;"/>
			<clipPath id="SVGID_24_">
				<use xlink:href="#SVGID_23_"  style="overflow:visible;"/>
			</clipPath>
			<rect x="180.7" y="286.1" class="st11" width="74.1" height="131.7"/>
		</g>
	</g>
	<g>
		<g>
			<defs>
				<path id="SVGID_25_" d="M286.7,296.4c-16.7,0-25.7,9.9-25.7,27.4v56.6c0,17.3,9.1,27.4,25.7,27.4c16.7,0,25.7-9.9,25.7-27.4
					v-56.6C312.4,306.2,303.4,296.4,286.7,296.4z M295.5,381.4c0,7.8-3.3,10.7-8.9,10.7c-5.4,0-8.9-2.9-8.9-10.7v-58.9
					c0-7.8,3.3-10.7,8.9-10.7c5.4,0,8.9,2.9,8.9,10.7V381.4z"/>
			</defs>
			<use xlink:href="#SVGID_25_"  style="overflow:visible;fill:#DC080E;"/>
			<clipPath id="SVGID_26_">
				<use xlink:href="#SVGID_25_"  style="overflow:visible;"/>
			</clipPath>
			<rect x="250.7" y="286.1" class="st12" width="72" height="131.7"/>
		</g>
	</g>
	<g>
		<g>
			<defs>
				<polygon id="SVGID_27_" points="346.2,326.4 346.2,405.5 330.9,405.5 330.9,296.4 352.1,296.4 369.4,361.6 369.4,296.4 
					384.5,296.4 384.5,405.5 367.2,405.5 				"/>
			</defs>
			<use xlink:href="#SVGID_27_"  style="overflow:visible;fill:#DC080E;"/>
			<clipPath id="SVGID_28_">
				<use xlink:href="#SVGID_27_"  style="overflow:visible;"/>
			</clipPath>
			<rect x="320.6" y="286.1" class="st13" width="74.1" height="129.7"/>
		</g>
	</g>
	<g>
		<g>
			<defs>
				<polygon id="SVGID_29_" points="422.1,344.7 444.4,344.7 444.4,360.4 422.1,360.4 422.1,405.5 405,405.5 405,296.4 450.3,296.4 
					450.3,312 422.1,312 				"/>
			</defs>
			<use xlink:href="#SVGID_29_"  style="overflow:visible;fill:#DC080E;"/>
			<clipPath id="SVGID_30_">
				<use xlink:href="#SVGID_29_"  style="overflow:visible;"/>
			</clipPath>
			<rect x="394.7" y="286.1" class="st14" width="65.9" height="129.7"/>
		</g>
	</g>
	<g>
		<g>
			<defs>
				<polygon id="SVGID_31_" points="492.3,342.3 516.2,342.3 516.2,357.9 492.3,357.9 492.3,389.8 522.4,389.8 522.4,405.5 
					475,405.5 475,296.4 522.4,296.4 522.4,312 492.3,312 				"/>
			</defs>
			<use xlink:href="#SVGID_31_"  style="overflow:visible;fill:#DC080E;"/>
			<clipPath id="SVGID_32_">
				<use xlink:href="#SVGID_31_"  style="overflow:visible;"/>
			</clipPath>
			<rect x="464.7" y="286.1" class="st15" width="67.9" height="129.7"/>
		</g>
	</g>
	<g>
		<g>
			<defs>
				<path id="SVGID_33_" d="M592.6,392.3v-16.9c0-11.3-2.9-19.6-11.3-23.3c7.6-3.5,11.3-10.9,11.3-22.2v-8.6
					c0-16.9-7.6-25.1-25.5-25.1h-26.1v109.1h17.3v-44.5h6c7.8,0,11.3,3.7,11.3,13.8v17.1c0,8.9,0.6,10.5,1.6,13.4h17.5
					C592.8,401.3,592.6,397.4,592.6,392.3z M575.1,333.8c0,8.6-3.9,11.5-10.3,11.5H558V312h8.2c6.2,0,8.9,3.5,8.9,11.3V333.8z"/>
			</defs>
			<use xlink:href="#SVGID_33_"  style="overflow:visible;fill:#DC080E;"/>
			<clipPath id="SVGID_34_">
				<use xlink:href="#SVGID_33_"  style="overflow:visible;"/>
			</clipPath>
			<rect x="530.6" y="286.1" class="st16" width="74.1" height="129.7"/>
		</g>
	</g>
	<g>
		<g>
			<defs>
				<polygon id="SVGID_35_" points="632.3,342.3 656.2,342.3 656.2,357.9 632.3,357.9 632.3,389.8 662.3,389.8 662.3,405.5 
					615,405.5 615,296.4 662.3,296.4 662.3,312 632.3,312 				"/>
			</defs>
			<use xlink:href="#SVGID_35_"  style="overflow:visible;fill:#DC080E;"/>
			<clipPath id="SVGID_36_">
				<use xlink:href="#SVGID_35_"  style="overflow:visible;"/>
			</clipPath>
			<rect x="604.7" y="286.1" class="st17" width="67.9" height="129.7"/>
		</g>
	</g>
	<g>
		<g>
			<defs>
				<polygon id="SVGID_37_" points="698.2,326.4 698.2,405.5 682.9,405.5 682.9,296.4 704.1,296.4 721.4,361.6 721.4,296.4 
					736.4,296.4 736.4,405.5 719.1,405.5 				"/>
			</defs>
			<use xlink:href="#SVGID_37_"  style="overflow:visible;fill:#DC080E;"/>
			<clipPath id="SVGID_38_">
				<use xlink:href="#SVGID_37_"  style="overflow:visible;"/>
			</clipPath>
			<rect x="672.6" y="286.1" class="st18" width="74.1" height="129.7"/>
		</g>
	</g>
	<g>
		<g>
			<defs>
				<path id="SVGID_39_" d="M806.4,365.7v14.4c0,17.3-8.9,27.4-25.7,27.4c-16.9,0-25.7-9.9-25.7-27.4v-56.4
					c0-17.3,8.9-27.4,25.7-27.4c16.9,0,25.7,9.9,25.7,27.4v10.5h-16.3v-11.7c0-7.8-3.5-10.7-8.9-10.7c-5.6,0-8.9,2.9-8.9,10.7v58.7
					c0,7.8,3.5,10.5,8.9,10.5c5.6,0,8.9-2.9,8.9-10.5v-15.4C790.2,365.7,806.4,365.7,806.4,365.7z"/>
			</defs>
			<use xlink:href="#SVGID_39_"  style="overflow:visible;fill:#DC080E;"/>
			<clipPath id="SVGID_40_">
				<use xlink:href="#SVGID_39_"  style="overflow:visible;"/>
			</clipPath>
			<rect x="744.7" y="286.1" class="st19" width="72" height="131.7"/>
		</g>
	</g>
	<g>
		<g>
			<defs>
				<polygon id="SVGID_41_" points="844.3,342.3 868.2,342.3 868.2,357.9 844.3,357.9 844.3,389.8 874.4,389.8 874.4,405.5 
					827,405.5 827,296.4 874.4,296.4 874.4,312 844.3,312 				"/>
			</defs>
			<use xlink:href="#SVGID_41_"  style="overflow:visible;fill:#DC080E;"/>
			<clipPath id="SVGID_42_">
				<use xlink:href="#SVGID_41_"  style="overflow:visible;"/>
			</clipPath>
			<rect x="816.7" y="286.1" class="st20" width="67.9" height="129.7"/>
		</g>
	</g>
	<g>
		<g>
			<defs>
				<polygon id="SVGID_43_" points="312.4,154.3 260.9,154.3 260.9,170 278.2,170 278.2,263.4 295.3,263.4 295.3,170 312.4,170 				
					"/>
			</defs>
			<use xlink:href="#SVGID_43_"  style="overflow:visible;fill:#DC080E;"/>
			<clipPath id="SVGID_44_">
				<use xlink:href="#SVGID_43_"  style="overflow:visible;"/>
			</clipPath>
			<rect x="250.7" y="144" class="st21" width="72" height="129.7"/>
		</g>
	</g>
	<g>
		<g>
			<defs>
				<polygon id="SVGID_45_" points="156.6,296.4 121,405.5 138.5,405.5 174.5,296.4 				"/>
			</defs>
			<use xlink:href="#SVGID_45_"  style="overflow:visible;fill:#DC080E;"/>
			<clipPath id="SVGID_46_">
				<use xlink:href="#SVGID_45_"  style="overflow:visible;"/>
			</clipPath>
			<rect x="110.7" y="286.1" class="st22" width="74.1" height="129.7"/>
		</g>
	</g>
	<g>
		<g>
			<defs>
				<polygon id="SVGID_47_" points="930.5,296.4 894.9,405.5 912.4,405.5 948.5,296.4 				"/>
			</defs>
			<use xlink:href="#SVGID_47_"  style="overflow:visible;fill:#DC080E;"/>
			<clipPath id="SVGID_48_">
				<use xlink:href="#SVGID_47_"  style="overflow:visible;"/>
			</clipPath>
			<rect x="884.6" y="286.1" class="st23" width="74.1" height="129.7"/>
		</g>
	</g>
	<g>
		<g>
			<path id="SVGID_49_" class="st24" d="M1281.1,211.1c0-6-2.1-11.1-6.4-15.2c-4.3-4.3-9.3-6.4-15.2-6.4c-6,0-11.1,2.1-15.2,6.4
				s-6.2,9.3-6.2,15.2v136.3c0,6,2.1,11.1,6.2,15.2c4.1,4.3,9.3,6.4,15.2,6.4c6,0,11.1-2.1,15.2-6.4c4.3-4.3,6.4-9.3,6.4-15.2V211.1
				z M1320,348c0,16.7-5.8,30.7-17.5,42.2c-11.7,11.5-25.7,17.3-42,17.3c-16.7,0-30.7-5.8-42.2-17.5c-11.5-11.5-17.5-25.7-17.5-42
				V212c0-16.7,5.8-30.7,17.5-42.2c11.7-11.5,25.7-17.5,42.2-17.5c16.7,0,30.7,5.8,42.2,17.5c11.5,11.7,17.3,25.7,17.3,42.2V348z
				 M1137.4,367.6h37.7v37.7h-37.7V367.6z M1049.9,313.2v-77.8l-31.1,77.8H1049.9z M983.4,313.2l66.5-157.9h37.7v157.9h24.1v37.9
				h-24.1v53.7h-37.7v-53.7h-66.5V313.2z"/>
		</g>
		<g>
			<defs>
				<path id="SVGID_50_" d="M1281.1,211.1c0-6-2.1-11.1-6.4-15.2c-4.3-4.3-9.3-6.4-15.2-6.4c-6,0-11.1,2.1-15.2,6.4
					s-6.2,9.3-6.2,15.2v136.3c0,6,2.1,11.1,6.2,15.2c4.1,4.3,9.3,6.4,15.2,6.4c6,0,11.1-2.1,15.2-6.4c4.3-4.3,6.4-9.3,6.4-15.2
					V211.1z M1320,348c0,16.7-5.8,30.7-17.5,42.2c-11.7,11.5-25.7,17.3-42,17.3c-16.7,0-30.7-5.8-42.2-17.5
					c-11.5-11.5-17.5-25.7-17.5-42V212c0-16.7,5.8-30.7,17.5-42.2c11.7-11.5,25.7-17.5,42.2-17.5c16.7,0,30.7,5.8,42.2,17.5
					c11.5,11.7,17.3,25.7,17.3,42.2V348z M1137.4,367.6h37.7v37.7h-37.7V367.6z M1049.9,313.2v-77.8l-31.1,77.8H1049.9z
					 M983.4,313.2l66.5-157.9h37.7v157.9h24.1v37.9h-24.1v53.7h-37.7v-53.7h-66.5V313.2z"/>
			</defs>
			<use xlink:href="#SVGID_50_"  style="overflow:visible;fill:#DC080E;"/>
			<clipPath id="SVGID_51_">
				<use xlink:href="#SVGID_50_"  style="overflow:visible;"/>
			</clipPath>
			<rect x="973.2" y="142" class="st25" width="357.1" height="275.8"/>
		</g>
	</g>
</g>
</svg>
