<?xml version="1.0" encoding="utf-8"?>
<!-- Generator: Adobe Illustrator 19.0.0, SVG Export Plug-In . SVG Version: 6.00 Build 0)  -->
<svg version="1.1" id="Layer_1" xmlns="http://www.w3.org/2000/svg" xmlns:xlink="http://www.w3.org/1999/xlink" x="0px" y="0px"
	 viewBox="0 0 1200 1200" style="enable-background:new 0 0 1200 1200;" xml:space="preserve">
<style type="text/css">
	.st0{fill:#DC080E;}
</style>
<g id="XMLID_38_">
	<path id="XMLID_62_" class="st0" d="M173,1008.8c0-14-9.7-20.2-14.9-22.5c6.9-3.7,11.5-11.6,11.5-20c0-16.7-11.4-26.3-31.4-26.3
		H95.2v101h42.6C159.8,1041.1,173,1029,173,1008.8z M137.9,1024h-23.9v-28.8h23.9c10.2,0,15.3,4.8,15.3,14.3
		C153.2,1018.7,147.6,1024,137.9,1024z M137.7,978.8h-23.8v-21.6h22.8c9,0,13.3,3.6,13.3,10.9C150,972.9,147.9,978.8,137.7,978.8z
		 M185.9,1009v-41.7h18.2v40.7c0,12.3,4.3,18,13.6,18c9.1,0,13.7-6,13.7-17.9v-40.8h18.2v73.8h-18.2v-5.9c-4.5,5-10.4,7.5-17.6,7.5
		C189.5,1042.6,185.9,1021.6,185.9,1009z M464,1041.1h-18.2v-73.8H464v6.2c4.5-5.1,11-7.8,18.5-7.8c17.7,0,27,11.6,27,33.7v41.7
		h-18.2v-40.7c0-12.3-4.2-18-13.3-18c-9.2,0-14,6.2-14,17.9V1041.1z M284.2,1000.8v40.3H266v-73.8h18.2V1000.8z M300.5,945.7
		l18.2-9.1v63.1v41.4h-18.2V945.7z M376.7,972.5c-4.4-4.6-10.2-6.8-16.4-6.8c-17.8,0-28.9,14.5-28.9,37.7
		c0,24.6,10.7,39.2,28.5,39.2c6.1,0,11.9-2.3,16.7-7.2v5.6h18.2V936.6l-18.2,9.1V972.5z M363.9,1025.9c-6.3,0-13.9-4-13.9-22.9
		c0-17,7.4-20.6,13.7-20.6c6.8,0,10.9,4.1,13.1,7.2v29C374,1022.1,370.6,1025.9,363.9,1025.9z M774.2,965.7
		c-5.7,0-11.7,2.5-16.4,6.9v-34.1l-18.2,9.1v93.5h18.2v-5.5c4.5,4.7,10.3,7.1,16.7,7.1c18.2,0,28.6-14.3,28.6-39.2
		C803.2,980.2,792.1,965.7,774.2,965.7z M770.8,982.4c6.6,0,13.8,5.4,13.8,20.6c0,15.4-4.4,22.9-13.4,22.9c-6.8,0-11.4-4.6-13.3-6.9
		v-29C760.9,985.2,765.5,982.4,770.8,982.4z M567,972.4c-4.4-4.4-10.2-6.8-16.4-6.8c-17.8,0-28.9,14.5-28.9,37.7
		c0,24.6,10.7,39.2,28.5,39.2c6.4,0,12.1-2.4,16.8-7.1v1.7c0,8.1,0,19.1-23.6,19.6l-0.8,0l6.5,14.3l0.4,0
		c24.1-0.4,35.8-12.5,35.8-36.9v-66.9H567V972.4z M567,989.6v29c-2.9,3.8-6.4,7.3-12.9,7.3c-6.3,0-13.8-4-13.8-22.9
		c0-17,7.4-20.6,13.7-20.6C560.8,982.4,564.9,986.4,567,989.6z M641.9,985.4c5.8-3.3,11.2-5.1,18.9-5.1c8.6,0,13.2,3.7,13.2,10.6v5
		c-4.2-2.1-10.3-3.5-15.7-3.5c-13.6,0-29.4,6.3-29.4,24.2c0,19.2,14.7,26.1,27.4,26.1c5.2,0,12.7-2,17.7-7.6v6h18.2v-49.8
		c0-16-11.1-25.6-29.8-25.6c-10.1,0-19,2.3-27.6,7.1L641.9,985.4z M647,1016.6c0-6.6,4.7-10.5,12.6-10.5c5.4,0,10.1,1.1,14.3,3.6
		v10.1c-2.3,3.9-7.6,7.8-14.3,7.8C651.8,1027.6,647,1023.4,647,1016.6z M861.7,1019.6c-3.3,3-7.8,6.2-14.5,6.2
		c-3.6,0-15.5-1.2-16.4-16.1H876c0.1-1.5,0.2-3.7,0.2-5.5c0-23.4-12.2-38.5-30.9-38.5c-19.2,0-33,16.2-33,38.5
		c0,23.3,13.7,38.4,34.9,38.4c9.7,0,19.1-3.8,26-11.6L861.7,1019.6z M831,996.4c0.4-9,6-15.3,13.7-15.3c9.6,0,13.5,7.8,13.9,15.3
		H831z M1037.6,1019.6c-3.3,3-7.8,6.2-14.5,6.2c-3.6,0-15.5-1.2-16.4-16.1h45.2c0.1-1.5,0.2-3.7,0.2-5.5c0-23.4-12.1-38.5-30.9-38.5
		c-19.2,0-33.1,16.2-33.1,38.5c0,23.3,13.7,38.4,35,38.4c9.7,0,19-3.8,26.1-11.6L1037.6,1019.6z M1006.9,996.4
		c0.4-9,6-15.3,13.7-15.3c9.6,0,13.5,7.8,13.9,15.3H1006.9z M962.9,1015.4c0,6.6,2.5,9.9,7.9,9.9c3.8,0,7.7-1.5,11-3.3l-2.1,17.2
		c-4.2,2.2-9.6,3.4-15.3,3.4c-14.5,0-19.7-12.2-19.7-22.6v-35.7h-11.3v-17.1h11.3v-18.9l18.2-9.1v28h16.6v17.1h-16.6V1015.4z
		 M927.6,1039.2c-4.2,2.2-9.5,3.4-15.3,3.4c-14.5,0-19.7-12.2-19.7-22.6v-35.7h-11.4v-17.1h11.4v-18.9l18.2-9.1v28h15.6v17.1h-15.6
		v31.1c0,6.6,2.5,9.9,7.9,9.9c3.8,0,7.7-1.5,11-3.3L927.6,1039.2z M1107.3,987.9c-3.6-2.5-7.7-4-12-4c-9,0-13.2,5.5-13.2,17.2v40
		h-18.2v-73.8h18.2v6.4c4.4-5.5,9.9-8,16.3-8c4.9,0,10.2,1.7,13.7,4.5L1107.3,987.9z M284.2,947.6v9.1H266v-18.2h18.2V947.6z
		 M411.2,967.3h18.2v33.5v40.3h-18.2V967.3z M429.4,947.6v9.1h-18.2v-18.2h18.2V947.6z M930,1101.4c-4.4-4.6-10.2-6.8-16.4-6.8
		c-17.8,0-28.9,14.5-28.9,37.7c0,24.6,10.7,39.2,28.6,39.2c6.1,0,11.9-2.3,16.7-7.2v5.6h18.2v-104.5l-18.2,9.1V1101.4z
		 M917.2,1154.7c-6.3,0-13.9-4-13.9-22.9c0-17,7.4-20.6,13.7-20.6c6.8,0,10.9,4.1,13.1,7.2v29C927.3,1151,923.9,1154.7,917.2,1154.7
		z M310.8,1116.8c-3.7-2.5-7.8-4-12.1-4c-9,0-13.2,5.5-13.2,17.2v40h-18.2v-73.8h18.2v6.4c4.4-5.5,9.8-8,16.3-8
		c4.9,0,10.3,1.7,13.7,4.5L310.8,1116.8z M167.4,1096.2h18l-20.8,73.8h-15.7l-8.2-30.6c-1.4-5.4-3-11.9-4-16.1
		c-0.7,3-2.8,12.1-4.1,16.7l-8.1,30h-15.8l-0.1-0.4l-20.7-73.4h18.8l6.8,27.6c1,4.3,2.8,12.5,3.7,18.1c1-5.5,3-13.4,4.4-18.5
		l7.7-27.2h15.5l7.7,27.2c1.3,4.9,3.3,12.9,4.4,18.6c0.8-4.7,2.4-11.6,3.9-18.6L167.4,1096.2z M222.6,1094.5
		c-19.4,0-33.5,16.2-33.5,38.5c0,22.3,14.1,38.6,33.5,38.6c19.4,0,33.5-16.2,33.5-38.6C256.2,1110.7,242,1094.5,222.6,1094.5z
		 M222.6,1154.4c-9.1,0-14.9-8.4-14.9-21.3c0-13,5.9-21.3,14.9-21.3c9.1,0,15,8.4,15,21.3C237.6,1146,231.7,1154.4,222.6,1154.4z
		 M840.2,1116.8c-3.7-2.5-7.8-4-12.1-4c-9,0-13.1,5.5-13.1,17.2v40h-18.2v-73.8H815v6.4c4.3-5.5,9.8-8,16.3-8
		c4.9,0,10.3,1.7,13.7,4.5L840.2,1116.8z M696.8,1096.2h18L694,1170h-15.7l-8.2-30.6c-1.4-5.4-3-11.9-4-16.1
		c-0.7,3-2.8,12.1-4.1,16.7l-8.1,30h-15.8l-0.1-0.4l-20.7-73.4h18.8l6.8,27.6c1,4.3,2.8,12.5,3.7,18.1c1-5.5,3-13.4,4.4-18.5
		l7.7-27.2h15.5l7.7,27.2c1.3,4.9,3.3,12.9,4.4,18.6c0.8-4.7,2.4-11.6,3.9-18.6L696.8,1096.2z M751.9,1094.5
		c-19.4,0-33.5,16.2-33.5,38.5c0,22.3,14.1,38.6,33.5,38.6c19.4,0,33.5-16.2,33.5-38.6C785.4,1110.7,771.3,1094.5,751.9,1094.5z
		 M751.9,1154.4c-9.1,0-15-8.4-15-21.3c0-13,5.9-21.3,15-21.3c9.1,0,15,8.4,15,21.3C766.8,1146,761,1154.4,751.9,1154.4z
		 M365.1,1120.5l22.5,49.5h-20.1l-15.5-34.3l-9.6,12.1v22.1h-18.1v-95.2l18.1-9.1v58.7c2.3-3.3,5-6.8,6.9-9.3l14.6-18.9h21.1
		L365.1,1120.5z M451.7,1170h-18.2v-73.8h18.2v6.2c4.5-5.1,11-7.8,18.5-7.8c17.7,0,27,11.6,27,33.7v41.7H479v-40.7
		c0-12.3-4.2-18-13.3-18c-9.2,0-14,6.2-14,17.9V1170z M554.7,1101.3c-4.4-4.4-10.2-6.8-16.4-6.8c-17.8,0-28.9,14.5-28.9,37.7
		c0,24.6,10.7,39.2,28.5,39.2c6.4,0,12.1-2.4,16.8-7.1v1.7c0,8.1,0,19.1-23.5,19.6l-0.8,0l6.4,14.3l0.4,0
		c24.1-0.4,35.8-12.5,35.8-36.9v-66.9h-18.2V1101.3z M554.7,1118.5v29c-2.9,3.8-6.4,7.3-12.9,7.3c-6.3,0-13.8-4-13.8-22.9
		c0-17,7.4-20.6,13.6-20.6C548.5,1111.3,552.6,1115.3,554.7,1118.5z M398.9,1096.2h18.2v33.9v39.9h-18.2V1096.2z M417.1,1076.5v9.1
		h-18.2v-18.2h18.2V1076.5z M853.7,1074.7l18.2-9.1v66.7v37.7h-18.2V1074.7z M219.6,675h150.1v-87.1H219.6v-68.5h166l-55.1-95.5
		H95.2v415h332v-95.5H219.6V675z M648.2,423.9l-70.5,135.4l-70.3-135.4H369.7l145,251.1V839h124.1V675L784,423.9H648.2z"/>
	<path id="XMLID_60_" class="st0" d="M908.5,0L88,299.5l820.5-144.9V0z"/>
</g>
</svg>
