<?xml version="1.0" encoding="utf-8"?>
<!-- Generator: Adobe Illustrator 19.0.0, SVG Export Plug-In . SVG Version: 6.00 Build 0)  -->
<svg version="1.1" id="Layer_1" xmlns="http://www.w3.org/2000/svg" xmlns:xlink="http://www.w3.org/1999/xlink" x="0px" y="0px"
	 viewBox="120 -320 1200 1200" style="enable-background:new 120 -320 1200 1200;" xml:space="preserve">
<style type="text/css">
	.st0{fill:#DC080E;}
</style>
<g>
	<g>
		<path class="st0" d="M120,318.3h35.7V504H120V318.3z"/>
		<path class="st0" d="M371.2,479.1c-13,13.5-33.1,28.6-73.8,28.6c-54.7,0-97.1-41.5-97.1-97.1c0-58.4,47.1-96,98.6-96
			c36.2,0,60,17.2,71.7,27.8L349,368.3c-7.7-7.7-24.9-21.7-49.5-21.7c-34.6,0-60.8,28.6-60.8,64c0,34.4,24.1,64.5,62.1,64.5
			c21.2,0,39.1-10.3,49.2-19.8L371.2,479.1z"/>
		<path class="st0" d="M533.6,348.5h-46.3V504h-35.7V348.5h-46.3v-30.1h128.3V348.5z"/>
		<path class="st0" d="M760.8,415.9h-65.3V504h-35.7V318.3h35.7v67.4h65.3v-67.4h35.7V504h-35.7V415.9z"/>
		<path class="st0" d="M850.4,318.3h35.7v118.7c0,22.5,15.6,39.1,35.7,39.1c20.1,0,36-16.7,36-39.1V318.3h36v120.3
			c0,36.5-24.3,69-72.2,69c-47.6,0-71.1-32.5-71.1-69V318.3z"/>
		<path class="st0" d="M1047.4,319.9c12.4-2.1,26.7-4,40.7-4c36,0,70.9,10.8,70.9,50.5c0,17.5-10.8,30.7-16.9,34.9
			c14,4,32.5,20.4,32.5,47.3c0,5.8-0.8,11.6-3.2,16.7c-6.6,27.8-34.6,41.3-82.2,41.3c-12.7,0-26.4-1.1-41.8-2.9V319.9z
			 M1083.4,391.1h25.1c7.7-2.4,15.1-10.3,15.1-21.2c0-18.2-14.5-23-27.8-23c-4.5,0-9,0.5-12.4,1.1V391.1z M1083.4,473.3
			c4.8,0.3,9.8,0.8,14.5,0.8c21.4,0,39.9-7.7,39.9-28c0-11.6-8.7-24.9-22.7-27.5h-31.7V473.3z"/>
	</g>
	<circle class="st0" cx="1219" cy="153.3" r="101"/>
</g>
</svg>
