<?xml version="1.0" encoding="utf-8"?>
<!-- Generator: Adobe Illustrator 19.0.0, SVG Export Plug-In . SVG Version: 6.00 Build 0)  -->
<svg version="1.1" id="Layer_1" xmlns="http://www.w3.org/2000/svg" xmlns:xlink="http://www.w3.org/1999/xlink" x="0px" y="0px"
	 viewBox="120 -320 1200 1200" style="enable-background:new 120 -320 1200 1200;" xml:space="preserve">
<style type="text/css">
	.st0{fill:#DC080E;}
</style>
<path id="XMLID_212_" class="st0" d="M1004.9,202.2h-35l-2.6,0.6l-2.3,8h48.2L1004.9,202.2z M991.1,160.7l4.5-1.6h-6.4L991.1,160.7z
	 M1020.3,218.6l-1.9-1.9h-55.6l-2.6,8.7h58.2L1020.3,218.6z M942.8,110.2l7.4-2.6l1-5.8h-26.7l-0.3,1.6l8.7,7.1h10v-0.3H942.8z
	 M998.5,195.4l-4.5,1h5.8L998.5,195.4z M1014.2,239.5l2.6-8.7h-58.2l-0.6,2.9l5.8,5.8H1014.2z M908.1,275.8l-11.6,6.8h23.8
	L908.1,275.8z M952.8,92.2l-6.4-5.1H929l-2.3,1l-1.3,7.7h26.7L952.8,92.2z M1075.9,274.2h-50.8l-0.3,8.7h50.8L1075.9,274.2z
	 M1053.4,259.7h-5.1l-16.7,8.7h35.4L1053.4,259.7z M1005.9,153.3l1.6-8.7h-27l-1,6.4l2.9,2.3H1005.9z M1153.4,202.2h-80.7l-2.3,8.7
	h80.7L1153.4,202.2z M1075,288.7h-50.8l-0.3,8.7h50.8L1075,288.7z M996.2,130.5l-14.5,5.5l-0.6,2.9h24.8L996.2,130.5z M758.6,296.4
	l-0.6,1h4.2L758.6,296.4z M609.1,225.3h141.8l-1.3-8.7H607.8L609.1,225.3z M668.2,144.6h-1l-10.9,8.7h33.8L668.2,144.6z
	 M606.8,210.9h141.8l-1.3-8.7H605.5L606.8,210.9z M705.2,159.1h-55.9l-10.9,8.7h88.7L705.2,159.1z M398.5,254h356.9l0,0l-1.3-8.7
	H612.3l1,6.1l-10.6-0.6l-1.9,2.9v-8.4H410.4L398.5,254z M743.2,173.9l-1.3-0.3H631.3l-10.9,8.7h123.8L743.2,173.9z M746.7,196.4
	l-1.3-8.7H613.6l-9,7.1l0.3,1.6L746.7,196.4L746.7,196.4z M862.1,245.3H785l-2.3,8.7h88.4L862.1,245.3z M611.3,239.5h141.8l-1.3-8.7
	H610L611.3,239.5z M884.6,267.1l-7.7-7.4h-95.5l-2.3,8.7h105.1L884.6,267.1z M847.3,231.1h-21.9l-30.5,8.7h61.4L847.3,231.1z
	 M882.7,274.2H777.6l-2.3,8.7h105.5L882.7,274.2z M992,288.7H887.2l-9.3,5.5l1.3-5.5H774l-2.3,8.7h217.7L992,288.7z M1157.3,188.7
	l-1-1h-79.7l-2.3,8.7h80.7L1157.3,188.7z M388.5,274.2l1,8.7H719l10.9-8.7H388.5z M927.7,282.9h63l-8.4-8.7H930L927.7,282.9z
	 M464.7,130.2H401l8.4,8.7h53.1L464.7,130.2z M394,216.7h-37.3l13.8,8.7h7.4L394,216.7z M716.8,288.7H390.1l1,8.7h330.2L716.8,288.7
	z M966.9,326h110l-9.3-8.7h-73.3L966.9,326L966.9,326z M987.8,302.8H752.5l-8,8.7h240.8L987.8,302.8z M351.2,237.9l-0.3,1.9H374
	l-8.7-7.1L351.2,237.9z M748,259.7H390.7l-3.2,2.3l0.6,6.1h349.2L748,259.7z M1285.3,225.3l20.6-7.7v-1H1274l10.6,8.7H1285.3
	L1285.3,225.3z M1308.4,202.2h-39.5l-1.6,8.7h39.5L1308.4,202.2z M1280.5,259.7H1258l-24.4,8.7h57.2L1280.5,259.7z M1123.9,311.5
	h94.5l-5.5-8.7h-84.6L1123.9,311.5z M1142.2,173.6h-61.4l-2.3,8.7h72.3L1142.2,173.6z M724.2,302.8H391.7l0.6,7.4l-1.3,1.3h337.3
	L724.2,302.8z M1297.5,274.2H1229l-1.6,8.7h80.1L1297.5,274.2z M1181.7,288.7h-48.6l4.5,8.7h38.3L1181.7,288.7z M1120.6,317.3
	l-4.5,8.7h111.6l-5.5-8.7H1120.6z M1128.4,278.7l1.9,3.9h55l0.6-0.6l-3.9-7.7h-50.5L1128.4,278.7z M1128,159.1h-10.9l-33.1,8.7h52.7
	L1128,159.1z M1135.1,268.4h44.1l-4.5-8.7h-34.1L1135.1,268.4z M1113.2,331.8l-4.5,8.7h128l-5.5-8.7H1113.2z M1011.3,249.5l1.3-4.2
	h-43.4l8,8.7h15.4L1011.3,249.5z M1061.5,311.5l-1-1l14.1-7.1v-0.3H1027l4.5,2.9l-18.3,5.8h48.2L1061.5,311.5L1061.5,311.5z
	 M1149.6,216.7h-74.3l8.7,8.7h63.7L1149.6,216.7z M960.5,354.6H1246l-5.5-8.7h-134.7l-2.3,4.2l-4.5-4.2H962.8L960.5,354.6z
	 M963.4,259.7l-31.2,7.7l-0.3,1h45l-8.4-8.7H963.4L963.4,259.7z M1116.8,239.5l28.6-7.4l0.3-1.3h-56.3l8.7,8.7H1116.8L1116.8,239.5z
	 M963.7,340.5h128.9l-9.3-8.7H965.7L963.7,340.5z M1292.3,181l-2.9,1h4.2L1292.3,181z M294.3,354.6h5.5H358h1.3h8.7h160.5l11.6-8.4
	H291.7L294.3,354.6z M775,354.6l-17-8.4h-13.5l-1.6,1l0.6-1H555l4.5,8.7L775,354.6L775,354.6z M738.6,331.8H287.8l2.6,8.7H548
	l3.2-2.3l1.3,2.3h190.7L738.6,331.8z M959.2,326l23.5-5.8l1-2.9H789.8l9,8.7L959.2,326L959.2,326z M743.5,317.3l2.6,8.7h41.5
	l1.6-1.6l-2.3-7.1H743.5z M749.6,336.6l16.7,3.9h7.7l8-8.7h-34L749.6,336.6z M569.5,374.9l0.3,0.6l-7.1,2.3l-1,5.8H774l2.6-1.6
	l-0.3-7.1L569.5,374.9L569.5,374.9z M775.9,369.1l-0.6-8.7H562.4l4.5,8.7H775.9z M122.6,369.1H266l1.6-8.7H124.2L122.6,369.1z
	 M120,383.5h143.4l1.6-8.7H121.6L120,383.5z M125.5,354.6h143.4l1.6-8.7H127.1L125.5,354.6z M129.6,331.8l-1.6,8.7h143.4l0.6-4.2
	l-5.1-4.5H129.6L129.6,331.8z M285.9,326h449.5l-4.5-8.7H384.6l-6.8,5.8l-1.6-5.8h-244l-1.6,8.7h146l8.4-2.9L285.9,326z
	 M804.6,331.8l8.7,8.7l30.5-8.7H804.6z M1249.6,340.5h24.4l24.4-8.7h-58.8L1249.6,340.5z M1256.7,346.6l1-0.3h-1.3L1256.7,346.6z
	 M1232.9,326h69.1l1.6-8.7h-80.7L1232.9,326z M1224.5,297h82.6l1.6-8.7h-82.6L1224.5,297z M959.5,354.6v-8.7H859.2v8.7H959.5z
	 M1300.4,187.7H1274l-2.9,1l-1.3,7.7h39.5l0.3-1L1300.4,187.7z M800.7,360.4l-2.6,8.7h70.4l-1-1l1.6,1h78.5l10.9-6.4l-1.6,6.4H1254
	l0.3-0.6l-5.1-8H800.7V360.4z M1221.9,311.5h82.6l1.6-8.7h-82.6L1221.9,311.5z M372.1,302.8H154.7l-21.2,7.7l-0.3,1h241.2
	L372.1,302.8z M802.3,354.6h52.4l-8.4-8.7h-12.9l-30.9,7.7L802.3,354.6z M858.9,331.8v8.7h100.3v-8.7H858.9z M794.3,383.5h76.2
	l2.6-8.7h-76.2L794.3,383.5z M895.2,383.5h28.6l14.5-8.7h-58.5L895.2,383.5z M954.1,383.5H1247l4.5-8.7H956L954.1,383.5z
	 M346.4,216.7h-174l-1.6,8.7h174L346.4,216.7z M341.2,245.3h-174l-1.6,8.7h174L341.2,245.3z M460.8,101.5h-53.7l-2.6,8.7h64.6
	L460.8,101.5z M382.1,173.6h-13.8l-16.1,8.7h43.7L382.1,173.6z M399.7,202.2h-50.2l-0.3,8.7h50.2L399.7,202.2z M375.3,254l1.6-8.7
	h-26.7l-1.3,7.4l1.3,1h25.1V254z M400.1,187.7h-50.2l-0.3,8.7h50.2L400.1,187.7z M447.3,87.1h-11.6l-26,6.4l-0.6,2.3h46.6
	L447.3,87.1z M468.9,116H403l-2.6,8.4h65.9L468.9,116z M434.8,207.3v3.5h165.3v-6.1l-4.5-2.6H443.2L434.8,207.3z M435.1,225.3h165.3
	v-8.7H434.8L435.1,225.3z M418.4,239.5h182.3v-8.7H430L418.4,239.5z M452.8,196.4H585l-15.4-8.7H467.3L452.8,196.4z M543.5,173.6
	h-52.1l-14.5,8.7h82.3L543.5,173.6z M517.7,159.1h-2.3l-14.5,8.7h32.2L517.7,159.1z M287.8,159.1h-51.4l-24.8,8.7h86.2L287.8,159.1z
	 M272.7,146.2l-20.3,7.1h28.3L272.7,146.2z M176.3,196.4h155l-10-8.7H178.2L176.3,196.4z M162.8,268.4h174l1.6-8.7h-174L162.8,268.4
	z M169.8,136.6l-6.1,2.3h9L169.8,136.6z M179.2,181.9h135.4l-10-8.7H195.2l-15.4,5.8L179.2,181.9z M173.7,210.9h174v-0.3l-9.6-8.4
	H175.3L173.7,210.9z M181.7,146.2l-1.9-1.6h-24.4l-1.6,8.7h26.7L181.7,146.2z M431.3,153.3l28.6-7.1l0.3-1.6h-45.3l8.4,8.7
	L431.3,153.3L431.3,153.3z M343.8,231.1h-174l-1.6,8.7h174L343.8,231.1z M179.5,159.1h-24.1l9.3,7.7l14.5-5.5L179.5,159.1z
	 M357,259.7l3.5,2.9l7.7-2.9H357z M366.3,282.9l-0.3-0.6l-30.5-7.7v-0.3h-174l-0.3,1.6l8,7.1h197.1V282.9z M370.5,297l-2.6-8.7h-192
	l5.5,4.8l-10.6,3.9L370.5,297L370.5,297z M360.2,360.4h-8h-39.9h-10.6h-1.9h-5.5l-10,8.7h15.4h53.4h9h5.8h140.5l11.9-8.7H367.6
	H360.2z M363.1,374.9h-0.3h-9h-74.9l1.6,8.7h73h9.6h1.6h6.1h117.7l11.9-8.7H371.1H363.1z M125.1,408.9h10v63.3h-10
	C125.1,472.2,125.1,408.9,125.1,408.9z M167.9,426.3V472h-9v-63.3h12.5l10.3,37.9v-37.9h9V472h-10.3L167.9,426.3z M227.4,408.3
	c9.6,0,14.5,5.8,14.5,15.8v1.9h-9.3v-2.6c0-4.5-1.9-6.1-4.8-6.1c-3.2,0-4.8,1.6-4.8,6.1c0,12.9,19.3,15.4,19.3,33.4
	c0,10-5.1,15.8-14.8,15.8s-14.8-5.8-14.8-15.8V453h9.3v4.5c0,4.5,1.9,6.1,5.1,6.1c3.2,0,5.1-1.6,5.1-6.1c0-12.9-19.3-15.4-19.3-33.4
	C212.6,414.1,217.7,408.3,227.4,408.3z M261.5,408.9H292v9h-10.3v54h-10v-54h-10.3L261.5,408.9L261.5,408.9z M312.9,408.9h10v63.3
	h-10V408.9z M343.8,408.9h30.5v9H364v54h-10v-54h-10.3L343.8,408.9L343.8,408.9z M404.9,408.9v48.9c0,4.5,1.9,6.1,5.1,6.1
	s5.1-1.6,5.1-6.1v-48.9h9.3v48.2c0,10-5.1,15.8-14.8,15.8s-14.8-5.8-14.8-15.8v-48.2H404.9z M444.8,408.9h30.9v9h-10.3v54h-10v-54
	h-10.3v-9H444.8z M540.3,408.3c9.6,0,14.5,5.8,14.5,15.8v1.9h-9.3v-2.6c0-4.5-1.9-6.1-4.8-6.1c-3.2,0-4.8,1.6-4.8,6.1
	c0,12.9,19.3,15.4,19.3,33.4c0,10-5.1,15.8-14.8,15.8s-14.8-5.8-14.8-15.8V453h9.3v4.5c0,4.5,1.9,6.1,5.1,6.1c3.2,0,5.1-1.6,5.1-6.1
	c0-12.9-19.3-15.4-19.3-33.4C525.8,414.1,530.6,408.3,540.3,408.3z M609.4,472.3h-10l-1.6-11.6h-12.2l-1.6,11.6h-9l10-63.3h14.5
	L609.4,472.3z M586.6,452h9.6l-4.8-31.8L586.6,452z M643.2,460.7l7.7-51.4h9l-9.6,63.3h-14.8l-9.6-63.3h10L643.2,460.7z
	 M701.7,472.3c-0.6-1.6-1-2.6-1-7.7v-10c0-5.8-1.9-8-6.4-8h-3.2v25.7h-10V409h15.1c10.3,0,14.8,4.8,14.8,14.5v4.8
	c0,6.4-1.9,10.6-6.4,12.9c4.8,1.9,6.4,6.8,6.4,13.5v9.6c0,3.2,0,5.5,1,7.7h-10.3L701.7,472.3L701.7,472.3z M691.1,417.9v19.3h3.9
	c3.9,0,6.1-1.6,6.1-6.8v-6.1c0-4.5-1.6-6.4-5.1-6.4H691.1z M743.8,435.6h13.5v9h-13.5v18.6h17v9h-27v-63.3h27v9h-17V435.6z
	 M804.6,454l6.8-45h13.8v63.3h-9.3V427l-6.8,45.3h-9.3l-7.4-44.7v44.7h-8.7V409h13.8L804.6,454z M858.9,435.6h13.5v9h-13.5v18.6h17
	v9h-27v-63.3h27v9h-17V435.6z M907.5,426.3V472h-9v-63.3H911l10.3,37.9v-37.9h9V472H920L907.5,426.3z M953.8,408.9h10v63.3h-10
	V408.9z M997.5,472.3h-10V409h10v27h11.3v-27h10v63.3h-10v-27h-11.3V472.3z M1082.1,426.3V472h-9v-63.3h12.5l10.3,37.9v-37.9h9V472
	h-10.3L1082.1,426.3z M1160.2,472.3h-10l-1.6-11.6h-12.2l-1.6,11.6h-9l10-63.3h14.5L1160.2,472.3z M1137.7,452h9.6l-4.8-31.8
	L1137.7,452z M1191.1,408.9v48.9c0,4.5,1.9,6.1,5.1,6.1s5.1-1.6,5.1-6.1v-48.9h9.3v48.2c0,10-5.1,15.8-14.8,15.8
	c-9.6,0-14.8-5.8-14.8-15.8v-48.2H1191.1z M1247,446.9l-3.2,5.8V472h-10v-63.3h10v27.7l12.9-27.7h10l-13.8,28.3l13.8,35h-10.3
	L1247,446.9z M1320,472.3h-10l-1.6-11.6h-12.2l-1.6,11.6h-9l10-63.3h14.5L1320,472.3z M1297.2,452h9.6l-4.8-31.8L1297.2,452z"/>
</svg>
