<?xml version="1.0" encoding="utf-8"?>
<!-- Generator: Adobe Illustrator 19.0.0, SVG Export Plug-In . SVG Version: 6.00 Build 0)  -->
<svg version="1.1" id="Layer_1" xmlns="http://www.w3.org/2000/svg" xmlns:xlink="http://www.w3.org/1999/xlink" x="0px" y="0px"
	 viewBox="0 0 1200 1200" style="enable-background:new 0 0 1200 1200;" xml:space="preserve">
<style type="text/css">
	.st0{fill:#DC080E;}
	.st1{fill-rule:evenodd;clip-rule:evenodd;fill:#DC080E;}
	.st2{fill:none;stroke:#000000;stroke-width:1.7772;stroke-miterlimit:3.8637;}
	.st3{fill:#DC080E;stroke:#000000;stroke-width:1.7772;stroke-miterlimit:3.8637;}
	.st4{fill-rule:evenodd;clip-rule:evenodd;}
</style>
<g id="XMLID_759_">
	<g id="XMLID_143_">
		<path id="XMLID_293_" class="st0" d="M600,49c5.4,0,11.7,4.1,16,5.4c2.8,0.8,7.1-0.6,10.3,0.6c1.8,0.7,3.1,3.6,5.5,3.6
			c2.4,0,1.4-1.9,2.7-1.9c1.1,2.1,3.2,2.7,4.8,3.5c2.5,1.2,6.9-0.6,10.2,0.6c10.9,4,22.2,6,32.1,9c10.3,3.1,21.7,3.1,31.4,6.4
			c1.9,0.6,3.7,2.5,5.2,3.3c2.5,1.2,6.9-0.5,10.2,0.6c2.6,0.8,5,2.4,7.1,3.3c2.6,1,6.6,0.7,9.6,1.9c1.7,0.6,4.9,0.1,6.4,0.6
			c3.2,1.3,6.1,2.6,9.8,4c2,6.9,6.5,12.5,6.4,20.1c0,0,0.3,0.7,1.7,0.9V131c0.1,2.4-1.9-0.7-1.9,1.7c0,2.4,0.7,1,1.5,1.4
			c0.5,2.9-0.6,7,0.7,10.5c0.6,1.7,1.8,3.6,3.1,4.9c0.5,0.5,0.5,2.9,0.7,4.7c2.6,2.8,5.3,5.5,8.9,6.8c1.4,1.8,1.4,3.2,2.6,4.7
			c4.1,4.9,11.4,11.1,16.6,14.6c9,6,16.1,16.1,24.4,22.5c4.1,3.1,9.9,3.8,14,6.3c8.3,5.1,16.1,12.6,24.4,16.7
			c3.4,1.7,6.6,2.2,10.3,2.6c0.5,0.9,1.6,2.6,3.2,3.2c8.2,3.2,23.9,8,26.3,8c2.4,0,7.2-1.9,9.6-1.9c1.7,0,6.2,0.3,7.3,2.5
			c0.4,1.7,0.1,4.3,2.3,5.4v53c0,2.4,2-0.7,2,1.7v17.6c0,2.4,1.9-0.7,1.9,1.7v117.8c0,2.4,1.9,1.1,1.9,3.5s-1.9,1.4-1.9,3.9
			c0,2.4,1.9-0.5,1.9,1.9v17.6c0,2.4-1.9-0.7-1.9,1.7v29.1c0,2.4-1.9-0.7-1.9,1.7v17.6c0,2.4-1.9-0.7-1.9,1.7v33
			c0,2.4-1.9-0.7-1.9,1.7v11.9c0,2.4,1.9,2,1.9,4.5c0,6-11.1,17.3-17.3,17.3c-2.4,0-0.5-1.9-2.9-1.9c-2.4,0-1,0.7-1.6,1.5
			c-4.7,0.4-9.5,2.4-14.2,2.6c-0.8,0.7-1.7,1.5-3.2,3.2c-5.6,1.4-14,7.4-19.3,9.7c-20.6,8.9-39.7,27.4-51.8,46
			c-1.4,2.3-4.9,4-7.1,7.1c-2.5,3.5-3.9,9.1-6.4,12.2c-2.2,2.5-5.4,5.6-7,8.9c-1.2,2.5-2,5.8-2.5,8.2c-0.7,3.6-6,7.4-5.5,14.1
			c-5.3,0.2-10.6,3.3-14.1,3.6c-13,1.6-23.4,3.5-33.2,6.4c-2.4,0.7-4.5,2.5-7.1,3.3c-4.2,1.2-9.3,2.8-13.5,3.9
			c-6,1.7-14.4,0.4-19.7,4.4c-2.5,1.9-2.7,5-2.7,6.6c0,2.4,1.8,15.2,4.1,21.5c0.6,1.8,2.5,3.3,3.2,5c3.1,7.1,1.7,16.5,4.5,23.8
			c4.8,12.8,13.3,36.7,13.3,39.2c0,6.3-5.9,6.3-9.9,9.6h-19.9c-2.4,0,0.5,1.9-1.9,1.9h-15.4c-2.4,0,0.5,1.9-1.9,1.9h-15.4
			c-2.4,0,0.5,1.9-1.9,1.9H527.5c-0.8,0.8-0.2,1.9-2.6,1.9c-2.4,0-7.3-1.9-11-2.3c-2.3-1.6-4.3-3.6-6.3-5.7
			c6-29.5,14.9-49.6,17.5-76c0.1-1.9,1.7-2.1,1.7-4.5c0-2.4-1.9-7.2-2.2-10.8c-3.4-2.7-6.8-6.4-11.9-8.2c-2.6-1-5.7-0.2-8.5-0.6
			c0,0,1.3-1.5-1.1-1.6h-26.2c-0.1-1.4,0.3-1.9-2.1-1.9c-2.4,0-1.9,0.5-2.1,1.8c-1.3,0.1-0.3-1.8-2.7-1.8h-27.3
			c-2.4,0-0.7,0.7-1.2,1.5c-1.7,0.4-2.8,0.5-5.2,0.5c-2.4,0-7.1-0.8-9.2-2.4c-4.8-3.5-9.8-9.1-12.3-14.2c-1.1-2-5.3-4.1-7.1-7.1
			c-1.2-2.2-2.6-5.7-4.4-8.3c-4.8-7-12.1-14.4-18.7-20.6c-0.6-7.1-8-12.1-13.4-15.3c-1.8-2.9-9.3-8.1-11.6-11.6
			c-7.5-11.7-20.3-21.5-31.9-30.1c-11.6-8.4-26-13.7-37.6-21.5c-0.7-2.7-0.3-9.1-1.7-12c-0.2-0.6,0.7-1.7-0.3-35.4
			c0-1.9-1.9-2.9-1.9-5.3c0-2.4,1.9-1.4,1.9-3.8c0-2.4-1.9,1.4-1.9-1v-20.9c0-2.4-0.5-0.2-1.9-0.4V490c-0.1-2.4-0.6-0.2-2-0.5
			c1.1-1.5,1.9-3.1,1.9-5.5s0.3-2.9-1.9-4.1v-12.9c0-2.4-2-0.8-2-3.2c0-2.4,1.9-2.4,1.9-4.8c0-2.4-0.5-1.9-1.9-2.1v-15
			c-0.1-2.4-0.6-0.2-1.9-0.4v-32.3c-0.1-2.4-0.6-0.2-1.9-0.4v-30.4c-0.1-2.4-2,1.2-2-1.2s1.9,0.5,1.9-1.9c0-2.4-1.9,1.4-1.9-1v-28.5
			c0-2.4-1.9-0.8-1.9-3.2s1.9-1.4,1.9-3.9c0-2.4-1.9,1.4-1.7-1v-28.5c0,0-2.2-2.8-2.2-5.2c0-2.4,1.9-4.3,1.9-6.7
			c0-2.4-1.9-2.4-1.9-4.3c0-16.5,4.8-7.9,0.1-14.8h22.4c2.4-0.1,3.2-2.6,4.9-3.7c1.4-1,4.9-0.3,6.7-0.7c3-0.7,4.8-2.6,9.4-3.8
			c0.8-1.4,2.9-3.9,5.1-5.2c18.4-11.9,39-33.2,47.3-53c1.1-2.6,0.3-5.6,0.7-8.5c0.9-0.4,1.8-2.3,3.2-3.1c0.3-6.5,4.1-16.1,4.1-18.5
			c0-2.4-0.5-1.9-1.9-2.2c1.1-1.5,1.9-2.1,1.9-4.5c0-2.4-0.5-2.9-1.9-3v-13c-0.1-2.4-1.7-3.3-3.9-4.6c11.3-12.9,27.7-16,40.9-22.4
			c1.4-0.7,4.7,0,6.5-0.6c7.8-3,17.1-11.6,27-11.6c0.8-0.5,1.7-1.4,3-3.2c7.8-0.8,12.1-6.3,17.4-7.7c2.5-0.6,6.7,0.4,10.3-0.6
			c3.1-0.8,5.7-3.8,8.8-5.2c4.1-1.7,9.5-1,13.4-4.1c1.3,1.1,3.9,1.9,6.5,2.2c2.4,1.7,3.7,5.7,7.1,7.1c3.5,1.4,7.5,2.2,12.2,2.5
			c0,0-1.2,1.6,1.2,1.6h12.3c2.4,0,0.6-0.6,1-1.6c6.7-0.1,11.4-1.8,15.5-3.9c1.4-0.7,4.8,0.2,6.5-0.6c10.5-5.4,22.7-15.9,31.2-25.4
			c0.3-1.8,0.1-4.9,0.6-6.4c1.3-4.1,5.5-9.7,5.5-12.1c0-2.4-1.8-5.9-3.8-8v-3.3C594.4,49.1,597.6,49,600,49L600,49z"/>
		<path id="XMLID_290_" class="st1" d="M328.3,415.7c0-147.8,119.8-267.5,267.5-267.5c147.8,0,267.5,119.8,267.5,267.5
			c0,147.8-119.8,267.5-267.5,267.5C448.1,683.2,328.3,563.4,328.3,415.7L328.3,415.7z M385.9,415.7c0-115.9,94-209.9,209.9-209.9
			c115.9,0,209.9,94,209.9,209.9c0,115.9-94,209.9-209.9,209.9C479.9,625.6,385.9,531.6,385.9,415.7L385.9,415.7z"/>
		<path id="XMLID_287_" class="st2" d="M328.3,415.7c0-147.8,119.8-267.5,267.5-267.5c147.8,0,267.5,119.8,267.5,267.5
			c0,147.8-119.8,267.5-267.5,267.5C448.1,683.2,328.3,563.4,328.3,415.7L328.3,415.7z M385.9,415.7c0-115.9,94-209.9,209.9-209.9
			c115.9,0,209.9,94,209.9,209.9c0,115.9-94,209.9-209.9,209.9C479.9,625.6,385.9,531.6,385.9,415.7L385.9,415.7z"/>
		<path id="XMLID_286_" class="st3" d="M345.4,415.7c0-138.3,112.1-250.4,250.4-250.4c138.3,0,250.4,112.1,250.4,250.4
			c0,3.2-0.1,6.3-0.2,9.5h-79.6v173.8c-44.7,41.7-104.7,67.2-170.6,67.2c-65.4,0-124.9-25-169.5-66.1V425.2h-80.7
			C345.5,422,345.4,418.8,345.4,415.7L345.4,415.7z"/>
		<path id="XMLID_283_" class="st1" d="M595.8,310.3l114.8,114.8L481.1,425L595.8,310.3L595.8,310.3z M595.8,257L800,461.2H391.6
			L595.8,257L595.8,257z"/>
		<path id="XMLID_280_" class="st2" d="M595.8,310.3l114.8,114.8L481.1,425L595.8,310.3L595.8,310.3z M595.8,257L800,461.2H391.6
			L595.8,257L595.8,257z"/>
		<path id="XMLID_279_" d="M468.8,571.7c-2.5-0.7-4.7-1.2-7-2.1c0.6,12-2.7,29.3-3.6,33.1c-2.3,1.7-4.4,2.4-7.2,2.7l3.9,5.4
			c8.5-6.1,29.1-15.4,38.6-16.7l-3.7-6.7c-4.5,4.2-17.6,9.3-26,13.2c0.3-7.6,2-17.5,3-22.1C467.7,574.3,468.8,571.7,468.8,571.7
			L468.8,571.7z"/>
		<path id="XMLID_276_" class="st4" d="M515.7,600.3c0.4,1.4,1.6,2.8,0.7,4.4c-2.4,9.8-4.6,15.3-8.3,24.2c-1.6,2-2.4,5.3-3.7,7.1
			c6.8,2.3,12.3,4.9,18.7,3.2c3-1.2,4.7-4.1,4.7-7.3c0-6.4-7-9.1-11.6-10.7l5.7-14.6c4.1,1.1,8.9,2.8,11.6,5.3l1.6-4.5
			C528.2,605.9,515.7,600.3,515.7,600.3L515.7,600.3z M522.8,629.9c0.2,2-0.5,4.3-2.2,5.6c-2.4,1.4-5.8-0.7-8.7-0.7
			c0.5-3.3,1.5-7.2,3.6-9.6C518.5,625.6,522.1,627.1,522.8,629.9L522.8,629.9z"/>
		<path id="XMLID_275_" d="M545.9,615.4c-8.3,5.3-9.5,15.6-8.6,24.4c1.2,6.1,6.6,9.4,12.6,10.4l0.8-5.1c-1.7,0.6-4,0.1-5.7-0.9
			c-3.9-3.6-3.9-9.2-2.7-13.5c4.3,0.3,7.4,1.3,10.7,3.2c0.4-2.1,0.9-4.1,1.6-6.1c-3.5,0.5-7.8-1-11.3-2.1c0.4-1.8,1.7-3.6,2.9-4.6
			c2.8-3.4,6.9-5,11.4-3.1c0.4-1.8,1-3.5,1.6-4.9C554.6,612,549.8,612.9,545.9,615.4L545.9,615.4z"/>
		<path id="XMLID_272_" class="st4" d="M576,615.2c-3.7,0.3-6.8,2.2-8.7,5.6c-5.3,9.3-5.5,21-0.2,30c1.9,2.6,7.6,3.4,10.1,2.4
			c9.2-5.2,11-23.3,8.7-30.1C584.4,618.6,580.5,615.3,576,615.2L576,615.2z M580.9,624.1c2.3,7.5,0.6,17.3-3.8,23
			c-1.7,1.7-4.4,1.4-5.5,0.1c-4.7-5.6-3.5-15.4-1.5-21c0.9-2.6,2.3-5.2,5.7-5.8C578.2,620.2,580.2,621.7,580.9,624.1L580.9,624.1z"
			/>
		<path id="XMLID_271_" d="M595.3,617c0,0,1.1,3,1.4,6.9c0.3,4.2,0.7,20.2-0.5,30.2l6.6-0.5c-1.3-11.1-1.7-22-1.8-32.8
			c4.2-0.4,9.6-1.2,14.2,1c0.3-1.8,0.2-4.2,0.1-6.3C608.9,616.9,601.3,617.1,595.3,617L595.3,617z"/>
		<path id="XMLID_240_" class="st4" d="M619.9,614.4c3.6,13.2,4.8,24.9,6,38.2c2-0.9,4.7-1.1,6.5-1.6c-3.3-5.6-3.5-14.1-4.1-20.4
			c3.5-0.8,6.5-1.3,9.1-4.2c1.7-2.4,3-5.1,1.4-8.5C635.3,610.7,626.9,614.2,619.9,614.4L619.9,614.4z M632.3,617.3
			c2.4,1.4,2.7,3.5,1.6,6.1c-1.2,2.1-3.5,3-6.2,3.1c-0.8-3.2-1.4-6.5-1.5-9.2C628,617.1,630.7,616.7,632.3,617.3L632.3,617.3z"/>
		<path id="XMLID_237_" class="st4" d="M644.3,610.2l0.6,5.2c3.4-1.3,5.3-3.2,9.3-3.5c-1.7,11.9-3.3,24.4-6.9,35.2l5.7,1.1
			c0.1-6,0.9-11.6,2.3-17.4c0,0,4.2,3.4,5.4,5.2c0.8,2.6,1.5,4.9,1.4,7.8l4.9-1.2l-2.1-7.9l2.8-7.2c3.6,3.6,7.1,9.8,8.4,12.9l5-3.1
			c-7.6-8.4-13.3-18.9-19-28.2c2.8-1.2,5.8-1.8,8.4-1.3l-1.5-4.9C661.3,607,652.6,608.6,644.3,610.2L644.3,610.2z M665.5,623.9
			c-0.5,2.7-2.9,5-3.5,7.4l-5.8-5.5l1.5-12.8C660.5,616,662.8,620.3,665.5,623.9L665.5,623.9z"/>
		<path id="XMLID_234_" class="st4" d="M674.7,599.9c7.2,7.9,9.9,19.6,14.3,29.9l-2.7,2l3.8,7.9l4.1-2l-1.9-4.5l18.3-8.6
			c0,0,1.2,2.4,1.8,3.8c0.6-0.3,3.3-1.6,3.8-1.8c-0.6-2-2.1-5-3.1-7.8c-1.5,1-3,1.4-4.3,1.4c-4.6-10.2-10.6-19.6-12.2-30.6
			C689.2,593.1,682,597,674.7,599.9L674.7,599.9z M692.1,596.4c4.4,8.3,7.8,17.3,12,26l-10.3,5c-4.1-7.7-7.8-18-11-26.8
			C685.6,598.9,689.3,598.1,692.1,596.4L692.1,596.4z"/>
		<path id="XMLID_233_" d="M704.6,584.6c-1.4,2.1-2.6,4.1-4.2,6c11.6,3.1,27.1,11.6,30.4,13.7c0.9,2.7,0.9,4.9,0.3,7.6l6.4-2.1
			c-3.2-10-5.7-32.4-4-41.8l-7.5,1.4c2.6,5.6,3.4,19.6,4.5,28.8c-7.1-2.6-16-7.3-20.1-9.7C706.7,586.4,704.6,584.6,704.6,584.6
			L704.6,584.6z"/>
		<path id="XMLID_232_" d="M365.1,378.2c6.3,3.2,12.5,9.4,14.5,10.6c-2.9,1.2-11,5.3-16.1,7.2l-1.1,8.7c1.4-1.3,3.5-1.1,5-1.2
			c10.5,1.6,22.2,2.4,31.2,6.3l1-7.8c0,0-2.3,0.9-3.8,1.1c-4.8,0-18.3-2.2-27.5-3.7c6.3-4.1,10.4-5.7,17.6-7.2l0.3-4.5
			c-5.8-2.6-11-7.2-15.6-11.9c7.3,0.3,27.7,2.5,31.6,5.7l1.3-8.1c-1,0.5-3.1,0.8-4,0.7c-10.3-0.7-20.8-1.7-30.5-4.1
			c-0.9-0.1-1.7-0.5-2.9-1.5C366.2,371.6,365.8,375,365.1,378.2L365.1,378.2z"/>
		<path id="XMLID_229_" class="st4" d="M370,350.5l4.6,2.5c0.9-3.5,0.5-6.2,2.7-9.6c8.6,8.4,17.8,17,24.5,26.3l4.2-3.9
			c-4.8-3.6-8.9-7.6-12.8-12.1c0,0,5.3-1.4,7.4-1.3c2.6,0.9,4.9,1.7,7.2,3.4l1.9-4.7l-7.6-3l-4.1-6.5c5.1-0.8,12.2,0,15.4,0.8
			l0.4-5.9c-11.3,1.2-23.2-0.3-34.1-1.2c0.7-3,2-5.7,3.9-7.6l-4.8-1.7C377.3,334.8,373.6,342.8,370,350.5L370,350.5z M393.6,341.4
			c1.9,1.9,2.3,5.3,3.9,7.1l-7.8,1.4l-9.5-8.7C384.2,340.7,389.1,341.4,393.6,341.4L393.6,341.4z"/>
		<path id="XMLID_228_" d="M382.1,318.6l5.3,2.8c0.7-4.5,1.7-6.4,3.3-10c3.6,1.6,24.8,12.5,28.9,17.1l3.7-6.9
			c-1.1,0.1-2.1,0.2-3.2-0.4c0,0-23.5-12.5-26.5-14.4c2.4-4.5,3-5.7,6.3-8.7l-5.3-2.8C390.9,304.6,387.8,310.4,382.1,318.6
			L382.1,318.6z"/>
		<path id="XMLID_227_" d="M404.5,289.5c1.7,9.7,10.6,14.8,19.1,17.5c6.1,1.3,11.3-2.4,14.5-7.5l-4.4-2.7c-0.1,1.8-1.5,3.7-3,4.9
			c-4.8,2.1-10,0-13.5-2.8c1.9-3.8,4.1-6.3,7.1-8.6c-1.7-1.2-3.4-2.4-5-3.9c-0.9,3.4-4,6.8-6.3,9.6c-1.5-1-2.7-3-3.2-4.5
			c-2-3.9-1.9-8.3,1.6-11.8c-1.5-1-2.8-2.3-3.9-3.4C404.8,280.1,403.7,284.9,404.5,289.5L404.5,289.5z"/>
		<path id="XMLID_226_" d="M433.5,247.4c3.1,6.3,4.3,15.1,5.2,17.2c-3-0.8-12-2.4-17.2-4l-6.1,6.3c1.9-0.2,3.5,1.2,4.7,2.1
			c7.4,7.5,16.3,15.3,21.1,23.8l5.4-5.6c0,0-2.3-0.6-3.7-1.4c-3.9-2.9-13.2-12.8-19.8-19.5c7.5,0.5,11.8,1.7,18.4,4.8l2.9-3.5
			c-3.1-5.5-4.5-12.3-5.3-18.9c5.7,4.6,20.6,18.6,21.8,23.5l5.9-5.7c-1.1-0.2-3-1.2-3.7-1.8c-7.8-6.7-15.6-13.8-21.9-21.6
			c-0.6-0.6-1.1-1.4-1.4-2.9C438.4,242.8,436,245.2,433.5,247.4L433.5,247.4z"/>
		<path id="XMLID_223_" class="st4" d="M453.6,229l2.2,4.7c2.8-2.3,4.1-4.7,7.8-6.2c2,11.9,4.4,24.2,4.4,35.7l5.7-0.7
			c-1.8-5.8-2.8-11.4-3.2-17.3c0,0,5.1,2,6.8,3.3c1.6,2.2,3,4.2,3.8,7l4.3-2.7l-4.4-6.9l0.5-7.7c4.6,2.3,9.8,7.2,12,9.7l3.8-4.5
			c-9.8-5.7-18.6-13.9-26.9-21c2.3-2,4.9-3.5,7.6-3.9l-2.9-4.2C468.7,220.6,461,224.9,453.6,229L453.6,229z M478.1,235.5
			c0.4,2.7-1.2,5.6-1,8.1l-7.2-3.4l-2.6-12.6C470.9,229.5,474.4,232.9,478.1,235.5L478.1,235.5z"/>
		<path id="XMLID_222_" d="M482.9,209.9l2.6,5.5c3.2-3.2,5.2-4.1,8.6-6c1.9,3.4,12.3,24.9,12.8,31l7.1-3.3c-0.9-0.6-1.8-1.1-2.3-2.2
			c0,0-11.2-24.1-12.5-27.5c4.7-2.2,5.8-2.7,10.3-3.1l-2.6-5.5C498.3,204.1,492.5,206.8,482.9,209.9L482.9,209.9z"/>
		<path id="XMLID_221_" d="M520.3,194l-6,2.2c5.2,12.9,8.2,21.8,10.1,36l6.6-2c0,0-0.5-2.4,0-4.1c1.4-4.6,6-20.4,10.9-30.5
			c3.1,9.2,6.8,19.1,8,28.2l7.1-2.5c0,0-2-2.2-3-4.7c-2.9-7.3-7.4-21.1-8.2-30l-6.7,1.7c-2.3,11.2-7.1,22.4-11.4,33.2
			C524.6,213.3,520.8,202.8,520.3,194L520.3,194z"/>
		<path id="XMLID_220_" d="M568.8,183.2c2,2.9,2.3,7.1,2.3,10.8c-3,0.4-6.3,1.2-8.7-0.7c-2.4-2.7-2.4-5.6-2.1-8.3l-6.1,0.4
			c1.4,2.5,1.5,5.5,2.8,8.3c3.6,6,9,5.3,14.9,4.6c0,0,2.9,16.7,0.2,22.6l8.5-1.3c-1.8-3-2.7-6.7-3-10.1c-0.8-7.2-2.9-18.9-1.2-27.1
			L568.8,183.2L568.8,183.2z"/>
		<path id="XMLID_219_" d="M589.2,182.8c0.6,1.2,0.9,2.1,0.8,3.6c-0.2,12.7,0.5,19.9-2.1,32l7.3,0.5c-0.8-5.4-1.3-12.1-0.6-17.2
			c5.4,3.7,10.7,10.8,11.9,12.6c0.9-1.8,2.1-3.3,3.7-4.7l-10.1-8.3c2.7-3.3,6.1-5.6,9.5-7.7c0,0-2.1-2.4-3.2-4.3
			c-3.7,4.5-7.4,8-11.7,11.3c-0.2-6.6,0.2-11.1,2.1-17.5C594.4,183.3,591.6,183.2,589.2,182.8L589.2,182.8z"/>
		<path id="XMLID_218_" d="M629,184.1l-6.3-0.9c-1.4,13.9-3,23.1-8,36.6l6.8,1.3c0,0,0.7-2.4,2-3.6c3.4-3.4,14.9-15.2,23.9-21.8
			c-1.5,9.6-2.9,20.1-6.1,28.7l7.5,1.1c0,0-0.7-2.9-0.4-5.6c0.8-7.8,3.3-22.1,6.8-30.4l-6.7-1.6c-7.3,8.8-16.8,16.5-25.6,24
			C623.8,203.1,625.3,192,629,184.1L629,184.1z"/>
		<path id="XMLID_213_" class="st4" d="M700.2,206.7c0,0,0.7,3.2-2.7,8.2c-5.8,2-14.5,2.9-14.5,2.9c1.3,4.8,3.5,9.4,5.4,14.2
			c-1.8,3.5-3.3,6.1-5.7,8.2l6.3,3c-0.1-1.8,1.5-6,3.3-8.8c2.2-0.9,9.9-1.9,14.4-3.3c-1.4-5.2-3.4-9.7-5.5-14.2
			c1.4-2.7,2.6-5.5,5.3-6.1L700.2,206.7L700.2,206.7z M691,227.2l-2.4-5.7l6.2-1.5C693.9,221.9,691.9,225.6,691,227.2L691,227.2z
			 M700.9,228c-1.5,0.2-3.8,0.7-5.7,1.1l3.5-6.7C699.5,224.2,700.8,226.2,700.9,228L700.9,228z"/>
		<path id="XMLID_210_" class="st4" d="M724.3,219.5l-3.7,3.6c3.1,1.9,5.8,2.3,8.4,5.4c-10.6,5.8-21.5,12-32.3,15.7l2.5,5.2
			c4.9-3.6,9.8-6.3,15.3-8.7c0,0-0.2,5.4-0.9,7.5c-1.6,2.2-3,4.2-5.4,5.8l4,3.2l5.1-6.4l7.4-2.1c-0.7,5.1-3.6,11.6-5.3,14.5l5.5,2.1
			c2.2-11.2,7.1-22.1,11.1-32.2c2.6,1.5,4.9,3.6,6.1,5.9l3-4.1C737.1,231.1,730.6,225.2,724.3,219.5L724.3,219.5z M726.1,244.7
			c-2.4,1.2-5.7,0.7-8,1.7l0.9-7.9l11.1-6.5C729.4,235.9,727.4,240.4,726.1,244.7L726.1,244.7z"/>
		<path id="XMLID_209_" d="M754.9,245.6c-0.5,1.3-0.9,2.1-2,3.2c-9.1,8.8-13.7,14.5-24.1,21.1l4.8,5.5c3.3-4.4,7.6-9.5,11.8-12.6
			c1.2,6.4-0.1,15.2-0.5,17.3c1.9-0.6,3.8-0.8,6-0.8l-1.2-13c4.2-0.4,8.3,0.4,12.1,1.3c0,0,0.3-3.2,0.8-5.3
			c-5.8,0.5-10.9,0.4-16.2-0.3c4.5-4.8,8-7.7,13.8-10.9C758.2,249.5,756.3,247.6,754.9,245.6L754.9,245.6z"/>
		<path id="XMLID_208_" d="M778,268.8c-2.1-1.4-4.1-2.6-6-4.2c-3.1,11.6-11.6,27.1-13.7,30.5c-2.7,0.9-4.9,0.9-7.6,0.3l2.1,6.4
			c10-3.2,32.5-5.7,41.9-4l-1.4-7.6c-5.6,2.6-19.6,3.4-28.8,4.5c2.6-7.1,7.3-16.1,9.7-20.1C776.2,270.9,778,268.8,778,268.8
			L778,268.8z"/>
		<path id="XMLID_207_" d="M801.8,305.9l-5,1.4c2.7,2.1,4.3,6,5.2,9.2c-11.1-0.6-23.8-0.5-35.3-4.9c0.6,2.7,0.8,4.4,0.8,7
			c11.5,0.1,23.5,1.3,35.1,3c-7.3,4.3-16.7,8.5-24.6,11c-1.6,0.1-2.2,0.4-3.5,0.3l3.8,7.2c0,0,1-1.5,2.2-2.4
			c2.4-1.9,19.5-10.2,30.2-12.4C807.9,320.3,803.9,312.2,801.8,305.9L801.8,305.9z"/>
		<path id="XMLID_206_" d="M814.6,331.3l-5.7,1.9c2.7,3.6,3.4,5.6,4.9,9.3c-3.6,1.5-26.2,9.2-32.3,8.9l2.4,7.5
			c0.7-0.9,1.3-1.7,2.5-2.1c0,0,25.3-8.2,28.8-9.1c1.6,4.9,2,6.1,1.8,10.6l5.7-1.9C818.5,347.3,816.5,341.2,814.6,331.3L814.6,331.3
			z"/>
		<path id="XMLID_205_" d="M819.8,367.7c-8.1-5.5-18.1-2.6-25.8,1.6c-5.2,3.5-6.1,9.8-4.6,15.7l5-1.3c-1.2-1.3-1.7-3.7-1.4-5.6
			c1.8-5,6.9-7.2,11.4-7.7c1.4,4.1,1.7,7.4,1.3,11.1c2.1-0.4,4.1-0.8,6.3-0.9c-1.8-3-2.1-7.6-2.5-11.2c1.8-0.3,4,0.1,5.4,0.8
			c4.2,1.3,7.3,4.4,7.3,9.3c1.8-0.3,3.6-0.4,5.2-0.4C826.3,374.4,823.6,370.3,819.8,367.7L819.8,367.7z"/>
		<path id="XMLID_204_" d="M828.5,386.2l-6,0.4c1.8,4.1,2,6.3,2.5,10.2c-3.9,0.6-27.6,2.5-33.5,0.8l0.5,7.8c0.9-0.7,1.7-1.3,2.9-1.4
			c0,0,26.5-1.9,30.1-1.8c0.4,5.1,0.4,6.4-0.8,10.7l6-0.4C828.4,402.6,828,396.2,828.5,386.2L828.5,386.2z"/>
		<path id="XMLID_203_" class="st3" d="M614.1,450.9h58.8h58.8v104.7h-54.2c0,2.5-2,4.6-4.6,4.6c-2.5,0-4.6-2-4.6-4.6h-54.2V450.9
			L614.1,450.9z"/>
		<path id="XMLID_202_" class="st3" d="M619.1,446.5c6.9-2.9,16.8-4.7,26.9-4.7c10,0,19.9,1.8,26.9,4.7v105.7
			c-6.9-2.9-16.8-4.7-26.9-4.7c-10,0-19.9,1.8-26.9,4.7V446.5L619.1,446.5z"/>
		<path id="XMLID_201_" class="st3" d="M672.9,446.5c6.9-2.9,16.8-4.7,26.9-4.7c10,0,19.9,1.8,26.9,4.7v105.7
			c-6.9-2.9-16.8-4.7-26.9-4.7c-10,0-19.9,1.8-26.9,4.7V446.5L672.9,446.5z"/>
		<path id="XMLID_200_" class="st3" d="M619.1,446.5c6.9-2.9,16.8-4.7,26.9-4.7c10,0,19.9,1.8,26.9,4.7v100.4
			c-6.9-2.9-16.8-5.1-26.9-5.1c-10,0-19.9,2.2-26.9,5.1V446.5L619.1,446.5z"/>
		<path id="XMLID_199_" class="st3" d="M672.9,446.5c6.9-2.9,16.8-4.7,26.9-4.7c10,0,19.9,1.8,26.9,4.7v100.4
			c-6.9-2.9-16.8-5.1-26.9-5.1c-10,0-19.9,2.2-26.9,5.1V446.5L672.9,446.5z"/>
		<path id="XMLID_198_" class="st3" d="M460,450.9h58.8h58.8v104.7h-54.2c0,2.5-2,4.6-4.6,4.6c-2.5,0-4.6-2-4.6-4.6H460V450.9
			L460,450.9z"/>
		<path id="XMLID_197_" class="st3" d="M464.9,446.5c6.9-2.9,16.8-4.7,26.9-4.7c10,0,19.9,1.8,26.9,4.7v105.7
			c-6.9-2.9-16.8-4.7-26.9-4.7c-10,0-19.9,1.8-26.9,4.7V446.5L464.9,446.5z"/>
		<path id="XMLID_196_" class="st3" d="M518.7,446.5c6.9-2.9,16.8-4.7,26.9-4.7c10,0,19.9,1.8,26.9,4.7v105.7
			c-6.9-2.9-16.8-4.7-26.9-4.7c-10,0-19.9,1.8-26.9,4.7V446.5L518.7,446.5z"/>
		<path id="XMLID_195_" class="st3" d="M464.9,446.5c6.9-2.9,16.8-4.7,26.9-4.7c10,0,19.9,1.8,26.9,4.7v100.4
			c-6.9-2.9-16.8-5.1-26.9-5.1c-10,0-19.9,2.2-26.9,5.1V446.5L464.9,446.5z"/>
		<path id="XMLID_194_" class="st3" d="M518.7,446.5c6.9-2.9,16.8-4.7,26.9-4.7c10,0,19.9,1.8,26.9,4.7v100.4
			c-6.9-2.9-16.8-5.1-26.9-5.1c-10,0-19.9,2.2-26.9,5.1V446.5L518.7,446.5z"/>
		<path id="XMLID_193_" class="st3" d="M614.1,299.3h58.8h58.8v104.7h-54.2c0,2.5-2,4.6-4.6,4.6c-2.5,0-4.6-2-4.6-4.6h-54.2V299.3
			L614.1,299.3z"/>
		<path id="XMLID_192_" class="st3" d="M619.1,294.8c6.9-2.9,16.8-4.7,26.9-4.7c10,0,19.9,1.8,26.9,4.7v105.7
			c-6.9-2.9-16.8-4.7-26.9-4.7c-10,0-19.9,1.8-26.9,4.7V294.8L619.1,294.8z"/>
		<path id="XMLID_191_" class="st3" d="M672.9,294.8c6.9-2.9,16.8-4.7,26.9-4.7c10,0,19.9,1.8,26.9,4.7v105.7
			c-6.9-2.9-16.8-4.7-26.9-4.7c-10,0-19.9,1.8-26.9,4.7V294.8L672.9,294.8z"/>
		<path id="XMLID_190_" class="st3" d="M619.1,294.8c6.9-2.9,16.8-4.7,26.9-4.7c10,0,19.9,1.8,26.9,4.7v100.4
			c-6.9-2.9-16.8-5.1-26.9-5.1c-10,0-19.9,2.2-26.9,5.1V294.8L619.1,294.8z"/>
		<path id="XMLID_189_" class="st3" d="M672.9,294.8c6.9-2.9,16.8-4.7,26.9-4.7c10,0,19.9,1.8,26.9,4.7v100.4
			c-6.9-2.9-16.8-5.1-26.9-5.1c-10,0-19.9,2.2-26.9,5.1V294.8L672.9,294.8z"/>
		<path id="XMLID_171_" class="st3" d="M460,299.3h58.8h58.8v104.7h-54.2c0,2.5-2,4.6-4.6,4.6c-2.5,0-4.6-2-4.6-4.6H460V299.3
			L460,299.3z"/>
		<path id="XMLID_170_" class="st3" d="M464.9,294.8c6.9-2.9,16.8-4.7,26.9-4.7c10,0,19.9,1.8,26.9,4.7v105.7
			c-6.9-2.9-16.8-4.7-26.9-4.7c-10,0-19.9,1.8-26.9,4.7V294.8L464.9,294.8z"/>
		<path id="XMLID_169_" class="st3" d="M518.7,294.8c6.9-2.9,16.8-4.7,26.9-4.7c10,0,19.9,1.8,26.9,4.7v105.7
			c-6.9-2.9-16.8-4.7-26.9-4.7c-10,0-19.9,1.8-26.9,4.7V294.8L518.7,294.8z"/>
		<path id="XMLID_168_" class="st3" d="M464.9,294.8c6.9-2.9,16.8-4.7,26.9-4.7c10,0,19.9,1.8,26.9,4.7v100.4
			c-6.9-2.9-16.8-5.1-26.9-5.1c-10,0-19.9,2.2-26.9,5.1V294.8L464.9,294.8z"/>
		<path id="XMLID_167_" class="st3" d="M518.7,294.8c6.9-2.9,16.8-4.7,26.9-4.7c10,0,19.9,1.8,26.9,4.7v100.4
			c-6.9-2.9-16.8-5.1-26.9-5.1c-10,0-19.9,2.2-26.9,5.1V294.8L518.7,294.8z"/>
		<path id="XMLID_159_" class="st4" d="M500.1,335.2l-2.7,7.6h-0.1c-0.2-1.7-0.8-3.4-1.6-4.7c-1-1.6-2.6-3-4.6-3.3
			c-1.8-0.3-4.3,0.2-5.6,1.1c-3.1,2.1-4.2,4.3-4.6,7.4c-0.6,4.8,0.2,7.6,1.3,9.6c0.9,1.5,2,2.5,3.6,3.2c2.8,1.2,4.9,0.8,6.9,0.1
			c3.8-1.2,4.7-4.2,5.5-5.4c1,2.8,1.7,4.3,2.7,5.2c0.8,0.7,1.7,1.1,2.9,0.1c1.2-0.9,1.6-2.6,1.6-3.4l0.1-2.5h-0.8
			c-0.1,0.6-0.1,1.9-1,2.8c-1.3,1.3-2.4,0.2-2.9-0.2c-0.8-0.8-1.4-2-1.7-4.1l4.9-13.5H500.1L500.1,335.2z M494.9,349.9
			c-0.5,1.4-1.7,3.5-2.5,4.2c-0.9,0.8-1.9,1.2-2.6,1.2c-1.2-0.1-1.7-0.3-2.6-1.3c-1-1-1.5-2.4-1.7-3.6c-0.4-2.4-0.6-4.8-0.3-7.1
			c0.3-2.3,0.8-4.1,1.9-5.5c0.9-1.2,1.7-1.9,4.2-1.2c1.2,0.4,2.4,1.5,3.1,2.6c1.1,1.8,1.6,5.1,1.9,7.3L494.9,349.9L494.9,349.9z"/>
		<path id="XMLID_157_" d="M697.4,500.1c-1.1-0.5-2.8-0.8-4.1-4c-1.2-2.7-1.5-8.7,1.6-11.9c1.4-1.4,3.3-1.8,5.1-1.8
			c1.8,0,3.7,0.4,5.1,1.8c3.1,3.1,2.7,9.2,1.6,11.9c-1.4,3.2-3,3.5-4.1,4l-0.6,5.3h10.4v-5.7h-0.5c-0.4,1.7-0.8,2.1-2.3,2.1h-5.5
			l0.1-1c2.7-0.8,4.4-1.7,5.9-3.8c2.5-3.6,2-7.7,0.6-10.4c-1.4-2.6-3.1-3.3-4-3.9c-1.6-0.9-3.9-1.5-6.4-1.5c-2.5,0-4.8,0.6-6.4,1.5
			c-0.9,0.6-2.6,1.3-4,3.9c-1.5,2.6-1.9,6.7,0.6,10.4c1.4,2.1,3.2,3,5.9,3.8l0.1,1h-5.5c-1.5,0-1.9-0.4-2.3-2.1h-0.5v5.7H698
			L697.4,500.1L697.4,500.1z"/>
		<path id="XMLID_156_" class="st4" d="M648,338.8l-0.7,6.9c-0.2,2.2-0.3,5.6,0.3,7.3c0.5,1.5,1.4,2.6,2.1,3.2
			c1.2,0.8,2.7,0.3,3.6-0.1c1.2-0.6,3-2.6,3.1-6.5h-0.9c-0.1,0.6,0,1.8-1.1,2.6c-1.4,1.1-2.6,0.3-3.2-0.2c-0.6-0.6-1.1-1.9-1.1-3.1
			c0-1.6,0-5,0.5-10h5.4v-3.7h-15.9c-2,0-3.3,1.2-4,2.2c-1.3,1.8-1.7,3.5-1.9,4.1h0.7l0.9-1.3c0.5-0.7,1.6-1.4,2.8-1.4h2l-1.2,9.8
			c-0.2,1.8-1.5,2.8-2.1,3.7c-0.5,0.7-1.3,1.4-1,2.8c0.2,1,1.5,1.9,2.6,1.6c1.4-0.3,2-1.3,2.3-2.9c0.5-2.3,1.3-7,2-15H648L648,338.8
			z"/>
		<path id="XMLID_154_" d="M544,494.6l-10.3,12h20l1.4-7.5h-0.7c-1.1,3.5-2.4,4.1-4.8,4.1h-10.7l8.6-10.1l-7.4-9.4h8
			c3.6,0,4.2,2.5,4.6,3.8h0.7l-0.4-5.5h-18.9L544,494.6L544,494.6z"/>
		<path id="XMLID_153_" d="M572.1,760.7c-6.1-1.1-14.2-1.1-18.2,2l5,4c-2,8.1,5,18.2-4.1,23.3c5,2,11.2,2,16.2,0
			c-9.1-4-7.1-10.1-6-18.2C563.9,765.8,571,764.8,572.1,760.7L572.1,760.7z"/>
		<path id="XMLID_149_" class="st4" d="M605.6,743.7c-5-3.1-8.1-7.1-15.1-5c-4.1-1.1-4.1,4-8.1,5c-5.1,8.1-1.1,16.2,6,21.2
			c-3,7.1-11.3,7.3-11.3,15.4c-0.6,1-0.9,1.9-0.9,1.9c0,6,9.2,7,14.3,10c14.2,2,15.3-12.2,18.2-19.2c-2-5-9.1-3-10.2-9.1
			C600.5,756.8,611.7,751.8,605.6,743.7L605.6,743.7z M590.4,770c6.1,1,6.9,6.7,7.9,10.7c-0.4,4.2-5.8,8.5-9.9,4.4
			C582.4,780.1,590.4,774.1,590.4,770L590.4,770z M590.4,743.7c4.1-1.1,6.1,1,8.1,3c-1,4.1,1.1,9.1-3,12.1c-6,0-9.1-4.1-9.1-9.1
			C584.3,745.7,588.4,745.7,590.4,743.7L590.4,743.7z"/>
		<path id="XMLID_148_" d="M642.3,759c-10.1,3.1-23.5-1.2-30.4,0c-0.7,0.2-0.7,0.8-0.9,1.9c-0.4,1.8-0.3,5,0.2,7.3
			c0.2,1.1-0.3,2.3,0.7,2.7c1.1,0.4,1.6-1.1,2.3-1.7c5.1-5,12.8,0.8,20-1c4.2,6.1-6.6,13.8-8.1,17.2c0,1.9-1.2,3.2-3.2,4.4
			c-3.1,1.9-4.2,6.9-8,8.8c1.1,2-1,4.1,1.1,5c11.2-7.1,18.2-19.2,23.3-31.3C639.3,767.2,649.4,763.1,642.3,759L642.3,759z"/>
		<path id="XMLID_144_" d="M667.5,758.4c-2.1-7.1-11.2-6-16.2-1c0,8.1,9.1-3.1,12.1,6c1,7.1-10.1,7.1-11.2,12.1
			c4.1-1.9,8.1-1,11.2,2c0,4.1,1,7.1-2,10.2c-4.1,3-9.1-2-12.1,0v3c4.1,1,12.1,3,16.2-2c2-5,7.1-13.2-2-16.2
			C661.3,766.6,669.3,764.5,667.5,758.4L667.5,758.4z"/>
	</g>
	<g id="XMLID_1218_">
		<g id="XMLID_95_">
			<path id="XMLID_1317_" class="st0" d="M98.2,910.6l23.3,61.8l23.2-61.8h18.1v80.7h-14v-26.6l1.4-35.6l-23.8,62.2h-10l-23.8-62.1
				l1.4,35.5v26.6H80v-80.7H98.2z"/>
			<path id="XMLID_1314_" class="st0" d="M213.8,991.3c-0.4-0.7-0.7-1.5-0.9-2.5c-0.2-1-0.5-2-0.6-3.1c-0.9,0.9-1.9,1.8-3,2.6
				c-1.1,0.8-2.3,1.5-3.6,2.1c-1.3,0.6-2.7,1.1-4.3,1.4c-1.5,0.4-3.2,0.5-4.9,0.5c-3,0-5.7-0.5-8.3-1.4c-2.5-0.9-4.7-2.2-6.5-3.8
				c-1.8-1.6-3.2-3.5-4.2-5.7c-1-2.2-1.5-4.5-1.5-7.1c0-3.2,0.6-6.1,1.8-8.5c1.2-2.5,3-4.5,5.3-6.2c2.3-1.7,5.2-2.9,8.6-3.8
				c3.4-0.9,7.2-1.3,11.6-1.3h8.5v-3.9c0-3.1-0.9-5.6-2.6-7.5c-1.7-1.9-4.4-2.8-7.9-2.8c-1.6,0-3,0.2-4.3,0.6
				c-1.3,0.4-2.4,1-3.3,1.7c-0.9,0.7-1.6,1.6-2.1,2.6c-0.5,1-0.7,2.1-0.7,3.2h-13.5c0-2.4,0.6-4.6,1.7-6.8c1.2-2.2,2.8-4.2,5-5.9
				c2.1-1.7,4.7-3.1,7.8-4.1c3-1,6.5-1.6,10.2-1.6c3.4,0,6.5,0.4,9.3,1.3c2.8,0.9,5.3,2.2,7.4,3.9c2.1,1.7,3.7,3.9,4.8,6.4
				c1.1,2.6,1.7,5.6,1.7,9v26.6c0,5.4,0.8,9.7,2.3,12.9v0.9H213.8z M199,981.6c1.6,0,3-0.2,4.4-0.6c1.3-0.4,2.6-0.9,3.7-1.6
				c1.1-0.7,2-1.4,2.8-2.3c0.8-0.9,1.5-1.7,1.9-2.6v-11.3h-7.3c-5,0-8.7,0.9-11.2,2.6c-2.5,1.7-3.8,4.2-3.8,7.4
				c0,1.2,0.2,2.3,0.6,3.4c0.4,1,1,1.9,1.8,2.7s1.8,1.3,3,1.8C196.1,981.4,197.5,981.6,199,981.6z"/>
			<path id="XMLID_1312_" class="st0" d="M256.3,916.7v14.6h10.6v10h-10.6v33.5c0,1.4,0.2,2.5,0.4,3.3c0.3,0.9,0.7,1.5,1.3,2
				c0.6,0.5,1.2,0.8,2,0.9c0.8,0.2,1.6,0.2,2.5,0.2c0.9,0,1.8-0.1,2.7-0.2c0.9-0.1,1.5-0.2,2-0.4v10.4c-1.1,0.3-2.3,0.6-3.7,0.9
				c-1.4,0.3-3.1,0.4-5.1,0.4c-2.2,0-4.3-0.3-6.2-0.9c-1.9-0.6-3.5-1.6-4.9-2.9c-1.4-1.3-2.5-3.1-3.2-5.2c-0.8-2.1-1.2-4.8-1.2-7.9
				v-34.2H233v-10h9.9v-14.6H256.3z"/>
			<path id="XMLID_1309_" class="st0" d="M303.5,992.4c-4.4,0-8.4-0.7-12-2.2c-3.5-1.5-6.6-3.5-9-6.1c-2.5-2.6-4.4-5.7-5.7-9.2
				s-2-7.4-2-11.5v-2.2c0-4.7,0.7-9,2.1-12.8s3.3-7.1,5.8-9.8s5.3-4.7,8.6-6.2c3.3-1.5,6.9-2.2,10.7-2.2c4.4,0,8.1,0.7,11.4,2.2
				c3.2,1.5,5.9,3.5,8,6.1s3.7,5.7,4.7,9.4c1,3.6,1.6,7.6,1.6,11.9v5.8h-39.2c0.2,2.3,0.7,4.5,1.5,6.4c0.8,2,1.9,3.6,3.2,5.1
				c1.4,1.4,3,2.5,4.9,3.4c1.9,0.8,4,1.2,6.3,1.2c3.3,0,6.2-0.7,8.7-2c2.5-1.3,4.6-3.2,6.4-5.5l7.3,6.9c-1,1.4-2.2,2.8-3.6,4.2
				c-1.4,1.3-3.1,2.5-5,3.6c-1.9,1.1-4.1,1.9-6.5,2.5C309.2,992,306.5,992.4,303.5,992.4z M301.9,941c-3.7,0-6.7,1.3-8.9,3.9
				c-2.3,2.6-3.7,6.2-4.4,10.8h25.7v-1c-0.1-1.8-0.4-3.5-0.9-5.1c-0.5-1.6-1.2-3.1-2.1-4.4s-2.2-2.3-3.7-3
				C306,941.4,304.2,941,301.9,941z"/>
			<path id="XMLID_1307_" class="st0" d="M350.7,931.3l0.4,6.3c2-2.3,4.4-4.1,7.3-5.4c2.9-1.3,6.2-1.9,10-1.9c3.7,0,6.9,0.7,9.8,2.2
				c2.9,1.5,5.1,3.8,6.6,7c2-2.8,4.5-5,7.6-6.7c3.1-1.7,6.7-2.5,10.8-2.5c3.1,0,5.9,0.4,8.3,1.2c2.4,0.8,4.5,2.1,6.2,3.9
				c1.7,1.8,3,4.1,3.9,6.9c0.9,2.8,1.4,6.2,1.4,10.1v38.8h-13.5v-38.9c0-2.2-0.3-4-0.7-5.5c-0.5-1.4-1.2-2.6-2.2-3.4
				c-0.9-0.9-2.1-1.4-3.4-1.8c-1.3-0.3-2.8-0.5-4.5-0.5c-3.1,0-5.6,0.8-7.5,2.5c-1.9,1.6-3.3,3.8-4.1,6.5c0,0.2,0,0.4,0,0.6
				c0,0.2,0,0.4,0,0.6v39.9h-13.5v-38.7c0-2.1-0.2-3.9-0.8-5.3c-0.5-1.4-1.2-2.6-2.2-3.5c-0.9-0.9-2.1-1.5-3.4-1.9
				c-1.3-0.4-2.8-0.6-4.5-0.6c-2.9,0-5.3,0.6-7.1,1.8c-1.9,1.2-3.3,2.8-4.3,4.8v43.4H338v-60H350.7z"/>
			<path id="XMLID_1304_" class="st0" d="M472.6,991.3c-0.4-0.7-0.7-1.5-0.9-2.5c-0.2-1-0.5-2-0.6-3.1c-0.9,0.9-1.9,1.8-3,2.6
				c-1.1,0.8-2.3,1.5-3.6,2.1c-1.3,0.6-2.7,1.1-4.3,1.4c-1.5,0.4-3.2,0.5-4.9,0.5c-3,0-5.7-0.5-8.3-1.4c-2.5-0.9-4.7-2.2-6.5-3.8
				c-1.8-1.6-3.2-3.5-4.2-5.7c-1-2.2-1.5-4.5-1.5-7.1c0-3.2,0.6-6.1,1.8-8.5c1.2-2.5,3-4.5,5.3-6.2c2.3-1.7,5.2-2.9,8.6-3.8
				c3.4-0.9,7.2-1.3,11.6-1.3h8.5v-3.9c0-3.1-0.9-5.6-2.6-7.5c-1.7-1.9-4.4-2.8-7.9-2.8c-1.6,0-3,0.2-4.3,0.6s-2.4,1-3.3,1.7
				c-0.9,0.7-1.6,1.6-2.1,2.6c-0.5,1-0.7,2.1-0.7,3.2h-13.5c0-2.4,0.6-4.6,1.7-6.8c1.2-2.2,2.8-4.2,5-5.9c2.1-1.7,4.7-3.1,7.8-4.1
				c3-1,6.5-1.6,10.2-1.6c3.4,0,6.5,0.4,9.3,1.3c2.8,0.9,5.3,2.2,7.4,3.9c2.1,1.7,3.7,3.9,4.8,6.4c1.1,2.6,1.7,5.6,1.7,9v26.6
				c0,5.4,0.8,9.7,2.3,12.9v0.9H472.6z M457.8,981.6c1.6,0,3-0.2,4.4-0.6c1.3-0.4,2.6-0.9,3.7-1.6c1.1-0.7,2-1.4,2.8-2.3
				c0.8-0.9,1.5-1.7,1.9-2.6v-11.3h-7.3c-5,0-8.7,0.9-11.2,2.6c-2.5,1.7-3.8,4.2-3.8,7.4c0,1.2,0.2,2.3,0.6,3.4c0.4,1,1,1.9,1.8,2.7
				c0.8,0.8,1.8,1.3,3,1.8C454.9,981.4,456.2,981.6,457.8,981.6z"/>
			<path id="XMLID_1302_" class="st0" d="M515,916.7v14.6h10.6v10H515v33.5c0,1.4,0.2,2.5,0.4,3.3c0.3,0.9,0.7,1.5,1.3,2
				c0.6,0.5,1.2,0.8,2,0.9c0.8,0.2,1.6,0.2,2.5,0.2s1.8-0.1,2.7-0.2c0.9-0.1,1.5-0.2,2-0.4v10.4c-1.1,0.3-2.3,0.6-3.7,0.9
				c-1.4,0.3-3.1,0.4-5.1,0.4c-2.2,0-4.3-0.3-6.2-0.9c-1.9-0.6-3.5-1.6-4.9-2.9c-1.4-1.3-2.5-3.1-3.2-5.2c-0.8-2.1-1.2-4.8-1.2-7.9
				v-34.2h-9.9v-10h9.9v-14.6H515z"/>
			<path id="XMLID_1299_" class="st0" d="M535.9,915.7c0-2.1,0.7-3.8,2-5.2c1.3-1.4,3.2-2.1,5.6-2.1c2.4,0,4.3,0.7,5.7,2.1
				c1.3,1.4,2,3.1,2,5.2c0,2-0.7,3.7-2,5.1c-1.3,1.3-3.2,2-5.7,2c-2.4,0-4.3-0.7-5.6-2C536.6,919.5,535.9,917.8,535.9,915.7z
				 M550.2,991.3h-13.5v-60h13.5V991.3z"/>
			<path id="XMLID_1296_" class="st0" d="M589.5,981.6c1.6,0,3.2-0.2,4.6-0.7c1.4-0.5,2.7-1.2,3.7-2.1c1-0.9,1.9-2,2.5-3.2
				c0.6-1.3,1-2.6,1.1-4.1h12.7c-0.1,2.9-0.8,5.6-2.1,8.1c-1.3,2.5-3.1,4.8-5.3,6.7c-2.2,1.9-4.7,3.4-7.7,4.5
				c-2.9,1.1-6,1.6-9.4,1.6c-4.6,0-8.6-0.8-12-2.4c-3.4-1.6-6.3-3.7-8.5-6.5c-2.3-2.7-4-5.9-5.1-9.6c-1.1-3.7-1.7-7.5-1.7-11.6v-1.9
				c0-4.1,0.6-8,1.7-11.6c1.1-3.7,2.8-6.9,5.1-9.6c2.3-2.8,5.1-4.9,8.5-6.5c3.4-1.6,7.4-2.4,12-2.4c3.6,0,6.9,0.6,9.9,1.7
				c3,1.1,5.5,2.7,7.6,4.7c2.1,2,3.8,4.4,5,7.1c1.2,2.8,1.9,5.8,2,9.1h-12.7c-0.1-1.6-0.4-3.1-1-4.5c-0.6-1.4-1.4-2.7-2.4-3.8
				c-1-1.1-2.2-1.9-3.7-2.5c-1.4-0.6-3.1-0.9-4.9-0.9c-2.7,0-5,0.6-6.8,1.7s-3.2,2.6-4.2,4.4c-1,1.8-1.7,3.9-2.1,6.2
				c-0.4,2.3-0.6,4.7-0.6,7v1.9c0,2.4,0.2,4.8,0.6,7.1c0.4,2.3,1.1,4.4,2.1,6.2c1,1.8,2.4,3.3,4.2,4.4
				C584.5,981.1,586.7,981.6,589.5,981.6z M587.4,914.7l8.1-8.6H607v0.6l-15.5,15.5h-8.3l-15.3-15.5v-0.5h11.4L587.4,914.7z"/>
			<path id="XMLID_1294_" class="st0" d="M643.7,965.6l-6,6.2v19.6h-13.5v-85.1h13.5v49.1l4.2-5.3l16.6-18.7h16.2l-22.3,25l24.7,35
				h-15.6L643.7,965.6z"/>
			<path id="XMLID_1291_" class="st0" d="M683.5,915.7c0-2.1,0.7-3.8,2-5.2c1.3-1.4,3.2-2.1,5.6-2.1c2.4,0,4.3,0.7,5.7,2.1
				c1.3,1.4,2,3.1,2,5.2c0,2-0.7,3.7-2,5.1s-3.2,2-5.7,2c-2.4,0-4.3-0.7-5.6-2C684.2,919.5,683.5,917.8,683.5,915.7z M697.8,991.3
				h-13.5v-60h13.5V991.3z"/>
			<path id="XMLID_1289_" class="st0" d="M745.5,991.3v-50h-9.1v-10h9.1v-5.7c0-3.3,0.5-6.3,1.5-8.9c1-2.6,2.4-4.7,4.2-6.5
				c1.8-1.7,4-3.1,6.6-4c2.6-0.9,5.5-1.4,8.8-1.4c1.3,0,2.6,0.1,3.8,0.3c1.3,0.2,2.5,0.4,3.7,0.7l-0.3,10.5
				c-0.7-0.1-1.5-0.3-2.4-0.3c-0.9-0.1-1.8-0.1-2.7-0.1c-3.1,0-5.5,0.8-7.1,2.4c-1.7,1.6-2.5,4-2.5,7.1v5.7h12.2v10h-12.2v50H745.5z
				"/>
			<path id="XMLID_1286_" class="st0" d="M816.8,991.3c-0.4-0.7-0.7-1.5-0.9-2.5c-0.2-1-0.5-2-0.6-3.1c-0.9,0.9-1.9,1.8-3,2.6
				c-1.1,0.8-2.3,1.5-3.6,2.1c-1.3,0.6-2.7,1.1-4.3,1.4c-1.5,0.4-3.2,0.5-4.9,0.5c-3,0-5.7-0.5-8.3-1.4c-2.5-0.9-4.7-2.2-6.5-3.8
				c-1.8-1.6-3.2-3.5-4.2-5.7c-1-2.2-1.5-4.5-1.5-7.1c0-3.2,0.6-6.1,1.8-8.5c1.2-2.5,3-4.5,5.3-6.2c2.3-1.7,5.2-2.9,8.6-3.8
				c3.4-0.9,7.2-1.3,11.6-1.3h8.5v-3.9c0-3.1-0.9-5.6-2.6-7.5c-1.7-1.9-4.4-2.8-7.9-2.8c-1.6,0-3,0.2-4.3,0.6
				c-1.3,0.4-2.4,1-3.3,1.7c-0.9,0.7-1.6,1.6-2.1,2.6c-0.5,1-0.7,2.1-0.7,3.2h-13.5c0-2.4,0.6-4.6,1.7-6.8c1.2-2.2,2.8-4.2,5-5.9
				c2.1-1.7,4.7-3.1,7.8-4.1c3-1,6.5-1.6,10.2-1.6c3.4,0,6.5,0.4,9.3,1.3c2.8,0.9,5.3,2.2,7.4,3.9c2.1,1.7,3.7,3.9,4.8,6.4
				c1.1,2.6,1.7,5.6,1.7,9v26.6c0,5.4,0.8,9.7,2.3,12.9v0.9H816.8z M802,981.6c1.6,0,3-0.2,4.4-0.6c1.3-0.4,2.6-0.9,3.7-1.6
				c1.1-0.7,2-1.4,2.8-2.3c0.8-0.9,1.5-1.7,1.9-2.6v-11.3h-7.3c-5,0-8.7,0.9-11.2,2.6c-2.5,1.7-3.8,4.2-3.8,7.4
				c0,1.2,0.2,2.3,0.6,3.4c0.4,1,1,1.9,1.8,2.7s1.8,1.3,3,1.8C799.1,981.4,800.4,981.6,802,981.6z"/>
			<path id="XMLID_1284_" class="st0" d="M861.8,965.6l-6,6.2v19.6h-13.5v-85.1h13.5v49.1l4.2-5.3l16.6-18.7h16.2l-22.3,25l24.7,35
				h-15.6L861.8,965.6z"/>
			<path id="XMLID_1282_" class="st0" d="M937.9,985.4c-1.9,2.2-4.2,3.9-7,5.2c-2.8,1.2-6.1,1.8-9.9,1.8c-3,0-5.6-0.4-8.1-1.2
				c-2.4-0.8-4.5-2.1-6.2-3.9c-1.7-1.8-3.1-4.1-4-6.9s-1.4-6.2-1.4-10.2v-38.8h13.5v38.9c0,2.2,0.3,4,0.8,5.4
				c0.5,1.4,1.2,2.6,2.1,3.4c0.9,0.9,1.9,1.5,3,1.8c1.1,0.4,2.3,0.5,3.6,0.5c3.5,0,6.3-0.6,8.4-1.9c2.1-1.3,3.8-3,4.8-5.2v-43.1
				h13.5v60h-12.7L937.9,985.4z"/>
			<path id="XMLID_1280_" class="st0" d="M979,991.3h-13.5v-85.1H979V991.3z"/>
			<path id="XMLID_1278_" class="st0" d="M1010.5,916.7v14.6h10.6v10h-10.6v33.5c0,1.4,0.2,2.5,0.4,3.3c0.3,0.9,0.7,1.5,1.3,2
				c0.6,0.5,1.2,0.8,2,0.9c0.8,0.2,1.6,0.2,2.5,0.2s1.8-0.1,2.7-0.2c0.9-0.1,1.5-0.2,2-0.4v10.4c-1.1,0.3-2.3,0.6-3.7,0.9
				c-1.4,0.3-3.1,0.4-5.1,0.4c-2.2,0-4.3-0.3-6.2-0.9c-1.9-0.6-3.5-1.6-4.9-2.9c-1.4-1.3-2.5-3.1-3.2-5.2c-0.8-2.1-1.2-4.8-1.2-7.9
				v-34.2h-9.9v-10h9.9v-14.6H1010.5z"/>
			<path id="XMLID_1275_" class="st0" d="M1057.7,992.4c-4.4,0-8.4-0.7-12-2.2c-3.5-1.5-6.6-3.5-9-6.1c-2.5-2.6-4.4-5.7-5.7-9.2
				s-2-7.4-2-11.5v-2.2c0-4.7,0.7-9,2.1-12.8s3.3-7.1,5.8-9.8c2.4-2.7,5.3-4.7,8.6-6.2c3.3-1.5,6.9-2.2,10.7-2.2
				c4.4,0,8.1,0.7,11.4,2.2c3.2,1.5,5.9,3.5,8,6.1c2.1,2.6,3.7,5.7,4.7,9.4c1,3.6,1.6,7.6,1.6,11.9v5.8h-39.2
				c0.2,2.3,0.7,4.5,1.5,6.4c0.8,2,1.9,3.6,3.2,5.1c1.4,1.4,3,2.5,4.9,3.4c1.9,0.8,4,1.2,6.3,1.2c3.3,0,6.2-0.7,8.7-2
				c2.5-1.3,4.6-3.2,6.4-5.5l7.3,6.9c-1,1.4-2.2,2.8-3.6,4.2c-1.4,1.3-3.1,2.5-5,3.6c-1.9,1.1-4.1,1.9-6.5,2.5
				C1063.4,992,1060.7,992.4,1057.7,992.4z M1056.1,941c-3.7,0-6.7,1.3-8.9,3.9c-2.3,2.6-3.7,6.2-4.4,10.8h25.7v-1
				c-0.1-1.8-0.4-3.5-0.9-5.1c-0.5-1.6-1.2-3.1-2.1-4.4s-2.2-2.3-3.7-3C1060.2,941.4,1058.4,941,1056.1,941z"/>
			<path id="XMLID_1273_" class="st0" d="M1109.1,916.7v14.6h10.6v10h-10.6v33.5c0,1.4,0.2,2.5,0.4,3.3c0.3,0.9,0.7,1.5,1.3,2
				c0.6,0.5,1.2,0.8,2,0.9c0.8,0.2,1.6,0.2,2.5,0.2c0.9,0,1.8-0.1,2.7-0.2c0.9-0.1,1.5-0.2,2-0.4v10.4c-1.1,0.3-2.3,0.6-3.7,0.9
				c-1.4,0.3-3.1,0.4-5.1,0.4c-2.2,0-4.3-0.3-6.2-0.9c-1.9-0.6-3.5-1.6-4.9-2.9c-1.4-1.3-2.5-3.1-3.2-5.2c-0.8-2.1-1.2-4.8-1.2-7.9
				v-34.2h-9.9v-10h9.9v-14.6H1109.1z"/>
		</g>
		<path id="XMLID_1271_" class="st0" d="M60.3,1046.8v54c0,4.6-0.8,8.7-2.4,12.1c-1.6,3.5-3.7,6.4-6.5,8.7c-2.7,2.3-5.9,4.1-9.6,5.2
			c-3.7,1.2-7.6,1.7-11.7,1.7c-4.3,0-8.3-0.6-12-1.7c-3.7-1.2-6.9-2.9-9.6-5.2c-2.7-2.3-4.8-5.2-6.3-8.7s-2.3-7.5-2.3-12.1v-54h14
			v54c0,2.9,0.4,5.4,1.1,7.5c0.8,2.1,1.8,3.8,3.2,5.2s3.1,2.4,5.1,3c2,0.6,4.2,1,6.7,1s4.7-0.3,6.7-1c2-0.6,3.7-1.7,5.1-3
			c1.4-1.4,2.5-3.1,3.2-5.2c0.8-2.1,1.1-4.6,1.1-7.5v-54H60.3z"/>
		<path id="XMLID_1269_" class="st0" d="M86.4,1067.5l0.4,6.9c2.1-2.5,4.6-4.5,7.6-5.9c3-1.4,6.2-2.1,9.9-2.1c2.9,0,5.5,0.4,7.8,1.2
			c2.4,0.8,4.4,2.1,6,3.9c1.7,1.8,2.9,4.1,3.8,6.9c0.9,2.8,1.4,6.3,1.4,10.4v38.7h-13.5v-38.8c0-2.1-0.2-3.8-0.7-5.2
			c-0.5-1.4-1.1-2.6-2-3.5c-0.9-0.9-2-1.5-3.3-1.9c-1.3-0.4-2.8-0.6-4.5-0.6c-2.8,0-5.2,0.7-7.2,2c-2.1,1.3-3.7,3.1-4.9,5.4v42.7
			H73.7v-60H86.4z"/>
		<path id="XMLID_1266_" class="st0" d="M137.1,1051.9c0-2.1,0.7-3.8,2-5.2c1.3-1.4,3.2-2.1,5.6-2.1s4.3,0.7,5.7,2.1
			c1.3,1.4,2,3.1,2,5.2c0,2-0.7,3.7-2,5.1c-1.3,1.3-3.2,2-5.7,2s-4.3-0.7-5.6-2C137.7,1055.6,137.1,1053.9,137.1,1051.9z
			 M151.4,1127.4h-13.5v-60h13.5V1127.4z"/>
		<path id="XMLID_1264_" class="st0" d="M187.2,1110.4l12.7-42.9h13.9l-20.8,60h-11.7l-20.9-60h14L187.2,1110.4z"/>
		<path id="XMLID_1261_" class="st0" d="M247.8,1128.5c-4.4,0-8.4-0.7-12-2.2s-6.6-3.5-9-6.1c-2.5-2.6-4.4-5.7-5.7-9.2
			c-1.3-3.5-2-7.4-2-11.5v-2.2c0-4.7,0.7-9,2.1-12.8c1.4-3.8,3.3-7.1,5.8-9.8s5.3-4.7,8.6-6.2c3.3-1.5,6.9-2.2,10.7-2.2
			c4.4,0,8.1,0.7,11.4,2.2s5.9,3.5,8,6.1c2.1,2.6,3.7,5.7,4.7,9.4c1,3.6,1.6,7.6,1.6,11.9v5.8h-39.2c0.2,2.3,0.7,4.5,1.5,6.4
			c0.8,2,1.9,3.6,3.2,5.1s3,2.5,4.9,3.4c1.9,0.8,4,1.2,6.3,1.2c3.3,0,6.2-0.7,8.7-2c2.5-1.3,4.6-3.2,6.4-5.5l7.3,6.9
			c-1,1.4-2.2,2.8-3.6,4.2c-1.4,1.3-3.1,2.5-5,3.6c-1.9,1.1-4.1,1.9-6.5,2.5C253.5,1128.2,250.8,1128.5,247.8,1128.5z M246.2,1077.2
			c-3.7,0-6.7,1.3-8.9,3.9c-2.3,2.6-3.7,6.2-4.4,10.8h25.7v-1c-0.1-1.8-0.4-3.5-0.9-5.1c-0.5-1.6-1.2-3.1-2.1-4.4
			c-1-1.3-2.2-2.3-3.7-3C250.3,1077.6,248.4,1077.2,246.2,1077.2z"/>
		<path id="XMLID_1259_" class="st0" d="M313.7,1079.8c-0.9-0.1-1.8-0.3-2.7-0.3c-0.9-0.1-1.8-0.1-2.8-0.1c-3.3,0-5.9,0.6-7.9,1.9
			c-2,1.3-3.5,3-4.5,5.2v41h-13.5v-60h12.9l0.3,6.7c1.5-2.4,3.4-4.3,5.6-5.7c2.2-1.4,4.9-2.1,7.9-2.1c0.8,0,1.7,0.1,2.6,0.2
			c1,0.2,1.7,0.3,2.1,0.5L313.7,1079.8z"/>
		<path id="XMLID_1257_" class="st0" d="M336.6,1116.7h31.9v10.7h-48.6v-8.8l30.4-40.3h-29.9v-10.9h46.9v8.5L336.6,1116.7z"/>
		<path id="XMLID_1254_" class="st0" d="M379.3,1051.9c0-2.1,0.7-3.8,2-5.2c1.3-1.4,3.2-2.1,5.6-2.1s4.3,0.7,5.7,2.1
			c1.3,1.4,2,3.1,2,5.2c0,2-0.7,3.7-2,5.1c-1.3,1.3-3.2,2-5.7,2s-4.3-0.7-5.6-2C380,1055.6,379.3,1053.9,379.3,1051.9z
			 M393.6,1127.4h-13.5v-60h13.5V1127.4z"/>
		<path id="XMLID_1252_" class="st0" d="M425.1,1052.9v14.6h10.6v10h-10.6v33.5c0,1.4,0.2,2.5,0.4,3.3c0.3,0.9,0.7,1.5,1.3,2
			c0.6,0.5,1.2,0.8,2,0.9c0.8,0.2,1.6,0.2,2.5,0.2c0.9,0,1.8-0.1,2.7-0.2c0.9-0.1,1.5-0.2,2-0.4v10.4c-1.1,0.3-2.3,0.6-3.7,0.9
			c-1.4,0.3-3.1,0.4-5.1,0.4c-2.2,0-4.3-0.3-6.2-0.9c-1.9-0.6-3.5-1.6-4.9-2.9c-1.4-1.3-2.5-3.1-3.2-5.2s-1.2-4.8-1.2-7.9v-34.2
			h-9.9v-10h9.9v-14.6H425.1z"/>
		<path id="XMLID_1249_" class="st0" d="M472.4,1128.5c-4.4,0-8.4-0.7-12-2.2c-3.5-1.5-6.6-3.5-9-6.1c-2.5-2.6-4.4-5.7-5.7-9.2
			c-1.3-3.5-2-7.4-2-11.5v-2.2c0-4.7,0.7-9,2.1-12.8c1.4-3.8,3.3-7.1,5.8-9.8s5.3-4.7,8.6-6.2c3.3-1.5,6.9-2.2,10.7-2.2
			c4.4,0,8.1,0.7,11.4,2.2s5.9,3.5,8,6.1s3.7,5.7,4.7,9.4s1.6,7.6,1.6,11.9v5.8h-39.2c0.2,2.3,0.7,4.5,1.5,6.4
			c0.8,2,1.9,3.6,3.2,5.1c1.4,1.4,3,2.5,4.9,3.4c1.9,0.8,4,1.2,6.3,1.2c3.3,0,6.2-0.7,8.7-2c2.5-1.3,4.6-3.2,6.4-5.5l7.3,6.9
			c-1,1.4-2.2,2.8-3.6,4.2c-1.4,1.3-3.1,2.5-5,3.6c-1.9,1.1-4.1,1.9-6.5,2.5C478.1,1128.2,475.4,1128.5,472.4,1128.5z M470.8,1077.2
			c-3.7,0-6.7,1.3-8.9,3.9c-2.3,2.6-3.7,6.2-4.4,10.8h25.7v-1c-0.1-1.8-0.4-3.5-0.9-5.1c-0.5-1.6-1.2-3.1-2.1-4.4
			c-1-1.3-2.2-2.3-3.7-3C474.9,1077.6,473,1077.2,470.8,1077.2z"/>
		<path id="XMLID_1247_" class="st0" d="M523.8,1052.9v14.6h10.6v10h-10.6v33.5c0,1.4,0.2,2.5,0.4,3.3c0.3,0.9,0.7,1.5,1.3,2
			c0.6,0.5,1.2,0.8,2,0.9c0.8,0.2,1.6,0.2,2.5,0.2s1.8-0.1,2.7-0.2c0.9-0.1,1.5-0.2,2-0.4v10.4c-1.1,0.3-2.3,0.6-3.7,0.9
			c-1.4,0.3-3.1,0.4-5.1,0.4c-2.2,0-4.3-0.3-6.2-0.9c-1.9-0.6-3.5-1.6-4.9-2.9c-1.4-1.3-2.5-3.1-3.2-5.2c-0.8-2.1-1.2-4.8-1.2-7.9
			v-34.2h-9.9v-10h9.9v-14.6H523.8z"/>
		<path id="XMLID_1244_" class="st0" d="M580.4,1127.4c-0.4-0.7-0.7-1.5-0.9-2.5c-0.2-1-0.5-2-0.6-3.1c-0.9,0.9-1.9,1.8-3,2.6
			c-1.1,0.8-2.3,1.5-3.6,2.1c-1.3,0.6-2.7,1.1-4.3,1.4c-1.5,0.4-3.2,0.5-4.9,0.5c-3,0-5.7-0.5-8.3-1.4c-2.5-0.9-4.7-2.2-6.5-3.8
			c-1.8-1.6-3.2-3.5-4.2-5.7c-1-2.2-1.5-4.5-1.5-7.1c0-3.2,0.6-6.1,1.8-8.5c1.2-2.5,3-4.5,5.3-6.2s5.2-2.9,8.6-3.8
			c3.4-0.9,7.2-1.3,11.6-1.3h8.5v-3.9c0-3.1-0.9-5.6-2.6-7.5s-4.4-2.8-7.9-2.8c-1.6,0-3,0.2-4.3,0.6c-1.3,0.4-2.4,1-3.3,1.7
			c-0.9,0.7-1.6,1.6-2.1,2.6c-0.5,1-0.7,2.1-0.7,3.2H544c0-2.4,0.6-4.6,1.7-6.8c1.2-2.2,2.8-4.2,5-5.9c2.1-1.7,4.7-3.1,7.8-4.1
			c3-1,6.5-1.6,10.2-1.6c3.4,0,6.5,0.4,9.3,1.3c2.8,0.9,5.3,2.2,7.4,3.9c2.1,1.7,3.7,3.9,4.8,6.4s1.7,5.6,1.7,9v26.6
			c0,5.4,0.8,9.7,2.3,12.9v0.9H580.4z M565.6,1117.7c1.6,0,3-0.2,4.4-0.6c1.3-0.4,2.6-0.9,3.7-1.6c1.1-0.7,2-1.4,2.8-2.3
			c0.8-0.9,1.5-1.7,1.9-2.6v-11.3h-7.3c-5,0-8.7,0.9-11.2,2.6c-2.5,1.7-3.8,4.2-3.8,7.4c0,1.2,0.2,2.3,0.6,3.4c0.4,1,1,1.9,1.8,2.7
			c0.8,0.8,1.8,1.3,3,1.8C562.7,1117.5,564.1,1117.7,565.6,1117.7z"/>
		<path id="XMLID_1242_" class="st0" d="M670.6,1121.6c-1.9,2.2-4.2,3.9-7,5.2c-2.8,1.2-6.1,1.8-9.9,1.8c-3,0-5.6-0.4-8.1-1.2
			c-2.4-0.8-4.5-2.1-6.2-3.9c-1.7-1.8-3.1-4.1-4-6.9c-1-2.8-1.4-6.2-1.4-10.2v-38.8h13.5v38.9c0,2.2,0.3,4,0.8,5.4
			c0.5,1.4,1.2,2.6,2.1,3.4c0.9,0.9,1.9,1.5,3,1.8c1.1,0.4,2.3,0.5,3.6,0.5c3.5,0,6.3-0.6,8.4-1.9c2.1-1.3,3.8-3,4.8-5.2v-43.1h13.5
			v60h-12.7L670.6,1121.6z"/>
		<path id="XMLID_1238_" class="st0" d="M726.9,1127.4v-80.7h27.6c4.4,0,8.3,0.4,11.7,1.3c3.5,0.9,6.4,2.2,8.8,4
			c2.4,1.8,4.2,4,5.5,6.8c1.3,2.8,1.9,6,1.9,9.8c0,3.7-1,7-3,10c-2,3-4.9,5.2-8.8,6.9c2.3,0.6,4.4,1.5,6.1,2.7
			c1.7,1.2,3.1,2.6,4.3,4.2c1.1,1.6,2,3.4,2.5,5.4c0.6,2,0.8,4,0.8,6.1c0,3.9-0.6,7.3-1.9,10.2c-1.3,2.9-3.1,5.4-5.5,7.4
			c-2.4,2-5.4,3.5-8.8,4.5c-3.5,1-7.4,1.5-11.7,1.5H726.9z M740.9,1080.7h13.7c4.4,0,7.8-1,10.2-3c2.5-2,3.7-4.8,3.7-8.4
			c0-4-1.1-6.9-3.4-8.6c-2.3-1.8-5.8-2.7-10.6-2.7h-13.6V1080.7z M740.9,1091v25.2h15.6c2.3,0,4.3-0.3,6.1-0.9
			c1.8-0.6,3.2-1.4,4.4-2.5s2.1-2.4,2.7-3.9c0.6-1.5,0.9-3.2,0.9-5c0-4-1.1-7.1-3.2-9.4c-2.1-2.3-5.5-3.4-10.3-3.4H740.9z"/>
		<path id="XMLID_1235_" class="st0" d="M823.6,1128.5c-4.4,0-8.4-0.7-12-2.2c-3.5-1.5-6.6-3.5-9-6.1s-4.4-5.7-5.7-9.2
			c-1.3-3.5-2-7.4-2-11.5v-2.2c0-4.7,0.7-9,2.1-12.8c1.4-3.8,3.3-7.1,5.8-9.8c2.4-2.7,5.3-4.7,8.6-6.2c3.3-1.5,6.9-2.2,10.7-2.2
			c4.4,0,8.1,0.7,11.4,2.2c3.2,1.5,5.9,3.5,8,6.1c2.1,2.6,3.7,5.7,4.7,9.4c1,3.6,1.6,7.6,1.6,11.9v5.8h-39.2
			c0.2,2.3,0.7,4.5,1.5,6.4c0.8,2,1.9,3.6,3.2,5.1c1.4,1.4,3,2.5,4.9,3.4c1.9,0.8,4,1.2,6.3,1.2c3.3,0,6.2-0.7,8.7-2
			c2.5-1.3,4.6-3.2,6.4-5.5l7.3,6.9c-1,1.4-2.2,2.8-3.6,4.2c-1.4,1.3-3.1,2.5-5,3.6c-1.9,1.1-4.1,1.9-6.5,2.5
			C829.3,1128.2,826.6,1128.5,823.6,1128.5z M822,1077.2c-3.7,0-6.7,1.3-8.9,3.9c-2.3,2.6-3.7,6.2-4.4,10.8h25.7v-1
			c-0.1-1.8-0.4-3.5-0.9-5.1c-0.5-1.6-1.2-3.1-2.1-4.4c-1-1.3-2.2-2.3-3.7-3C826.1,1077.6,824.2,1077.2,822,1077.2z"/>
		<path id="XMLID_1232_" class="st0" d="M855.5,1096.9c0-4.4,0.6-8.4,1.9-12.1c1.3-3.7,3.1-6.9,5.5-9.7c2.4-2.7,5.3-4.9,8.7-6.4
			c3.4-1.6,7.3-2.3,11.7-2.3c4.4,0,8.3,0.8,11.8,2.3c3.5,1.6,6.4,3.7,8.8,6.4c2.4,2.7,4.2,6,5.5,9.7c1.3,3.7,1.9,7.7,1.9,12.1v1.2
			c0,4.4-0.6,8.4-1.9,12.1s-3.1,7-5.5,9.7c-2.4,2.7-5.3,4.8-8.8,6.4c-3.5,1.5-7.4,2.3-11.7,2.3c-4.4,0-8.3-0.8-11.8-2.3
			c-3.5-1.5-6.4-3.7-8.8-6.4c-2.4-2.7-4.2-5.9-5.5-9.7c-1.3-3.7-1.9-7.8-1.9-12.1V1096.9z M869,1098.1c0,2.7,0.3,5.2,0.8,7.6
			c0.6,2.4,1.4,4.5,2.6,6.3c1.2,1.8,2.7,3.2,4.5,4.2c1.8,1,4,1.6,6.5,1.6c2.5,0,4.6-0.5,6.5-1.6c1.8-1,3.3-2.4,4.5-4.2
			c1.2-1.8,2-3.9,2.6-6.3c0.6-2.4,0.9-5,0.9-7.6v-1.2c0-2.7-0.3-5.2-0.9-7.6c-0.6-2.4-1.4-4.5-2.6-6.3c-1.2-1.8-2.7-3.2-4.5-4.3
			c-1.8-1.1-4-1.6-6.5-1.6c-2.5,0-4.7,0.5-6.5,1.6c-1.8,1.1-3.3,2.5-4.5,4.3s-2.1,3.9-2.6,6.3c-0.6,2.4-0.8,4.9-0.8,7.6V1098.1z"/>
		<path id="XMLID_1229_" class="st0" d="M920.3,1097c0-4.5,0.6-8.7,1.7-12.5s2.7-7,4.8-9.7c2.1-2.7,4.6-4.8,7.6-6.3s6.3-2.2,10-2.2
			c3.6,0,6.7,0.6,9.4,1.9s4.9,3,6.8,5.3l0.6-6h12.1v58.3c0,4-0.7,7.6-2,10.7s-3.2,5.8-5.6,7.9c-2.4,2.1-5.2,3.8-8.6,4.9
			c-3.3,1.1-7,1.7-11,1.7c-1.7,0-3.5-0.2-5.5-0.5c-2-0.4-4.1-0.9-6.2-1.7c-2.1-0.8-4-1.8-5.9-3.1c-1.9-1.3-3.5-2.8-4.8-4.6l6.4-8.1
			c2.2,2.6,4.6,4.5,7.2,5.7c2.6,1.1,5.3,1.7,8.1,1.7c4.5,0,8-1.2,10.6-3.6c2.6-2.4,3.9-6,3.9-10.7v-4c-1.9,2.1-4.1,3.7-6.6,4.8
			s-5.5,1.7-8.9,1.7c-3.7,0-7-0.8-9.9-2.3c-2.9-1.5-5.5-3.6-7.5-6.3c-2.1-2.7-3.7-5.9-4.8-9.6s-1.7-7.7-1.7-12.1V1097z
			 M933.7,1098.2c0,2.7,0.3,5.2,0.8,7.5c0.5,2.3,1.4,4.4,2.5,6.2c1.1,1.8,2.6,3.2,4.3,4.2c1.7,1,3.8,1.5,6.3,1.5
			c3,0,5.5-0.6,7.4-1.9c1.9-1.3,3.5-3,4.7-5.1v-26.4c-1.2-2.1-2.7-3.8-4.7-5c-1.9-1.2-4.4-1.8-7.3-1.8c-2.4,0-4.5,0.5-6.3,1.6
			c-1.8,1-3.2,2.4-4.3,4.2c-1.1,1.8-2,3.9-2.5,6.2c-0.6,2.4-0.8,4.9-0.8,7.6V1098.2z"/>
		<path id="XMLID_1227_" class="st0" d="M1018.4,1079.8c-0.9-0.1-1.8-0.3-2.7-0.3c-0.9-0.1-1.8-0.1-2.8-0.1c-3.3,0-5.9,0.6-7.9,1.9
			c-2,1.3-3.5,3-4.5,5.2v41H987v-60h12.9l0.3,6.7c1.5-2.4,3.4-4.3,5.6-5.7c2.2-1.4,4.9-2.1,7.9-2.1c0.8,0,1.7,0.1,2.6,0.2
			c1,0.2,1.7,0.3,2.1,0.5L1018.4,1079.8z"/>
		<path id="XMLID_1224_" class="st0" d="M1061,1127.4c-0.4-0.7-0.7-1.5-0.9-2.5c-0.2-1-0.5-2-0.6-3.1c-0.9,0.9-1.9,1.8-3,2.6
			c-1.1,0.8-2.3,1.5-3.6,2.1c-1.3,0.6-2.7,1.1-4.3,1.4c-1.5,0.4-3.2,0.5-4.9,0.5c-3,0-5.7-0.5-8.3-1.4c-2.5-0.9-4.7-2.2-6.5-3.8
			c-1.8-1.6-3.2-3.5-4.2-5.7c-1-2.2-1.5-4.5-1.5-7.1c0-3.2,0.6-6.1,1.8-8.5c1.2-2.5,3-4.5,5.3-6.2c2.3-1.7,5.2-2.9,8.6-3.8
			c3.4-0.9,7.2-1.3,11.6-1.3h8.5v-3.9c0-3.1-0.9-5.6-2.6-7.5c-1.7-1.9-4.4-2.8-7.9-2.8c-1.6,0-3,0.2-4.3,0.6c-1.3,0.4-2.4,1-3.3,1.7
			c-0.9,0.7-1.6,1.6-2.1,2.6c-0.5,1-0.7,2.1-0.7,3.2h-13.5c0-2.4,0.6-4.6,1.7-6.8c1.2-2.2,2.8-4.2,5-5.9c2.1-1.7,4.7-3.1,7.8-4.1
			c3-1,6.5-1.6,10.2-1.6c3.4,0,6.5,0.4,9.3,1.3c2.8,0.9,5.3,2.2,7.4,3.9c2.1,1.7,3.7,3.9,4.8,6.4s1.7,5.6,1.7,9v26.6
			c0,5.4,0.8,9.7,2.3,12.9v0.9H1061z M1046.2,1117.7c1.6,0,3-0.2,4.4-0.6c1.3-0.4,2.6-0.9,3.7-1.6c1.1-0.7,2-1.4,2.8-2.3
			c0.8-0.9,1.5-1.7,1.9-2.6v-11.3h-7.3c-5,0-8.7,0.9-11.2,2.6c-2.5,1.7-3.8,4.2-3.8,7.4c0,1.2,0.2,2.3,0.6,3.4c0.4,1,1,1.9,1.8,2.7
			c0.8,0.8,1.8,1.3,3,1.8C1043.3,1117.5,1044.7,1117.7,1046.2,1117.7z"/>
		<path id="XMLID_1221_" class="st0" d="M1084.1,1097c0-4.5,0.5-8.7,1.6-12.5c1.1-3.8,2.7-7,4.7-9.7c2.1-2.7,4.5-4.8,7.5-6.3
			c2.9-1.5,6.2-2.2,9.9-2.2c3.3,0,6.3,0.6,8.8,1.7c2.5,1.1,4.7,2.8,6.6,4.9v-30.7h13.5v85.1h-12.2l-0.7-6.2
			c-1.9,2.3-4.2,4.1-6.8,5.4c-2.6,1.3-5.7,1.9-9.3,1.9c-3.6,0-6.9-0.8-9.8-2.3c-2.9-1.5-5.4-3.6-7.4-6.3c-2-2.7-3.6-5.9-4.7-9.6
			s-1.7-7.7-1.7-12.1V1097z M1097.6,1098.2c0,2.7,0.3,5.2,0.7,7.5c0.5,2.3,1.3,4.4,2.4,6.2c1.1,1.8,2.5,3.2,4.2,4.2s3.8,1.5,6.2,1.5
			c3,0,5.5-0.7,7.5-2c1.9-1.3,3.5-3.1,4.6-5.3v-25.6c-1.1-2.2-2.7-4-4.7-5.3c-2-1.3-4.4-1.9-7.3-1.9c-2.4,0-4.5,0.5-6.2,1.6
			c-1.7,1-3.1,2.4-4.2,4.2c-1.1,1.8-1.9,3.9-2.4,6.2c-0.5,2.4-0.8,4.9-0.8,7.6V1098.2z"/>
		<path id="XMLID_1219_" class="st0" d="M1187,1121.6c-1.9,2.2-4.2,3.9-7,5.2c-2.8,1.2-6.1,1.8-9.9,1.8c-3,0-5.6-0.4-8.1-1.2
			c-2.4-0.8-4.5-2.1-6.2-3.9c-1.7-1.8-3.1-4.1-4-6.9c-1-2.8-1.4-6.2-1.4-10.2v-38.8h13.5v38.9c0,2.2,0.3,4,0.8,5.4
			c0.5,1.4,1.2,2.6,2.1,3.4c0.9,0.9,1.9,1.5,3,1.8c1.1,0.4,2.3,0.5,3.6,0.5c3.5,0,6.3-0.6,8.4-1.9c2.1-1.3,3.8-3,4.8-5.2v-43.1h13.5
			v60h-12.7L1187,1121.6z"/>
	</g>
</g>
</svg>
