<?xml version="1.0" encoding="utf-8"?>
<!-- Generator: Adobe Illustrator 19.0.0, SVG Export Plug-In . SVG Version: 6.00 Build 0)  -->
<svg version="1.1" id="Layer_1" xmlns="http://www.w3.org/2000/svg" xmlns:xlink="http://www.w3.org/1999/xlink" x="0px" y="0px"
	 viewBox="0 0 1200 1200" style="enable-background:new 0 0 1200 1200;" xml:space="preserve">
<g id="XMLID_155_">
	<g id="XMLID_622_">
		<g id="XMLID_772_">
			<g id="XMLID_773_">
				<polygon id="XMLID_775_" points="809.1,254 749.2,254 845.7,524 905.6,524 905.6,524 				"/>
				<polygon id="XMLID_774_" points="390.9,254 450.8,254 354.3,524 294.4,524 294.4,524 				"/>
			</g>
		</g>
		<polygon id="XMLID_771_" points="809.1,821 749.2,821 845.7,551 905.6,551 905.6,551 		"/>
		<polygon id="XMLID_642_" points="390.9,821 450.8,821 354.3,551 294,551 294,550.4 		"/>
		<polygon id="XMLID_625_" points="759.1,550.2 725,646.1 472.6,646.1 438.5,550.2 378.6,550.2 475.1,822 535,822 493.2,704 
			704.4,704 662.5,822 722.5,822 819,550.2 		"/>
		<polygon id="XMLID_624_" points="819,524.8 722.5,253 662.6,253 598.9,409 535.1,253 475.2,253 378.7,524.8 438.6,524.8 
			503.3,342.6 556.5,471.9 641.2,471.9 694.4,342.6 759.1,524.8 		"/>
	</g>
	<g id="XMLID_162_">
		<g id="XMLID_243_">
			<path id="XMLID_269_" d="M223.9,277.6l-23.8-15.2l17,25.8l-4.3,6.7l-30.2-5.3l23.8,15.2l-4.5,7.1l-28.9-18.5l8-12.5l24.9,4.4
				L191.9,264l7.7-12l28.9,18.5L223.9,277.6z"/>
			<path id="XMLID_266_" d="M282.8,208.7l-7.2-2.6l-12.9,13.1l2.7,7.2l-6.3,6.3l-13-35.7l7.4-7.5l36.1,12.3L282.8,208.7z
				 M268.5,203.5l-13.7-5l5.1,13.7L268.5,203.5z"/>
			<path id="XMLID_264_" d="M322.8,141.8l15.4,21.7l-6.8,4.8l-15.4-21.7l-11.3,8l-4.5-6.3l29.5-20.9l4.5,6.3L322.8,141.8z"/>
			<path id="XMLID_262_" d="M419.1,118.5l-6-13.1l-20.2,9.2l6,13.1l-7.5,3.5L377,100l7.5-3.5l5.2,11.3l20.2-9.2l-5.2-11.3l7.5-3.5
				l14.3,31.2L419.1,118.5z"/>
			<path id="XMLID_259_" d="M505.2,91.2l-4.8-6.1l-17.9,4.3L481,97l-8.7,2.1l7.8-37.2l10.3-2.5L514.6,89L505.2,91.2z M495.9,79.2
				l-9-11.5L484,82.1L495.9,79.2z"/>
			<path id="XMLID_257_" d="M588.4,57.4c-0.7-0.8-1.6-1.4-2.6-2c-1-0.5-2.1-1-3.4-1.2c-1.2-0.3-2.6-0.4-4-0.3
				c-1.9,0.1-3.6,0.4-5.1,1c-1.5,0.6-2.8,1.4-3.8,2.4c-1,1-1.8,2.2-2.3,3.6c-0.5,1.4-0.7,2.9-0.7,4.6c0.2,3.4,1.3,6,3.5,7.9
				c2.2,1.9,5.3,2.7,9.4,2.5c1.5-0.1,2.8-0.3,4-0.6c1.2-0.4,2.2-0.8,3.1-1.4c0.9-0.6,1.6-1.3,2.2-2c0.6-0.8,1.1-1.6,1.5-2.5l7.2,3
				c-1.2,3.4-3.3,6-6.3,7.8c-3,1.9-7,2.9-12,3.1c-2.9,0.1-5.6-0.2-8.1-0.9s-4.8-1.8-6.7-3.2c-1.9-1.5-3.5-3.3-4.6-5.5
				c-1.2-2.2-1.8-4.8-1.9-7.7c-0.1-2.9,0.3-5.5,1.3-7.8c1-2.3,2.4-4.3,4.3-5.9c1.8-1.7,4-2.9,6.5-3.9c2.5-0.9,5.2-1.5,8-1.6
				c2.2-0.1,4.3,0.1,6.3,0.5c2,0.4,3.8,1.1,5.4,1.9c1.6,0.8,3.1,1.9,4.3,3c1.2,1.2,2.2,2.5,2.9,3.9l-7,4.1
				C589.7,59,589.2,58.2,588.4,57.4z"/>
			<path id="XMLID_255_" d="M690.5,90.4l-11.7-1.8L668,68.7l-9.7,5.2l-1.7,11.3l-8.2-1.3l5.2-33.9l8.2,1.3L659.7,65l20-11l13.2,2
				l-17.7,9.1L690.5,90.4z"/>
			<path id="XMLID_253_" d="M789.8,123.1l3.5-6.8c2.6-1.2,5.2-1.9,7.9-2.2c2.7-0.3,5.2-0.3,7.7-0.1c2.5,0.2,4.9,0.6,7.1,1.1
				c2.2,0.5,4.2,0.9,6,1.3s3.3,0.5,4.5,0.5c1.2,0,2-0.5,2.4-1.3c0.3-0.5,0.3-1.1,0.2-1.7c-0.1-0.6-0.4-1.2-0.9-1.8
				c-0.5-0.6-1.1-1.3-1.8-1.9c-0.8-0.6-1.6-1.2-2.6-1.7c-1.7-0.9-3.5-1.6-5.3-2.2c-1.8-0.6-3.5-1-5.3-1.3c-1.7-0.3-3.4-0.5-5-0.6
				c-1.6-0.1-3.1,0-4.4,0.1l0.1-7.8c1.2-0.1,2.7-0.1,4.3,0c1.6,0.1,3.5,0.4,5.5,0.8c2,0.5,4.2,1.1,6.6,2c2.4,0.9,5,2,7.8,3.5
				c1.7,0.9,3.3,2,4.7,3.3c1.4,1.3,2.5,2.7,3.3,4.2c0.8,1.5,1.3,3,1.4,4.6c0.1,1.6-0.2,3.2-1,4.7c-0.5,0.9-1,1.7-1.6,2.4
				c-0.6,0.6-1.2,1.1-1.8,1.5c-0.7,0.4-1.4,0.6-2.3,0.7c-0.9,0.1-1.8,0.2-2.9,0.2c-1.7,0-3.6-0.3-5.8-0.8c-2.1-0.5-4.3-0.9-6.5-1.4
				c-2.2-0.5-4.4-0.8-6.6-1.1c-2.2-0.2-4.2-0.2-6,0.3l25.1,12.9l-3.4,6.7L789.8,123.1z"/>
			<path id="XMLID_250_" d="M905.1,185.8c-2.2,1.1-4.4,1.8-6.9,1.9c-2.4,0.2-4.9-0.2-7.5-1c-2.5-0.8-5-2.2-7.4-4.1
				c-2.4-1.9-4.3-4-5.6-6.3c-1.3-2.3-2.2-4.7-2.6-7.1c-0.4-2.4-0.2-4.8,0.4-7.1c0.6-2.3,1.7-4.5,3.3-6.5c1.6-2,3.4-3.5,5.6-4.6
				c2.1-1.1,4.4-1.8,6.9-1.9c2.4-0.2,4.9,0.1,7.5,0.9c2.5,0.8,5,2.2,7.4,4.1c2.4,1.9,4.3,4,5.6,6.3c1.3,2.3,2.2,4.7,2.6,7.1
				c0.4,2.4,0.2,4.8-0.4,7.1c-0.6,2.3-1.7,4.5-3.3,6.5C909.1,183.2,907.2,184.7,905.1,185.8z M906.3,171.7c0.5-1.5,0.6-2.9,0.4-4.4
				c-0.2-1.5-0.6-2.9-1.4-4.3c-0.8-1.4-1.9-2.7-3.3-3.8c-1.4-1.1-2.9-1.9-4.4-2.4c-1.5-0.4-3-0.6-4.5-0.4c-1.5,0.2-2.9,0.6-4.2,1.4
				c-1.3,0.8-2.5,1.8-3.5,3c-1,1.2-1.7,2.6-2.2,4.1c-0.5,1.5-0.6,2.9-0.5,4.4c0.2,1.5,0.6,2.9,1.4,4.3c0.8,1.4,1.9,2.7,3.3,3.8
				c1.4,1.1,2.9,1.9,4.4,2.4c1.5,0.4,3,0.6,4.5,0.4c1.5-0.2,2.9-0.6,4.2-1.4c1.3-0.8,2.5-1.8,3.5-3
				C905.1,174.5,905.8,173.2,906.3,171.7z"/>
			<path id="XMLID_248_" d="M938.8,233.8l20.8-18.4l-5.2-4.2l4.5-3.9l11.7,9.5L944.3,240L938.8,233.8z"/>
			<path id="XMLID_244_" d="M1009.1,305.8c-0.6,1.7-1.7,3-3.3,4c-1.4,0.8-2.7,1.3-4,1.3c-1.3,0.1-2.6-0.2-3.9-0.7
				c-1.3-0.5-2.5-1.2-3.7-2.2c-1.2-0.9-2.3-2-3.3-3.1c-1-1.1-2-2.3-2.9-3.6c-0.9-1.2-1.7-2.4-2.4-3.5s-1.4-2.3-2.1-3.7
				c-0.7-1.4-1.4-2.8-1.9-4.2c-0.5-1.5-1-2.9-1.3-4.4c-0.3-1.5-0.4-2.9-0.3-4.3c0.1-1.4,0.5-2.6,1.2-3.8c0.7-1.2,1.7-2.2,3-3
				c1.6-1,3.3-1.4,5.1-1.2c1.8,0.2,3.3,0.9,4.7,2.2c-0.4-1.7-0.3-3.2,0.3-4.6c0.6-1.3,1.6-2.4,3-3.3c1.4-0.9,2.7-1.3,4.1-1.4
				c1.3-0.1,2.6,0.1,3.8,0.6c1.2,0.5,2.4,1.2,3.5,2.1c1.1,0.9,2.2,1.9,3.1,3c1,1.1,1.8,2.2,2.6,3.4c0.8,1.2,1.5,2.3,2.1,3.3
				c0.6,1,1.3,2.1,2,3.4c0.7,1.2,1.3,2.5,1.9,3.9c0.6,1.4,1,2.7,1.3,4.1s0.4,2.8,0.3,4.1c-0.1,1.3-0.5,2.5-1.2,3.7
				c-0.7,1.2-1.7,2.2-3.1,3c-1.4,0.9-2.8,1.3-4.3,1.2c-1.5-0.1-2.9-0.6-4.2-1.7C1009.8,302.4,1009.7,304.2,1009.1,305.8z
				 M1003.2,300.8c0.2-0.8,0.1-1.8-0.2-2.9c-0.3-1.1-0.8-2.3-1.5-3.7c-0.7-1.4-1.5-2.8-2.5-4.4c-1-1.6-1.9-2.9-2.8-4.2
				s-1.8-2.2-2.7-3c-0.9-0.7-1.7-1.2-2.5-1.4c-0.8-0.2-1.6-0.1-2.5,0.4c-0.7,0.4-1.1,1.1-1.3,1.9c-0.2,0.8-0.1,1.8,0.1,2.9
				c0.3,1.1,0.7,2.4,1.4,3.8c0.7,1.4,1.5,2.9,2.4,4.4c1,1.6,1.9,2.9,2.8,4.2c0.9,1.2,1.9,2.2,2.7,2.9c0.9,0.7,1.7,1.2,2.5,1.4
				c0.8,0.2,1.6,0.1,2.3-0.3C1002.5,302.3,1003,301.6,1003.2,300.8z M1015.2,292.9c0.1-0.8,0.1-1.8-0.2-2.9
				c-0.3-1.1-0.7-2.3-1.3-3.7c-0.6-1.3-1.4-2.7-2.3-4.2c-0.9-1.4-1.8-2.7-2.7-3.9c-0.9-1.2-1.8-2.1-2.7-2.8
				c-0.9-0.7-1.7-1.2-2.5-1.5c-0.8-0.2-1.5-0.2-2.2,0.2c-0.6,0.4-1,1-1.1,1.8c-0.1,0.8,0,1.8,0.2,2.9c0.3,1.1,0.7,2.3,1.4,3.7
				c0.6,1.3,1.4,2.7,2.3,4.2c0.9,1.4,1.8,2.7,2.7,3.9c0.9,1.2,1.8,2.1,2.7,2.9c0.9,0.7,1.7,1.3,2.5,1.5c0.8,0.3,1.5,0.2,2.1-0.2
				C1014.7,294.4,1015.1,293.8,1015.2,292.9z"/>
		</g>
	</g>
	<g id="XMLID_338_">
		<g id="XMLID_355_">
			<path id="XMLID_392_" d="M147,455.3l-26.1-5l1.6-8.1l26.1,5l2.6-13.7l7.6,1.5l-6.8,35.5l-7.6-1.5L147,455.3z"/>
			<path id="XMLID_390_" d="M112.9,548.1l14.4,0l0-22.2l-14.4,0l0-8.3l34.3,0l0,8.3l-12.5,0l0,22.2l12.5,0l0,8.3l-34.3,0
				L112.9,548.1z"/>
			<path id="XMLID_388_" d="M147,616.5l-5.9,1.2l4.7,24l-7,1.4l-4.7-24l-6.1,1.2l5.4,28l-7.7,1.5l-7-36.2l33.7-6.6l6.9,35.5l-7,1.4
				L147,616.5z"/>
			<path id="XMLID_386_" d="M202.6,768.9c-0.6-2.6-1.6-5.1-3-7.6c-0.9-1.7-2-3.1-3.2-4.2c-1.2-1.1-2.5-1.9-3.8-2.4
				c-1.4-0.5-2.8-0.7-4.2-0.5c-1.5,0.1-2.9,0.6-4.4,1.4c-3,1.7-4.8,3.9-5.4,6.8c-0.6,2.8,0,6.1,2,9.6c0.5,0.9,1.1,1.9,1.7,2.8
				c0.6,0.9,1.2,1.8,1.9,2.6c0.6,0.8,1.3,1.5,1.9,2c0.6,0.6,1.2,0.9,1.8,1.1l2.8-1.6l-3.9-7l6.1-3.4l8,14.2l-13.9,7.7
				c-0.7-0.4-1.6-1-2.5-1.8c-1-0.8-2-1.8-3.1-3.1c-1.1-1.3-2.3-2.8-3.6-4.5c-1.3-1.8-2.5-3.8-3.8-6.1c-1.4-2.5-2.4-5.1-2.9-7.6
				c-0.5-2.6-0.5-5.1-0.1-7.4c0.5-2.4,1.4-4.6,2.9-6.6c1.5-2,3.5-3.8,6-5.2c2.5-1.4,5.1-2.2,7.6-2.3c2.5-0.1,4.9,0.3,7.2,1.2
				c2.3,0.9,4.4,2.3,6.4,4.1c2,1.8,3.6,4,5,6.5c1.1,2,2,3.9,2.8,5.9c0.8,2,1.4,3.8,1.8,5.6c0.4,1.7,0.7,3.3,0.9,4.7
				c0.2,1.4,0.2,2.5,0,3.4l-8.2,0.1C203.4,774.3,203.2,771.5,202.6,768.9z"/>
			<path id="XMLID_383_" d="M236.9,861.9l3.3-7l-11.9-14l-7.4,2.1l-5.8-6.8l36.7-9.9l6.9,8.1l-15.4,34.9L236.9,861.9z M243.4,848.2
				l6.2-13.2l-14.1,3.9L243.4,848.2z"/>
			<path id="XMLID_381_" d="M314.6,931.9l17.3-22.4l-27.2,14.7l-6.3-4.8l7.9-29.6L289,912.2l-6.6-5.1l21-27.2l11.7,9.1l-6.6,24.4
				l22.4-12.2l11.3,8.7l-21,27.2L314.6,931.9z"/>
			<path id="XMLID_379_" d="M390.3,946l-2.6,5.4l22,10.7l-3.1,6.4l-22-10.7l-2.7,5.6l25.6,12.5l-3.4,7l-33.1-16.1l15-30.9l32.5,15.8
				l-3.1,6.4L390.3,946z"/>
			<path id="XMLID_377_" d="M544,1020.4l2-14.3l-22-3l-2,14.3l-8.2-1.1l4.7-34l8.2,1.1l-1.7,12.4l22,3l1.7-12.4l8.2,1.1l-4.7,34
				L544,1020.4z"/>
			<path id="XMLID_374_" d="M640.2,1021.8l-3.6-6.8l-18.4,1.1l-2.8,7.2l-8.9,0.5l14.1-35.3l10.6-0.6l18.7,33.3L640.2,1021.8z
				 M633.1,1008.4l-6.8-12.8l-5.3,13.6L633.1,1008.4z"/>
			<path id="XMLID_372_" d="M718.5,979.6c-1.7-0.1-3.7,0.1-6,0.7c-6.6,1.7-9.6,3.9-8.9,6.5c0.2,0.8,0.6,1.4,1.1,1.8
				c0.5,0.4,1.2,0.6,2,0.6c0.8,0,1.7-0.1,2.7-0.3c1-0.2,2.1-0.5,3.3-0.8c1.6-0.4,3.2-0.8,4.8-1.2c1.6-0.4,3.3-0.7,4.9-1
				c2.1-0.3,3.7-0.4,5-0.2c1.3,0.1,2.5,0.5,3.5,1.1c0.8,0.5,1.6,1.1,2.3,2c0.7,0.9,1.2,2,1.6,3.5c0.5,1.9,0.6,3.6,0.2,5.3
				c-0.3,1.7-1.1,3.2-2.3,4.7c-1.2,1.4-2.9,2.8-5.1,3.9c-2.2,1.2-4.9,2.2-8.2,3c-1.6,0.4-3.1,0.8-4.3,1c-1.3,0.3-2.4,0.4-3.4,0.5
				c-1,0.1-1.9,0.1-2.7,0.1c-0.8,0-1.5-0.1-2.2-0.2c-1.2-0.2-2.3-0.5-3.2-0.9c-0.9-0.4-1.7-0.9-2.5-1.5c-0.7-0.6-1.4-1.3-1.9-2.2
				c-0.6-0.9-1-1.9-1.5-3.1l8.8-2.3c0.3,0.7,0.9,1.3,1.7,1.7c0.8,0.4,1.7,0.6,2.8,0.7c1.1,0.1,2.2,0.1,3.5-0.1
				c1.2-0.2,2.5-0.4,3.7-0.7c1.3-0.3,2.6-0.8,3.7-1.2c1.1-0.5,2-1,2.8-1.6c0.7-0.6,1.3-1.2,1.6-1.9c0.3-0.7,0.4-1.4,0.2-2.3
				c-0.2-0.8-0.6-1.3-1.3-1.5c-0.7-0.3-1.5-0.4-2.5-0.3c-1,0.1-2.1,0.2-3.4,0.5c-1.3,0.3-2.6,0.6-4,1c-1.4,0.3-2.9,0.7-4.3,1
				c-1.5,0.3-2.9,0.5-4.3,0.6c-1.2,0.1-2.4,0.1-3.6,0c-1.2-0.1-2.3-0.4-3.4-0.9c-1.1-0.5-2-1.3-2.8-2.3c-0.8-1-1.4-2.4-1.9-4.2
				c-0.4-1.6-0.5-3.1-0.1-4.6c0.3-1.5,1.1-2.9,2.3-4.2c1.2-1.3,2.9-2.5,5.1-3.6c2.2-1.1,5-2.1,8.4-3c2.8-0.7,5.3-1.1,7.5-1.2
				c2.1-0.1,4,0.1,5.5,0.6c1.6,0.5,2.9,1.3,4,2.3c1.1,1.1,2,2.4,2.8,4l-8,2.4C721.6,980.4,720.2,979.7,718.5,979.6z"/>
			<path id="XMLID_370_" d="M856.8,920.5c-1-0.3-2.1-0.4-3.2-0.4c-1.1,0-2.3,0.2-3.5,0.6c-1.2,0.4-2.4,1-3.6,1.7
				c-1.6,1-2.9,2.2-4,3.4c-1,1.3-1.7,2.6-2.1,3.9c-0.4,1.4-0.5,2.8-0.2,4.2c0.2,1.5,0.8,2.9,1.7,4.3c1.8,2.9,4.1,4.5,7,5.1
				c2.8,0.5,6-0.3,9.4-2.5c1.3-0.8,2.3-1.7,3.2-2.6c0.8-0.9,1.5-1.8,2-2.8c0.5-1,0.8-1.9,0.9-2.9s0.2-1.9,0-2.9l7.8-1
				c0.6,3.5,0.1,6.8-1.6,9.9c-1.7,3.1-4.6,6-8.8,8.7c-2.4,1.5-4.9,2.6-7.5,3.3c-2.5,0.7-5,0.8-7.4,0.5c-2.4-0.3-4.7-1.1-6.8-2.5
				c-2.1-1.3-3.9-3.2-5.5-5.7c-1.6-2.5-2.5-4.9-2.8-7.4c-0.3-2.5,0-4.9,0.8-7.3c0.8-2.4,2-4.6,3.7-6.6c1.7-2.1,3.8-3.9,6.2-5.4
				c1.9-1.2,3.8-2.1,5.7-2.7c1.9-0.6,3.8-1,5.6-1c1.8-0.1,3.6,0.1,5.2,0.5c1.7,0.4,3.1,1,4.4,1.9l-4.1,7
				C858.7,921.3,857.8,920.8,856.8,920.5z"/>
			<path id="XMLID_368_" d="M943.2,880.4l-10-10.4l-16,15.4l10,10.4l-6,5.7l-23.8-24.8l6-5.7l8.6,9l16-15.4l-8.6-9l6-5.7l23.8,24.8
				L943.2,880.4z"/>
			<path id="XMLID_365_" d="M1004.1,805.8l-7.6-1.4l-10.5,15.1l3.9,6.6l-5.1,7.3l-18.9-32.9l6.1-8.7l37.7,6L1004.1,805.8z
				 M989.1,803.1l-14.3-2.6l7.3,12.6L989.1,803.1z"/>
			<path id="XMLID_363_" d="M1048.6,721.4l-30.9,11.8l21.7,9.4l-3.5,8l-31.5-13.7l3.5-8.1l30.1-11.9l-20.9-9.1l3.5-8l31.5,13.7
				L1048.6,721.4z"/>
			<path id="XMLID_361_" d="M1049.2,625.3c-1.2,2.4-2.2,4.9-2.8,7.7c-0.4,1.9-0.5,3.6-0.3,5.2c0.2,1.6,0.6,3.1,1.3,4.3
				c0.7,1.3,1.6,2.3,2.8,3.2c1.2,0.9,2.6,1.5,4.2,1.8c3.3,0.7,6.2,0.2,8.5-1.5c2.4-1.7,4-4.6,4.8-8.6c0.2-1,0.4-2.1,0.6-3.2
				c0.2-1.1,0.3-2.2,0.3-3.2c0-1,0-1.9-0.1-2.8c-0.1-0.8-0.3-1.5-0.6-2l-3.1-0.7l-1.7,7.8l-6.8-1.5l3.4-15.9l15.5,3.3
				c0.3,0.8,0.5,1.8,0.7,3c0.2,1.2,0.3,2.7,0.3,4.4c0,1.7-0.1,3.6-0.3,5.8c-0.2,2.1-0.6,4.5-1.2,7.2c-0.6,2.8-1.6,5.4-2.9,7.6
				c-1.3,2.3-2.9,4.1-4.8,5.6c-1.9,1.5-4.1,2.5-6.5,3.1c-2.4,0.6-5.1,0.5-7.9-0.1c-2.8-0.6-5.2-1.7-7.2-3.3c-2-1.6-3.5-3.5-4.6-5.7
				c-1.1-2.2-1.8-4.6-2.1-7.3c-0.3-2.7-0.1-5.4,0.5-8.2c0.5-2.2,1.1-4.3,1.8-6.3c0.7-2,1.5-3.8,2.3-5.4c0.8-1.6,1.6-3,2.5-4.2
				c0.8-1.2,1.6-2,2.2-2.6l6.2,5.4C1052.2,620.7,1050.5,623,1049.2,625.3z"/>
			<path id="XMLID_359_" d="M1057.2,554.5l6,0.1l0.5-24.4l7.1,0.1l-0.5,24.4l6.2,0.1l0.5-28.5l7.8,0.1l-0.7,36.8l-34.3-0.6l0.7-36.2
				l7.1,0.1L1057.2,554.5z"/>
			<path id="XMLID_356_" d="M1042.7,450.7c0-2.8,0.5-5.3,1.4-7.5c0.9-2.2,2.4-4.1,4.3-5.7c2-1.6,4.6-2.6,8-3.2c1.9-0.3,3.9-0.3,6,0
				c2.1,0.4,4.2,1.2,6.1,2.5s3.7,3.3,5.2,5.8c1.5,2.5,2.7,5.7,3.4,9.7l3.6,20.3l-33.8,6.1l-3.4-19.1
				C1043,456.3,1042.7,453.4,1042.7,450.7z M1071.5,465.6l-2-11c-0.8-4.6-2.3-7.9-4.3-9.8c-2.1-1.9-4.6-2.6-7.5-2.1
				c-3.1,0.6-5.4,2.1-6.6,4.6c-1.3,2.5-1.5,6.1-0.7,10.7l2,10.9L1071.5,465.6z"/>
		</g>
	</g>
	<circle id="XMLID_164_" cx="1042.8" cy="371.9" r="13.7"/>
	<path id="XMLID_165_" d="M600,1075c-72.6,0-143-14.2-209.2-42.2c-64-27.1-121.5-65.8-170.8-115.2
		c-49.4-49.4-88.1-106.8-115.2-170.8c-28-66.3-42.2-136.7-42.2-209.2s14.2-143,42.2-209.2c27.1-64,65.8-121.5,115.2-170.8
		c49.4-49.4,106.8-88.1,170.8-115.2C457,14.2,527.4,0,600,0s143,14.2,209.2,42.2c64,27.1,121.5,65.8,170.8,115.2
		c49.4,49.4,88.1,106.8,115.2,170.8c28,66.3,42.2,136.7,42.2,209.2s-14.2,143-42.2,209.2c-27.1,64-65.8,121.5-115.2,170.8
		c-49.4,49.4-106.8,88.1-170.8,115.2C743,1060.8,672.6,1075,600,1075z M600,7.7C307.9,7.7,70.2,245.4,70.2,537.5
		s237.7,529.8,529.8,529.8s529.8-237.7,529.8-529.8S892.1,7.7,600,7.7z"/>
	<path id="XMLID_337_" d="M600,952.2c-56,0-110.3-11-161.4-32.6c-49.4-20.9-93.7-50.8-131.8-88.9c-38.1-38.1-68-82.4-88.9-131.8
		c-21.6-51.1-32.6-105.4-32.6-161.4s11-110.3,32.6-161.4c20.9-49.4,50.8-93.7,88.9-131.8c38.1-38.1,82.4-68,131.8-88.9
		c51.1-21.6,105.4-32.6,161.4-32.6c56,0,110.3,11,161.4,32.6c49.4,20.9,93.7,50.8,131.8,88.9c38.1,38.1,68,82.4,88.9,131.8
		c21.6,51.1,32.6,105.4,32.6,161.4s-11,110.3-32.6,161.4c-20.9,49.4-50.8,93.7-88.9,131.8c-38.1,38.1-82.4,68-131.8,88.9
		C710.3,941.2,656,952.2,600,952.2z M600,130.5c-224.4,0-407,182.6-407,407s182.6,407,407,407s407-182.6,407-407
		S824.4,130.5,600,130.5z"/>
	<circle id="XMLID_158_" cx="160.1" cy="371.9" r="13.7"/>
</g>
<g id="XMLID_3_">
	<path id="XMLID_4_" d="M14.5,1198.1v-49.9L0,1150.8v-7.8l25.3-4.2v59.4H14.5z"/>
	<path id="XMLID_6_" d="M52.9,1198.1v-9.9c1.5-2.6,3.3-4.8,5.2-6.7c2-1.9,4-3.5,6.1-4.9c3.3-2.2,6.6-3.9,10.2-5.3
		c3.5-1.4,7-2.5,10.3-3.5c3.4-0.9,6.5-1.8,9.6-2.4c3-0.7,5.6-1.4,7.9-2.2c2.3-0.8,4-1.8,5.4-2.8c1.3-1.1,2-2.5,2-4.3
		c0-1.3-0.4-2.5-1.3-3.6c-0.8-1.1-2-2-3.5-2.8c-1.5-0.8-3.2-1.4-5.2-1.8c-2-0.4-4.1-0.7-6.5-0.7c-3.7,0-7.2,0.3-10.6,0.8
		c-3.4,0.5-6.6,1.2-9.5,2.1c-3,0.9-5.7,1.9-8.1,3c-2.4,1.1-4.6,2.3-6.4,3.5l-4.5-9.1c1.8-1.1,3.9-2.2,6.5-3.3c2.5-1.1,5.5-2.1,8.8-3
		c3.4-0.9,7.2-1.6,11.4-2.2c4.2-0.5,9-0.8,14.2-0.8c3.4,0,6.6,0.4,9.7,1.3c3.1,0.8,5.9,2,8.3,3.6s4.3,3.5,5.7,5.7
		c1.4,2.2,2.1,4.8,2.1,7.5c0,2.9-0.6,5.3-1.7,7.2c-1.2,1.9-2.8,3.6-5,4.9c-2.1,1.3-4.8,2.5-7.9,3.4c-3.1,0.9-6.6,1.9-10.5,2.8
		c-2.5,0.6-5.2,1.3-8,2s-5.4,1.6-8,2.6c-2.5,1-4.9,2.3-7.1,3.8c-2.2,1.5-4,3.3-5.5,5.5h52.2v9.8H52.9z"/>
	<path id="XMLID_8_" d="M157.7,1197.6c-1.3,1-2.8,1.5-4.7,1.5c-1.8,0-3.4-0.5-4.6-1.5c-1.2-1-1.9-2.3-1.9-3.8s0.6-2.8,1.9-3.8
		c1.2-1,2.8-1.5,4.6-1.5c1.8,0,3.4,0.5,4.7,1.5c1.3,1,1.9,2.3,1.9,3.8S159,1196.5,157.7,1197.6z"/>
	<path id="XMLID_10_" d="M223,1177.5v-7h22.8v7H223z"/>
	<path id="XMLID_12_" d="M318.9,1198.1v-49.9l-14.5,2.5v-7.8l25.3-4.2v59.4H318.9z"/>
	<path id="XMLID_14_" d="M376,1164.1h22.6c5.1,0,8.9-0.7,11.3-2.2c2.4-1.5,3.6-3.4,3.6-5.9c0-3.1-1.7-5.4-5.2-6.8
		c-3.5-1.5-8.4-2.2-14.8-2.2c-3.1,0-6.2,0.2-9.2,0.7c-3,0.4-5.8,1-8.4,1.6c-2.6,0.7-4.9,1.4-7,2.2c-2.1,0.8-3.7,1.5-5,2.2l-3.9-9.4
		c1.2-0.6,3-1.3,5.3-2c2.3-0.7,5-1.4,8.1-2c3.1-0.6,6.4-1.2,9.9-1.6c3.6-0.4,7.1-0.7,10.7-0.7c3.9,0,7.6,0.3,11.2,1
		c3.6,0.7,6.7,1.7,9.5,3.1c2.7,1.4,4.9,3.1,6.5,5.2c1.6,2.1,2.4,4.6,2.4,7.4c0,1.8-0.3,3.4-0.9,4.8c-0.6,1.4-1.4,2.7-2.4,3.8
		c-1,1.1-2.1,2-3.4,2.8c-1.3,0.8-2.6,1.3-3.9,1.7c2.1,0.2,4,0.7,5.6,1.5c1.6,0.8,3,1.9,4.1,3.1c1.1,1.2,2,2.6,2.6,4
		c0.6,1.5,0.9,2.9,0.9,4.4c0,6.7-2.9,11.5-8.6,14.5c-5.7,3-14.5,4.5-26.2,4.5c-3.8,0-7.5-0.3-11.1-0.8c-3.6-0.5-6.9-1.2-9.9-2
		c-3-0.8-5.7-1.7-8-2.6c-2.3-0.9-4.1-1.8-5.3-2.6l4.4-9.1c1.1,0.8,2.8,1.7,5.2,2.6c2.4,0.9,5.1,1.8,8,2.6s6,1.5,9.1,2
		c3.1,0.5,6,0.8,8.6,0.8c3.3,0,6.3-0.2,9.1-0.6c2.7-0.4,5.1-1,7-1.8c2-0.8,3.5-1.9,4.5-3.2s1.6-2.8,1.6-4.6c0-2.8-1.4-4.9-4.1-6.2
		c-2.7-1.3-6.7-2-12-2H376V1164.1z"/>
	<path id="XMLID_16_" d="M462.5,1197.6c-1.3,1-2.8,1.5-4.7,1.5s-3.4-0.5-4.6-1.5c-1.2-1-1.9-2.3-1.9-3.8s0.6-2.8,1.9-3.8
		c1.2-1,2.8-1.5,4.6-1.5s3.4,0.5,4.7,1.5c1.3,1,1.9,2.3,1.9,3.8S463.8,1196.5,462.5,1197.6z"/>
	<path id="XMLID_18_" d="M605,1198v-50.1l-25.9,50.2h-10.4l-25-50.2v50.1h-10.9v-58.2h19.1l22.4,44.2l23.2-44.2H616v58.2H605z"/>
	<path id="XMLID_20_" d="M700.8,1198.1l-6.9-13.3h-35.9l-6.7,13.3h-11.6l29.7-58.2h13.7l30.3,58.2H700.8z M689.9,1176l-13.9-26.7
		l-13.9,26.7H689.9z"/>
	<path id="XMLID_23_" d="M783,1184.7c-1.4,3.4-3.4,6.3-5.8,8.6c-2.4,2.3-5.2,4-8.4,5.1c-3.2,1.1-6.6,1.7-10.2,1.7
		c-3.8,0-7.3-0.5-10.5-1.4c-3.1-0.9-5.8-2.2-8.2-3.8c-2.3-1.6-4.3-3.6-5.8-5.9c-1.5-2.3-2.6-4.8-3.3-7.5l10.7-3.7
		c0.3,1.6,0.8,3.1,1.7,4.6c0.9,1.5,2,2.9,3.3,4c1.4,1.2,2.9,2.1,4.7,2.8c1.8,0.7,3.7,1.1,5.9,1.1c2.4,0,4.6-0.3,6.8-0.9
		c2.1-0.6,3.9-1.5,5.5-2.9s2.8-3.2,3.7-5.5c0.9-2.3,1.3-5.2,1.3-8.7v-32.5h10.7v32.5C785.2,1177.1,784.5,1181.2,783,1184.7z"/>
	<path id="XMLID_25_" d="M850.4,1198.1v-9.9c1.5-2.6,3.3-4.8,5.2-6.7c2-1.9,4-3.5,6.1-4.9c3.3-2.2,6.6-3.9,10.2-5.3
		c3.5-1.4,7-2.5,10.3-3.5c3.4-0.9,6.5-1.8,9.6-2.4c3-0.7,5.6-1.4,7.9-2.2c2.2-0.8,4-1.8,5.4-2.8c1.3-1.1,2-2.5,2-4.3
		c0-1.3-0.4-2.5-1.3-3.6c-0.8-1.1-2-2-3.5-2.8c-1.5-0.8-3.2-1.4-5.2-1.8c-2-0.4-4.1-0.7-6.5-0.7c-3.7,0-7.2,0.3-10.6,0.8
		c-3.4,0.5-6.6,1.2-9.5,2.1c-3,0.9-5.7,1.9-8.1,3c-2.4,1.1-4.6,2.3-6.4,3.5l-4.5-9.1c1.8-1.1,3.9-2.2,6.5-3.3c2.5-1.1,5.5-2.1,8.8-3
		c3.4-0.9,7.2-1.6,11.4-2.2c4.2-0.5,9-0.8,14.2-0.8c3.4,0,6.6,0.4,9.7,1.3c3.1,0.8,5.9,2,8.3,3.6c2.4,1.6,4.3,3.5,5.7,5.7
		c1.4,2.2,2.1,4.8,2.1,7.5c0,2.9-0.6,5.3-1.7,7.2c-1.2,1.9-2.8,3.6-5,4.9c-2.1,1.3-4.8,2.5-7.9,3.4c-3.1,0.9-6.6,1.9-10.5,2.8
		c-2.5,0.6-5.2,1.3-8,2c-2.8,0.7-5.4,1.6-8,2.6c-2.5,1-4.9,2.3-7.1,3.8c-2.2,1.5-4,3.3-5.5,5.5h52.2v9.8H850.4z"/>
	<path id="XMLID_27_" d="M1012.6,1181.1c-1.7,3.8-4,7-7,9.8c-3,2.8-6.7,5-10.9,6.6c-4.2,1.6-8.9,2.4-14.2,2.4
		c-5.2,0-9.9-0.8-14.1-2.4c-4.3-1.6-7.9-3.8-10.9-6.6c-3-2.8-5.3-6.1-7-9.8c-1.7-3.8-2.5-7.8-2.5-12.1c0-4.3,0.8-8.3,2.5-12
		c1.7-3.7,4-7,7-9.8s6.6-5,10.9-6.7c4.3-1.6,9-2.4,14.1-2.4c5.2,0,9.9,0.8,14.2,2.4c4.2,1.6,7.9,3.9,10.9,6.7c3,2.8,5.4,6.1,7,9.8
		c1.7,3.7,2.5,7.8,2.5,12C1015.1,1173.3,1014.3,1177.3,1012.6,1181.1z M1002.4,1160.2c-1.1-2.7-2.7-5.1-4.8-7.1
		c-2.1-2-4.6-3.6-7.5-4.8s-6.1-1.7-9.7-1.7c-3.6,0-6.8,0.6-9.7,1.7c-2.9,1.2-5.4,2.8-7.4,4.8c-2.1,2-3.6,4.4-4.8,7.1
		c-1.1,2.7-1.7,5.6-1.7,8.7c0,3.1,0.6,6,1.7,8.7c1.1,2.7,2.7,5.1,4.8,7.1c2.1,2,4.5,3.6,7.4,4.8c2.9,1.2,6.1,1.7,9.7,1.7
		c3.6,0,6.8-0.6,9.7-1.7c2.9-1.2,5.4-2.8,7.5-4.8c2.1-2,3.7-4.4,4.8-7.1c1.1-2.7,1.7-5.6,1.7-8.7
		C1004,1165.8,1003.5,1162.9,1002.4,1160.2z"/>
	<path id="XMLID_30_" d="M1053.5,1198.1v-49.9l-14.5,2.5v-7.8l25.3-4.2v59.4H1053.5z"/>
	<path id="XMLID_32_" d="M1155,1169.6c1.4,0.8,2.5,1.8,3.5,3s1.8,2.5,2.4,3.9c0.6,1.4,0.9,3,0.9,4.6c0,2.7-0.6,5.1-1.7,7.1
		c-1.1,2-2.6,3.7-4.5,5.1c-1.9,1.4-4,2.5-6.4,3.4c-2.4,0.9-4.9,1.5-7.5,2c-2.6,0.5-5.2,0.8-7.8,1c-2.6,0.2-5,0.2-7.2,0.2
		s-4.6-0.1-7.2-0.2c-2.6-0.2-5.2-0.5-7.8-1s-5.1-1.2-7.5-2c-2.4-0.9-4.6-2-6.4-3.4c-1.9-1.4-3.4-3.1-4.5-5.1c-1.1-2-1.7-4.4-1.7-7.1
		c0-1.6,0.3-3.2,0.9-4.6c0.6-1.4,1.4-2.7,2.4-3.9c1-1.2,2.2-2.2,3.5-3c1.3-0.8,2.8-1.4,4.4-1.8c-2.8-0.8-5.1-2.2-6.8-4.4
		c-1.7-2.1-2.5-4.6-2.5-7.4c0-2.8,0.5-5.1,1.6-7.1c1.1-2,2.5-3.6,4.3-5c1.8-1.4,3.9-2.4,6.2-3.2c2.3-0.8,4.7-1.4,7.2-1.8
		c2.4-0.4,4.9-0.7,7.3-0.8c2.4-0.1,4.6-0.2,6.6-0.2c2,0,4.2,0.1,6.6,0.2c2.4,0.1,4.8,0.4,7.3,0.8c2.4,0.4,4.8,1,7.2,1.8
		c2.3,0.8,4.4,1.9,6.2,3.2c1.8,1.4,3.2,3,4.3,5c1.1,2,1.6,4.4,1.6,7.1c0,2.8-0.8,5.2-2.5,7.4c-1.7,2.1-3.9,3.6-6.9,4.4
		C1152.2,1168.2,1153.7,1168.8,1155,1169.6z M1149.5,1175.8c-1.1-1.2-2.7-2.1-4.8-2.7c-2.1-0.6-4.6-1-7.6-1.2
		c-3-0.2-6.4-0.2-10.2-0.2c-3.8,0-7.2,0.1-10.2,0.2c-3,0.2-5.6,0.6-7.6,1.2c-2.1,0.6-3.7,1.5-4.8,2.7c-1.1,1.2-1.7,2.8-1.7,4.9
		c0,2.1,0.7,3.8,2,5.1c1.4,1.3,3.2,2.4,5.4,3.2c2.2,0.8,4.8,1.3,7.8,1.7c2.9,0.3,6,0.5,9.1,0.5c3.1,0,6.2-0.2,9.1-0.5
		c2.9-0.3,5.5-0.9,7.8-1.7c2.3-0.8,4.1-1.8,5.4-3.2c1.4-1.3,2-3,2-5.1C1151.1,1178.7,1150.6,1177,1149.5,1175.8z M1148.2,1151
		c-1.4-1.3-3.1-2.3-5.4-3.1c-2.2-0.8-4.7-1.3-7.5-1.6c-2.8-0.3-5.6-0.4-8.5-0.4s-5.7,0.1-8.5,0.4c-2.8,0.3-5.3,0.8-7.6,1.6
		c-2.2,0.8-4,1.8-5.4,3.1c-1.4,1.3-2,2.9-2,4.9c0,1.6,0.5,3,1.5,4c1,1.1,2.5,1.9,4.5,2.5c2,0.6,4.4,1,7.4,1.3
		c2.9,0.2,6.3,0.4,10.1,0.4c7.7,0,13.5-0.5,17.5-1.6c4-1.1,5.9-3.3,5.9-6.5C1150.2,1154,1149.6,1152.3,1148.2,1151z"/>
	<path id="XMLID_36_" d="M1198.1,1197.6c-1.3,1-2.8,1.5-4.7,1.5c-1.8,0-3.4-0.5-4.6-1.5c-1.2-1-1.9-2.3-1.9-3.8s0.6-2.8,1.9-3.8
		c1.2-1,2.8-1.5,4.6-1.5c1.8,0,3.4,0.5,4.7,1.5c1.3,1,1.9,2.3,1.9,3.8S1199.4,1196.5,1198.1,1197.6z"/>
</g>
</svg>
