<?xml version="1.0" encoding="utf-8"?>
<!-- Generator: Adobe Illustrator 19.0.0, SVG Export Plug-In . SVG Version: 6.00 Build 0)  -->
<svg version="1.1" id="Layer_1" xmlns="http://www.w3.org/2000/svg" xmlns:xlink="http://www.w3.org/1999/xlink" x="0px" y="0px"
	 viewBox="-199 -400 1200 1200" style="enable-background:new -199 -400 1200 1200;" xml:space="preserve">
<style type="text/css">
	.st0{fill:#DC080E;}
</style>
<g id="XMLID_1333_">
	<g id="XMLID_1461_">
		<path id="XMLID_1463_" class="st0" d="M251.3,189.9c-40.8-40.9-61.2-90.8-61.2-149.7s20.4-108.7,61.2-149.5
			c30.1-30.1,65.2-48.9,105.1-56.8v-81.7c-65.3,8.4-122,34.7-169.1,80.9C129.8-110.5,101-41.4,101,40.2s28.8,150.6,86.3,207.1
			c47.1,46.2,103.8,72.5,169.1,80.9v-81.4C316.5,238.9,281.4,220,251.3,189.9z"/>
		<path id="XMLID_1462_" class="st0" d="M701,40.2c0-81.6-28.8-150.6-86.3-207.1c-47.1-46.2-103.8-72.5-169.1-80.9v81.7
			c40,7.9,75.1,26.7,105.1,56.8c40.8,40.8,61.2,90.6,61.2,149.5S591.5,149,550.7,189.9c-30.1,30.2-65.2,49-105.1,57v81.4
			c65.3-8.4,122-34.7,169.1-80.9C672.2,190.8,701,121.8,701,40.2z"/>
	</g>
	<g id="XMLID_1334_">
		<g id="XMLID_1443_">
			<path id="XMLID_1458_" class="st0" d="M-43.6,559.8c-17.6,17-39.1,25.5-64.4,25.5c-25.4,0-46.8-8.5-64.5-25.5
				s-26.5-37.3-26.5-60.9s8.8-43.9,26.4-60.9c17.7-17,39.1-25.5,64.5-25.5c25.3,0,46.8,8.5,64.4,25.5s26.4,37.3,26.4,60.9
				C-17.2,522.5-26,542.8-43.6,559.8z M-140.5,532.3c8.7,8.9,19.6,13.3,32.4,13.3c12.9,0,23.7-4.4,32.4-13.3c8.6-8.9,13-20,13-33.3
				s-4.4-24.5-13-33.3c-8.7-8.8-19.5-13.3-32.4-13.3s-23.7,4.4-32.4,13.3c-8.7,8.9-13.1,20-13.1,33.3S-149.2,523.4-140.5,532.3z"/>
			<path id="XMLID_1456_" class="st0" d="M55.2,483.8v96.8H10.9V417.3h39.6l50.1,64.2l50.2-64.2h39.6v163.3h-44.3v-96.8L100.7,541
				L55.2,483.8z"/>
			<path id="XMLID_1454_" class="st0" d="M227.9,417.3h44.3v163.3h-44.3V417.3z"/>
			<path id="XMLID_1452_" class="st0" d="M353.7,538.6v42h-44.3V417.3h44.3v63l53.6-63h51.4l-58.3,67.6l62.9,95.6H412l-40.7-61.8
				L353.7,538.6z"/>
			<path id="XMLID_1449_" class="st0" d="M479.8,417.3h76.9c17.3,0,31.5,5.4,42.6,16.1c11.2,10.8,16.8,24,16.8,39.9
				c0,6.5-0.9,12.6-2.9,18.3c-1.9,5.6-4.3,10.3-7,13.8s-5.5,6.5-8.2,9s-5,4.2-6.9,5.1l-3.1,1.7l33.9,59.4h-46.6l-28-51.4H524v51.4
				h-44.3L479.8,417.3L479.8,417.3z M567,461.7c-3.3-3.1-7.5-4.6-12.6-4.6H524v32.5h30.3c5.1,0,9.4-1.5,12.6-4.7
				c3.3-3.1,4.9-7,4.9-11.6C571.8,468.6,570.3,464.7,567,461.7z"/>
			<path id="XMLID_1446_" class="st0" d="M793.7,559.8c-17.6,17-39.1,25.5-64.4,25.5s-46.8-8.5-64.4-25.5s-26.5-37.3-26.5-60.8
				c0-23.6,8.9-43.9,26.5-60.9s39.1-25.5,64.4-25.5s46.8,8.5,64.4,25.5c17.6,17,26.4,37.3,26.4,60.9
				C820.1,522.5,811.4,542.8,793.7,559.8z M696.9,532.3c8.7,8.9,19.5,13.3,32.4,13.3s23.7-4.4,32.4-13.3c8.7-8.9,13.1-20,13.1-33.3
				s-4.4-24.5-13.1-33.3c-8.6-8.8-19.5-13.3-32.4-13.3s-23.7,4.4-32.4,13.3c-8.8,8.9-13.1,20-13.1,33.3S688.1,523.4,696.9,532.3z"/>
			<path id="XMLID_1444_" class="st0" d="M1001,417.3v163.3h-38.3l-70.1-91v91h-44.3V417.3h38.5l69.9,91v-91H1001z"/>
		</g>
		<g id="XMLID_1335_">
			<path id="XMLID_1441_" class="st0" d="M-182.2,617.8c-0.1-0.1-0.3-0.3-0.5-0.6c-0.2-0.2-0.7-0.6-1.5-1s-1.5-0.6-2.3-0.6
				c-1,0-1.8,0.2-2.4,0.6c-0.6,0.4-0.9,0.9-0.9,1.5c0,0.7,0.4,1.3,1.2,1.7c0.8,0.5,1.8,0.9,3,1.2c1.2,0.4,2.4,0.8,3.6,1.3
				s2.2,1.3,3.1,2.4c0.8,1.1,1.2,2.5,1.2,4.2c0,2.4-0.9,4.4-2.8,6s-4.5,2.4-7.7,2.4c-1.4,0-2.8-0.2-4-0.5c-1.3-0.3-2.3-0.7-3.1-1.2
				s-1.5-0.9-2.1-1.4c-0.6-0.5-1-0.9-1.3-1.2l-0.4-0.6l4.1-4c0.1,0.2,0.4,0.5,0.7,0.8s1,0.8,1.9,1.3c1,0.6,2,0.8,3.1,0.8
				c1.2,0,2-0.2,2.6-0.7c0.6-0.4,0.9-1,0.9-1.8c0-0.7-0.4-1.3-1.2-1.8s-1.9-0.9-3.1-1.3c-1.2-0.4-2.4-0.8-3.6-1.3s-2.2-1.3-3-2.4
				c-0.8-1.1-1.2-2.4-1.2-4.1c0-2.1,1-4.1,3-5.8s4.4-2.6,7.3-2.6c1.8,0,3.5,0.3,5.1,1c1.5,0.7,2.6,1.4,3.2,2l0.9,1L-182.2,617.8z"/>
			<path id="XMLID_1439_" class="st0" d="M-169,602.1h6.5v8.4h5.4v6.5h-5.4v10.6c0,0.8,0.3,1.5,0.9,2.1c0.6,0.6,1.4,0.9,2.3,0.9
				c0.5,0,0.9,0,1.4-0.1s0.8-0.2,1-0.3l0.3-0.1v6.2c-1.4,0.5-3.1,0.8-4.9,0.8c-5.6,0-8.4-3.1-8.4-9.2V617h-4.6v-6.5h2.5
				c0.8,0,1.5-0.3,2.1-1c0.6-0.6,0.9-1.5,0.9-2.5V602.1z"/>
			<path id="XMLID_1437_" class="st0" d="M-132.4,633.8c-0.2,0.2-0.5,0.5-0.9,0.9s-1.2,0.8-2.6,1.4c-1.3,0.6-2.7,0.9-4.1,0.9
				c-3,0-5.5-1-7.4-3.1c-1.9-2.1-2.9-4.7-2.9-8.1v-15.9h7.3v15.2c0,1.5,0.5,2.7,1.5,3.7s2.2,1.5,3.7,1.5c1.7,0,3-0.5,4-1.6
				s1.5-2.6,1.5-4.6V610h7.3v26.5h-7.3L-132.4,633.8L-132.4,633.8z"/>
			<path id="XMLID_1434_" class="st0" d="M-102.5,610.4c1.3,0.6,2.2,1.3,2.8,1.8l0.8,1v-14.6h7.3v37.9h-7.3v-3.3
				c-0.1,0.1-0.2,0.2-0.3,0.4c-0.1,0.2-0.5,0.5-1,0.9s-1,0.8-1.6,1.2c-0.6,0.3-1.3,0.6-2.2,0.9c-0.9,0.3-1.8,0.4-2.8,0.4
				c-3.4,0-6.4-1.3-9-4c-2.5-2.7-3.8-5.9-3.8-9.8c0-3.9,1.3-7.1,3.8-9.8s5.5-4,9-4C-105.2,609.4-103.8,609.7-102.5,610.4z
				 M-100.8,628.5c1.3-1.4,1.9-3.1,1.9-5.3s-0.6-3.9-1.9-5.2c-1.3-1.4-2.8-2.1-4.6-2.1c-1.8,0-3.3,0.7-4.6,2.1
				c-1.3,1.4-1.9,3.1-1.9,5.2s0.6,3.9,1.9,5.3s2.8,2.1,4.6,2.1C-103.6,630.5-102,629.9-100.8,628.5z"/>
			<path id="XMLID_1431_" class="st0" d="M-78.3,625.7c0.3,1.4,1.1,2.7,2.3,3.7c1.3,1,2.8,1.5,4.7,1.5c1.4,0,2.7-0.3,3.8-0.8
				c1.2-0.5,2-1.1,2.5-1.6l0.8-0.8l3.8,4.9l-0.5,0.5c-0.2,0.2-0.7,0.6-1.4,1.1s-1.5,1-2.3,1.4s-1.9,0.8-3.2,1.1
				c-1.3,0.3-2.6,0.5-4,0.5c-3.9,0-7.2-1.4-10-4.1s-4.1-6-4.1-9.7c0-3.8,1.4-7,4.1-9.7s6-4.1,9.8-4.1s7,1.3,9.5,3.8s3.8,5.7,3.8,9.5
				l-0.3,3h-19.3V625.7z M-76,617c-1.1,0.9-1.8,2.1-2.3,3.5h12.2c-0.3-1.4-1-2.6-2-3.5c-1.1-0.9-2.4-1.4-3.9-1.4
				C-73.6,615.7-74.9,616.1-76,617z"/>
			<path id="XMLID_1429_" class="st0" d="M-46.1,613.2c0.2-0.3,0.5-0.6,0.9-1s1.2-1,2.6-1.7c1.3-0.7,2.7-1.1,4.1-1.1
				c3,0,5.5,1,7.4,3.1s2.9,4.9,2.9,8.5v15.4h-7.3v-14.6c0-1.6-0.5-2.9-1.4-3.9c-1-1-2.2-1.5-3.7-1.5c-1.7,0-3,0.5-4,1.6
				s-1.5,2.6-1.5,4.6v13.8h-7.3v-26.5h7.3V613.2z"/>
			<path id="XMLID_1427_" class="st0" d="M-18,602.1h6.5v8.4h5.4v6.5h-5.4v10.6c0,0.8,0.3,1.5,0.9,2.1c0.6,0.6,1.4,0.9,2.3,0.9
				c0.5,0,0.9,0,1.4-0.1s0.8-0.2,1-0.3l0.3-0.1v6.2c-1.4,0.5-3.1,0.8-4.9,0.8c-5.6,0-8.4-3.1-8.4-9.2V617h-4.6v-6.5h2.4
				c0.8,0,1.5-0.3,2.1-1c0.6-0.6,0.9-1.5,0.9-2.5v-4.9H-18z"/>
			<path id="XMLID_1425_" class="st0" d="M14.3,617.8c-0.1-0.1-0.3-0.3-0.5-0.6c-0.2-0.2-0.7-0.6-1.5-1s-1.5-0.6-2.3-0.6
				c-1,0-1.8,0.2-2.4,0.6c-0.6,0.4-0.9,0.9-0.9,1.5c0,0.7,0.4,1.3,1.2,1.7c0.8,0.5,1.8,0.9,3,1.2c1.2,0.4,2.4,0.8,3.6,1.3
				c1.2,0.5,2.2,1.3,3.1,2.4c0.8,1.1,1.2,2.5,1.2,4.2c0,2.4-0.9,4.4-2.8,6c-1.9,1.6-4.5,2.4-7.7,2.4c-1.4,0-2.8-0.2-4-0.5
				c-1.3-0.3-2.3-0.7-3.1-1.2s-1.5-0.9-2.1-1.4s-1-0.9-1.3-1.2l-0.4-0.6l4.1-4c0.1,0.2,0.4,0.5,0.7,0.8s1,0.8,1.9,1.3
				c1,0.6,2,0.8,3.1,0.8c1.2,0,2-0.2,2.6-0.7c0.6-0.4,0.9-1,0.9-1.8c0-0.7-0.4-1.3-1.2-1.8s-1.9-0.9-3.1-1.3
				c-1.2-0.4-2.4-0.8-3.6-1.3c-1.2-0.5-2.2-1.3-3-2.4c-0.8-1.1-1.2-2.4-1.2-4.1c0-2.1,1-4.1,3-5.8s4.4-2.6,7.3-2.6
				c1.8,0,3.5,0.3,5.1,1c1.5,0.7,2.6,1.4,3.2,2l0.9,1L14.3,617.8z"/>
			<path id="XMLID_1423_" class="st0" d="M31.8,630v6.5h-7.3v-37.9h7.3v22.2l9.5-10.8h8.4l-10,11.4l10.6,15.1h-8.1l-7.1-10.3
				L31.8,630z"/>
			<path id="XMLID_1420_" class="st0" d="M68.4,633.8c-0.2,0.2-0.5,0.5-0.9,0.9s-1.2,0.8-2.5,1.4s-2.6,0.9-4,0.9
				c-2.6,0-4.8-0.7-6.5-2.2s-2.5-3.3-2.5-5.4c0-2.2,0.7-4,2.1-5.4c1.4-1.4,3.3-2.4,5.8-2.8l8.4-1.5c0-1.1-0.4-2-1.2-2.7
				c-0.8-0.7-1.9-1.1-3.4-1.1c-1.2,0-2.3,0.2-3.3,0.7c-1,0.4-1.7,0.9-2.1,1.4l-0.6,0.6l-4-4c0.1-0.1,0.3-0.3,0.4-0.6
				c0.2-0.2,0.6-0.6,1.2-1.2c0.6-0.6,1.3-1.1,2.1-1.5s1.8-0.9,3-1.2c1.2-0.4,2.5-0.6,3.8-0.6c3.4,0,6.1,1,8.2,3s3.2,4.5,3.2,7.5
				v16.5h-7.3v-2.7H68.4z M66.9,629.5c1-1,1.5-2.5,1.5-4.4v-0.8l-6,1.1c-2,0.3-3,1.3-3,3c0,1.8,1.2,2.7,3.5,2.7
				C64.6,631.1,65.9,630.5,66.9,629.5z"/>
			<path id="XMLID_1417_" class="st0" d="M116.1,632.9c-2.8,2.8-6.1,4.1-9.9,4.1s-7.1-1.4-9.9-4.1c-2.8-2.8-4.2-6-4.2-9.7
				s1.4-6.9,4.2-9.7c2.8-2.8,6.1-4.1,9.9-4.1s7.1,1.4,9.9,4.1c2.8,2.8,4.2,6,4.2,9.7S118.9,630.1,116.1,632.9z M101.7,628.2
				c1.3,1.3,2.8,2,4.6,2s3.3-0.7,4.6-2c1.3-1.3,1.9-3,1.9-5s-0.6-3.7-1.9-5c-1.3-1.4-2.8-2-4.6-2s-3.3,0.7-4.6,2
				c-1.3,1.4-1.9,3-1.9,5C99.7,625.2,100.4,626.9,101.7,628.2z"/>
			<path id="XMLID_1415_" class="st0" d="M141.7,617c-0.5-0.2-1.4-0.3-2.4-0.3c-1.9,0-3.4,0.6-4.6,1.8c-1.1,1.2-1.7,3-1.7,5.2v12.7
				h-7.3v-26.5h7.3v3.2c0.2-0.2,0.5-0.6,0.9-1s1.2-0.9,2.6-1.6c1.3-0.7,2.7-1,4.1-1h1.1V617z"/>
			<path id="XMLID_1412_" class="st0" d="M163.9,632.2c-0.1,0.1-0.2,0.2-0.3,0.4c-0.1,0.2-0.5,0.5-1,0.9s-1,0.8-1.6,1.2
				c-0.6,0.3-1.3,0.7-2.2,0.9S157,636,156,636c-3,0-5.8-1.3-8.2-4c-2.5-2.6-3.7-5.7-3.7-9.3c0-3.6,1.2-6.7,3.7-9.3s5.2-4,8.2-4
				c1.5,0,2.9,0.3,4.3,1s2.2,1.3,2.8,1.8l0.8,1V610h7.3v24.4c0,3.8-1.3,7-4,9.6s-6,3.9-10.1,3.9c-1.5,0-3-0.2-4.4-0.6
				s-2.5-0.9-3.5-1.4c-0.9-0.5-1.7-1.1-2.4-1.7c-0.7-0.6-1.2-1-1.5-1.4l-0.5-0.6l4.6-4.3c0.2,0.2,0.4,0.6,0.8,1s1.2,0.9,2.4,1.6
				c1.3,0.6,2.6,1,4.1,1c2.2,0,3.9-0.6,5.1-1.9c1.3-1.3,1.9-3,1.9-5.1v-2.3H163.9z M153.4,627.3c1.2,1.2,2.6,1.8,4.2,1.8
				c1.7,0,3.1-0.6,4.4-1.9c1.2-1.3,1.9-2.8,1.9-4.6c0-1.8-0.6-3.3-1.9-4.6c-1.2-1.3-2.7-1.9-4.4-1.9c-1.7,0-3.1,0.6-4.2,1.8
				c-1.2,1.2-1.7,2.8-1.7,4.7C151.7,624.6,152.3,626.1,153.4,627.3z"/>
			<path id="XMLID_1409_" class="st0" d="M192.9,633.8c-0.2,0.2-0.5,0.5-0.9,0.9s-1.2,0.8-2.5,1.4s-2.6,0.9-4,0.9
				c-2.6,0-4.8-0.7-6.5-2.2s-2.5-3.3-2.5-5.4c0-2.2,0.7-4,2.1-5.4s3.3-2.4,5.8-2.8l8.4-1.5c0-1.1-0.4-2-1.2-2.7
				c-0.8-0.7-1.9-1.1-3.4-1.1c-1.2,0-2.3,0.2-3.3,0.7c-1,0.4-1.7,0.9-2.1,1.4l-0.6,0.6l-4-4c0.1-0.1,0.3-0.3,0.4-0.6
				c0.2-0.2,0.6-0.6,1.2-1.2c0.6-0.6,1.3-1.1,2.1-1.5c0.8-0.4,1.8-0.9,3-1.2c1.2-0.4,2.5-0.6,3.8-0.6c3.4,0,6.1,1,8.2,3
				s3.2,4.5,3.2,7.5v16.5h-7.3L192.9,633.8L192.9,633.8z M191.4,629.5c1-1,1.5-2.5,1.5-4.4v-0.8l-6,1.1c-2,0.3-3,1.3-3,3
				c0,1.8,1.2,2.7,3.5,2.7C189.1,631.1,190.4,630.5,191.4,629.5z"/>
			<path id="XMLID_1407_" class="st0" d="M214.5,613.2c0.2-0.3,0.5-0.6,0.9-1s1.2-1,2.6-1.7s2.7-1.1,4.1-1.1c3,0,5.5,1,7.4,3.1
				s2.9,4.9,2.9,8.5v15.4h-7.3v-14.6c0-1.6-0.5-2.9-1.4-3.9c-1-1-2.2-1.5-3.7-1.5c-1.7,0-3,0.5-4,1.6s-1.5,2.6-1.5,4.6v13.8h-7.3
				v-26.5h7.3V613.2z"/>
			<path id="XMLID_1404_" class="st0" d="M246.3,605.3c-0.8,0.7-1.8,1.1-3.2,1.1c-1.2,0-2.2-0.4-3-1.1c-0.7-0.7-1.1-1.7-1.1-2.9
				s0.4-2.2,1.1-3c0.7-0.7,1.7-1.1,2.9-1.1c1.3,0,2.4,0.4,3.2,1.1c0.8,0.7,1.2,1.7,1.2,3C247.5,603.6,247.1,604.6,246.3,605.3z
				 M247,636.5h-7.3V610h7.3V636.5z"/>
			<path id="XMLID_1402_" class="st0" d="M275.1,616.5l-13,13.5h13.5v6.5h-22.8V630l13-13.5h-12.5V610H275L275.1,616.5L275.1,616.5z
				"/>
			<path id="XMLID_1399_" class="st0" d="M296,633.8c-0.2,0.2-0.5,0.5-0.9,0.9s-1.2,0.8-2.5,1.4s-2.6,0.9-4,0.9
				c-2.6,0-4.8-0.7-6.5-2.2s-2.5-3.3-2.5-5.4c0-2.2,0.7-4,2.1-5.4s3.3-2.4,5.8-2.8l8.4-1.5c0-1.1-0.4-2-1.2-2.7
				c-0.8-0.7-1.9-1.1-3.4-1.1c-1.2,0-2.3,0.2-3.3,0.7c-1,0.4-1.7,0.9-2.1,1.4l-0.6,0.6l-4-4c0.1-0.1,0.3-0.3,0.4-0.6
				c0.2-0.2,0.6-0.6,1.2-1.2c0.6-0.6,1.3-1.1,2.1-1.5c0.8-0.4,1.8-0.9,3-1.2c1.2-0.4,2.5-0.6,3.8-0.6c3.4,0,6.1,1,8.2,3
				s3.2,4.5,3.2,7.5v16.5H296V633.8z M294.5,629.5c1-1,1.5-2.5,1.5-4.4v-0.8l-6,1.1c-2,0.3-3,1.3-3,3c0,1.8,1.2,2.7,3.5,2.7
				C292.2,631.1,293.5,630.5,294.5,629.5z"/>
			<path id="XMLID_1397_" class="st0" d="M312.9,613.6c2.8-2.8,6.2-4.1,10.1-4.1c1.4,0,2.7,0.2,3.9,0.6c1.2,0.4,2.3,0.8,3.1,1.3
				s1.5,1,2.1,1.6c0.6,0.5,1.1,1,1.3,1.4l0.4,0.6l-4.6,4.6c-0.1-0.2-0.4-0.6-0.7-1s-1-0.9-2.1-1.6c-1.1-0.6-2.2-1-3.4-1
				c-1.9,0-3.6,0.7-5,2.1c-1.4,1.4-2.1,3.1-2.1,5.2c0,2,0.7,3.7,2.1,5.2c1.4,1.4,3,2.1,4.9,2.1c1.2,0,2.3-0.3,3.4-0.9
				c1.1-0.6,1.9-1.2,2.4-1.7l0.7-0.9l4.3,4.6c-0.1,0.1-0.3,0.3-0.4,0.6c-0.2,0.3-0.6,0.7-1.3,1.3c-0.7,0.6-1.4,1.1-2.2,1.6
				s-1.8,0.9-3,1.3s-2.6,0.6-3.9,0.6c-3.9,0-7.3-1.4-10.1-4.1c-2.8-2.8-4.3-6-4.3-9.7S310.1,616.3,312.9,613.6z"/>
			<path id="XMLID_1394_" class="st0" d="M345.7,605.3c-0.8,0.7-1.8,1.1-3.2,1.1c-1.2,0-2.2-0.4-3-1.1c-0.7-0.7-1.1-1.7-1.1-2.9
				s0.4-2.2,1.1-3c0.7-0.7,1.7-1.1,2.9-1.1c1.3,0,2.4,0.4,3.2,1.1c0.8,0.7,1.2,1.7,1.2,3C346.8,603.6,346.5,604.6,345.7,605.3z
				 M346.3,636.5H339V610h7.3V636.5z"/>
			<path id="XMLID_1391_" class="st0" d="M353.9,609.9h7.3v28.7c0,3-0.8,5.2-2.3,6.8c-1.5,1.6-3.7,2.4-6.4,2.4
				c-0.8,0-1.6-0.1-2.4-0.2c-0.8-0.1-1.3-0.3-1.7-0.4l-0.5-0.2v-6.5c0.9,0.4,1.8,0.5,2.7,0.5s1.7-0.3,2.3-0.9s0.9-1.3,0.9-2.1v-28.1
				H353.9z M360.6,605.3c-0.8,0.7-1.8,1.1-3.2,1.1c-1.2,0-2.2-0.4-3-1.1c-0.7-0.7-1.1-1.7-1.1-2.9s0.4-2.2,1.1-3
				c0.7-0.7,1.7-1.1,2.9-1.1c1.3,0,2.4,0.4,3.2,1.1c0.8,0.7,1.2,1.7,1.2,3C361.7,603.6,361.3,604.6,360.6,605.3z"/>
			<path id="XMLID_1388_" class="st0" d="M383.1,633.8c-0.2,0.2-0.5,0.5-0.9,0.9s-1.2,0.8-2.5,1.4s-2.6,0.9-4,0.9
				c-2.6,0-4.8-0.7-6.5-2.2s-2.5-3.3-2.5-5.4c0-2.2,0.7-4,2.1-5.4c1.4-1.4,3.3-2.4,5.8-2.8l8.4-1.5c0-1.1-0.4-2-1.2-2.7
				s-1.9-1.1-3.4-1.1c-1.2,0-2.3,0.2-3.3,0.7c-1,0.4-1.7,0.9-2.1,1.4l-0.6,0.6l-4-4c0.1-0.1,0.3-0.3,0.4-0.6
				c0.2-0.2,0.6-0.6,1.2-1.2c0.6-0.6,1.3-1.1,2.1-1.5s1.8-0.9,3-1.2c1.2-0.4,2.5-0.6,3.8-0.6c3.4,0,6.1,1,8.2,3
				c2.1,2,3.2,4.5,3.2,7.5v16.5H383L383.1,633.8L383.1,633.8z M381.7,629.5c1-1,1.5-2.5,1.5-4.4v-0.8l-6,1.1c-2,0.3-3,1.3-3,3
				c0,1.8,1.2,2.7,3.5,2.7C379.4,631.1,380.7,630.5,381.7,629.5z"/>
			<path id="XMLID_1386_" class="st0" d="M441.6,621.9c0-1.7-0.4-3-1.2-4s-1.9-1.4-3.1-1.4c-1.4,0-2.6,0.5-3.5,1.7s-1.4,2.6-1.4,4.6
				v13.8h-7.3V622c0-1.7-0.4-3-1.2-4s-1.9-1.4-3.1-1.4c-1.4,0-2.6,0.5-3.5,1.7c-0.9,1.1-1.4,2.6-1.4,4.6v13.8h-7.3v-26.5h7.3v3.2
				c0.2-0.3,0.5-0.6,0.8-1c0.4-0.4,1.2-1,2.4-1.7s2.5-1.1,3.9-1.1c1,0,2,0.2,2.9,0.5s1.7,0.7,2.2,1.1c0.5,0.4,1,0.9,1.4,1.3
				c0.4,0.5,0.7,0.8,0.8,1.2l0.2,0.5c0.1-0.1,0.2-0.3,0.4-0.5s0.5-0.6,1.1-1.1s1.2-1,1.8-1.4s1.5-0.8,2.5-1.1s2.1-0.5,3.2-0.5
				c2.9,0,5.2,1,6.9,2.9c1.7,2,2.6,4.9,2.6,8.7v15.4h-7.3v-14.7H441.6z"/>
			<path id="XMLID_1383_" class="st0" d="M470.5,633.8c-0.2,0.2-0.5,0.5-0.9,0.9s-1.2,0.8-2.5,1.4s-2.6,0.9-4,0.9
				c-2.6,0-4.8-0.7-6.5-2.2s-2.5-3.3-2.5-5.4c0-2.2,0.7-4,2.1-5.4c1.4-1.4,3.3-2.4,5.8-2.8l8.4-1.5c0-1.1-0.4-2-1.2-2.7
				s-1.9-1.1-3.4-1.1c-1.2,0-2.3,0.2-3.3,0.7c-1,0.4-1.7,0.9-2.1,1.4l-0.6,0.6l-4-4c0.1-0.1,0.3-0.3,0.4-0.6
				c0.2-0.2,0.6-0.6,1.2-1.2c0.6-0.6,1.3-1.1,2.1-1.5s1.8-0.9,3-1.2c1.2-0.4,2.5-0.6,3.8-0.6c3.4,0,6.1,1,8.2,3
				c2.1,2,3.2,4.5,3.2,7.5v16.5h-7.3L470.5,633.8L470.5,633.8z M469.1,629.5c1-1,1.5-2.5,1.5-4.4v-0.8l-6,1.1c-2,0.3-3,1.3-3,3
				c0,1.8,1.2,2.7,3.5,2.7C466.8,631.1,468.1,630.5,469.1,629.5z"/>
			<path id="XMLID_1381_" class="st0" d="M488.1,602.1h6.5v8.4h5.4v6.5h-5.4v10.6c0,0.8,0.3,1.5,0.9,2.1c0.6,0.6,1.4,0.9,2.3,0.9
				c0.5,0,0.9,0,1.4-0.1s0.8-0.2,1-0.3l0.3-0.1v6.2c-1.4,0.5-3.1,0.8-4.9,0.8c-5.6,0-8.4-3.1-8.4-9.2V617h-4.6v-6.5h2.4
				c0.8,0,1.5-0.3,2.1-1c0.6-0.6,0.9-1.5,0.9-2.5L488.1,602.1L488.1,602.1z"/>
			<path id="XMLID_1378_" class="st0" d="M510.6,625.7c0.3,1.4,1.1,2.7,2.3,3.7c1.3,1,2.8,1.5,4.7,1.5c1.4,0,2.7-0.3,3.8-0.8
				c1.2-0.5,2-1.1,2.5-1.6l0.8-0.8l3.8,4.9l-0.5,0.5c-0.2,0.2-0.7,0.6-1.4,1.1s-1.5,1-2.3,1.4s-1.9,0.8-3.2,1.1
				c-1.3,0.3-2.6,0.5-4,0.5c-3.9,0-7.2-1.4-10-4.1s-4.1-6-4.1-9.7c0-3.8,1.4-7,4.1-9.7c2.7-2.7,6-4.1,9.8-4.1s7,1.3,9.5,3.8
				s3.8,5.7,3.8,9.5l-0.3,3h-19.3V625.7z M512.9,617c-1.1,0.9-1.8,2.1-2.3,3.5h12.2c-0.3-1.4-1-2.6-2-3.5c-1.1-0.9-2.4-1.4-3.9-1.4
				C515.3,615.7,513.9,616.1,512.9,617z"/>
			<path id="XMLID_1376_" class="st0" d="M568.5,621.9c0-1.7-0.4-3-1.2-4s-1.9-1.4-3.1-1.4c-1.4,0-2.6,0.5-3.5,1.7
				c-0.9,1.1-1.4,2.6-1.4,4.6v13.8H552V622c0-1.7-0.4-3-1.2-4s-1.9-1.4-3.1-1.4c-1.4,0-2.6,0.5-3.5,1.7c-0.9,1.1-1.4,2.6-1.4,4.6
				v13.8h-7.3v-26.5h7.3v3.2c0.2-0.3,0.5-0.6,0.8-1c0.4-0.4,1.2-1,2.4-1.7s2.5-1.1,3.9-1.1c1,0,2,0.2,2.9,0.5s1.7,0.7,2.2,1.1
				c0.5,0.4,1,0.9,1.4,1.3c0.4,0.5,0.7,0.8,0.8,1.2l0.2,0.5c0.1-0.1,0.2-0.3,0.4-0.5s0.5-0.6,1.1-1.1s1.2-1,1.8-1.4s1.5-0.8,2.5-1.1
				s2.1-0.5,3.2-0.5c2.9,0,5.2,1,6.9,2.9c1.7,2,2.6,4.9,2.6,8.7v15.4h-7.3v-14.7H568.5z"/>
			<path id="XMLID_1373_" class="st0" d="M597.5,633.8c-0.2,0.2-0.5,0.5-0.9,0.9s-1.2,0.8-2.5,1.4s-2.6,0.9-4,0.9
				c-2.6,0-4.8-0.7-6.5-2.2s-2.5-3.3-2.5-5.4c0-2.2,0.7-4,2.1-5.4c1.4-1.4,3.3-2.4,5.8-2.8l8.4-1.5c0-1.1-0.4-2-1.2-2.7
				s-1.9-1.1-3.4-1.1c-1.2,0-2.3,0.2-3.3,0.7c-1,0.4-1.7,0.9-2.1,1.4l-0.6,0.6l-4-4c0.1-0.1,0.3-0.3,0.4-0.6
				c0.2-0.2,0.6-0.6,1.2-1.2c0.6-0.6,1.3-1.1,2.1-1.5s1.8-0.9,3-1.2c1.2-0.4,2.5-0.6,3.8-0.6c3.4,0,6.1,1,8.2,3
				c2.1,2,3.2,4.5,3.2,7.5v16.5h-7.3L597.5,633.8L597.5,633.8z M596,629.5c1-1,1.5-2.5,1.5-4.4v-0.8l-6,1.1c-2,0.3-3,1.3-3,3
				c0,1.8,1.2,2.7,3.5,2.7C593.7,631.1,595,630.5,596,629.5z"/>
			<path id="XMLID_1371_" class="st0" d="M615.1,602.1h6.5v8.4h5.4v6.5h-5.4v10.6c0,0.8,0.3,1.5,0.9,2.1c0.6,0.6,1.4,0.9,2.3,0.9
				c0.5,0,0.9,0,1.4-0.1s0.8-0.2,1-0.3l0.3-0.1v6.2c-1.4,0.5-3.1,0.8-4.9,0.8c-5.6,0-8.4-3.1-8.4-9.2V617h-4.6v-6.5h2.4
				c0.8,0,1.5-0.3,2.1-1c0.6-0.6,0.9-1.5,0.9-2.5L615.1,602.1L615.1,602.1z"/>
			<path id="XMLID_1368_" class="st0" d="M640.7,605.3c-0.8,0.7-1.8,1.1-3.2,1.1c-1.2,0-2.2-0.4-3-1.1c-0.7-0.7-1.1-1.7-1.1-2.9
				s0.4-2.2,1.1-3c0.7-0.7,1.7-1.1,2.9-1.1c1.3,0,2.4,0.4,3.2,1.1c0.8,0.7,1.2,1.7,1.2,3C641.9,603.6,641.5,604.6,640.7,605.3z
				 M641.3,636.5H634V610h7.3V636.5z"/>
			<path id="XMLID_1365_" class="st0" d="M651.2,613.6c2.8-2.8,6.2-4.1,10.1-4.1c1.4,0,2.7,0.2,3.9,0.6c1.2,0.4,2.3,0.8,3.1,1.3
				s1.5,1,2.1,1.6c0.6,0.5,1.1,1,1.3,1.4l0.4,0.6l-4.6,4.6c-0.1-0.2-0.4-0.6-0.7-1s-1-0.9-2.1-1.6c-1.1-0.6-2.2-1-3.4-1
				c-1.9,0-3.6,0.7-5,2.1c-1.4,1.4-2.1,3.1-2.1,5.2c0,2,0.7,3.7,2.1,5.2c1.4,1.4,3,2.1,4.9,2.1c1.2,0,2.3-0.3,3.4-0.9
				c1.1-0.6,1.9-1.2,2.4-1.7l0.7-0.9l4.3,4.6c-0.1,0.1-0.3,0.3-0.4,0.6c-0.2,0.3-0.6,0.7-1.3,1.3c-0.7,0.6-1.4,1.1-2.2,1.6
				s-1.8,0.9-3,1.3s-2.6,0.6-3.9,0.6c-3.9,0-7.3-1.4-10.1-4.1c-2.8-2.8-4.3-6-4.3-9.7S648.4,616.3,651.2,613.6z M663.8,606.4h-6.5
				l-6.5-8.1h6.6l3.2,4.3l3.3-4.3h6.5L663.8,606.4z"/>
			<path id="XMLID_1363_" class="st0" d="M684.6,630v6.5h-7.3v-37.9h7.3v22.2l9.5-10.8h8.4l-10,11.4l10.6,15.1H695l-7.1-10.3
				L684.6,630z"/>
			<path id="XMLID_1360_" class="st0" d="M728.9,632.9c-2.8,2.8-6.1,4.1-9.9,4.1s-7.1-1.4-9.9-4.1c-2.8-2.8-4.2-6-4.2-9.7
				s1.4-6.9,4.2-9.7s6.1-4.1,9.9-4.1s7.1,1.4,9.9,4.1c2.8,2.8,4.2,6,4.2,9.7S731.7,630.1,728.9,632.9z M714.4,628.2
				c1.3,1.3,2.8,2,4.6,2s3.3-0.7,4.6-2s1.9-3,1.9-5s-0.6-3.7-1.9-5c-1.3-1.4-2.8-2-4.6-2s-3.3,0.7-4.6,2c-1.3,1.4-1.9,3-1.9,5
				S713.2,626.9,714.4,628.2z"/>
			<path id="XMLID_1357_" class="st0" d="M756.7,632.2c-0.1,0.1-0.2,0.2-0.3,0.4c-0.1,0.2-0.5,0.5-1,0.9s-1,0.8-1.6,1.2
				c-0.6,0.3-1.3,0.7-2.2,0.9s-1.8,0.4-2.8,0.4c-3,0-5.8-1.3-8.2-4c-2.5-2.6-3.7-5.7-3.7-9.3c0-3.6,1.2-6.7,3.7-9.3s5.2-4,8.2-4
				c1.5,0,2.9,0.3,4.3,1s2.2,1.3,2.8,1.8l0.8,1V610h7.3v24.4c0,3.8-1.3,7-4,9.6s-6,3.9-10.1,3.9c-1.5,0-3-0.2-4.4-0.6
				s-2.5-0.9-3.5-1.4c-0.9-0.5-1.7-1.1-2.4-1.7s-1.2-1-1.5-1.4l-0.5-0.6l4.6-4.3c0.2,0.2,0.4,0.6,0.8,1c0.4,0.4,1.2,0.9,2.4,1.6
				c1.3,0.6,2.6,1,4.1,1c2.2,0,3.9-0.6,5.1-1.9c1.3-1.3,1.9-3,1.9-5.1v-2.3H756.7z M746.2,627.3c1.2,1.2,2.6,1.8,4.2,1.8
				c1.7,0,3.1-0.6,4.4-1.9c1.2-1.3,1.9-2.8,1.9-4.6c0-1.8-0.6-3.3-1.9-4.6c-1.2-1.3-2.7-1.9-4.4-1.9s-3.1,0.6-4.2,1.8
				c-1.2,1.2-1.7,2.8-1.7,4.7C744.5,624.6,745,626.1,746.2,627.3z"/>
			<path id="XMLID_1355_" class="st0" d="M796.9,617.3h-6v19.2h-7.3v-19.2h-3.8v-6.5h3.8v-3.5c0-6.1,2.8-9.2,8.4-9.2
				c0.8,0,1.6,0.1,2.4,0.2c0.8,0.1,1.4,0.3,1.9,0.4l0.6,0.2v6.2c-0.7-0.4-1.6-0.5-2.7-0.5c-0.9,0-1.7,0.3-2.3,0.9
				c-0.6,0.6-0.9,1.3-0.9,2.1v3.3h6v6.4H796.9z"/>
			<path id="XMLID_1352_" class="st0" d="M816.4,633.8c-0.2,0.2-0.5,0.5-0.9,0.9s-1.2,0.8-2.5,1.4s-2.6,0.9-4,0.9
				c-2.6,0-4.8-0.7-6.5-2.2s-2.5-3.3-2.5-5.4c0-2.2,0.7-4,2.1-5.4c1.4-1.4,3.3-2.4,5.8-2.8l8.4-1.5c0-1.1-0.4-2-1.2-2.7
				s-1.9-1.1-3.4-1.1c-1.2,0-2.3,0.2-3.3,0.7c-1,0.4-1.7,0.9-2.1,1.4l-0.6,0.6l-4-4c0.1-0.1,0.3-0.3,0.4-0.6
				c0.2-0.2,0.6-0.6,1.2-1.2c0.6-0.6,1.3-1.1,2.1-1.5s1.8-0.9,3-1.2c1.2-0.4,2.5-0.6,3.8-0.6c3.4,0,6.1,1,8.2,3
				c2.1,2,3.2,4.5,3.2,7.5v16.5h-7.3L816.4,633.8L816.4,633.8z M815,629.5c1-1,1.5-2.5,1.5-4.4v-0.8l-6,1.1c-2,0.3-3,1.3-3,3
				c0,1.8,1.2,2.7,3.5,2.7C812.7,631.1,814,630.5,815,629.5z"/>
			<path id="XMLID_1350_" class="st0" d="M838.4,630v6.5h-7.3v-37.9h7.3v22.2l9.5-10.8h8.4l-10,11.4l10.6,15.1h-8.1l-7.1-10.3
				L838.4,630z"/>
			<path id="XMLID_1348_" class="st0" d="M878.2,633.8c-0.2,0.2-0.5,0.5-0.9,0.9s-1.2,0.8-2.6,1.4c-1.3,0.6-2.7,0.9-4.1,0.9
				c-3,0-5.5-1-7.4-3.1s-2.9-4.7-2.9-8.1v-15.9h7.3v15.2c0,1.5,0.5,2.7,1.5,3.7s2.2,1.5,3.7,1.5c1.7,0,3-0.5,4-1.6s1.5-2.6,1.5-4.6
				V610h7.3v26.5h-7.3L878.2,633.8L878.2,633.8z"/>
			<path id="XMLID_1346_" class="st0" d="M900.3,636.5H893v-37.9h7.3V636.5z"/>
			<path id="XMLID_1344_" class="st0" d="M910.9,602.1h6.5v8.4h5.4v6.5h-5.4v10.6c0,0.8,0.3,1.5,0.9,2.1s1.4,0.9,2.3,0.9
				c0.5,0,0.9,0,1.4-0.1s0.8-0.2,1-0.3l0.3-0.1v6.2c-1.4,0.5-3.1,0.8-4.9,0.8c-5.6,0-8.4-3.1-8.4-9.2V617h-4.6v-6.5h2.4
				c0.8,0,1.5-0.3,2.1-1c0.6-0.6,0.9-1.5,0.9-2.5L910.9,602.1L910.9,602.1z"/>
			<path id="XMLID_1341_" class="st0" d="M933.3,625.7c0.3,1.4,1.1,2.7,2.3,3.7c1.3,1,2.8,1.5,4.7,1.5c1.4,0,2.7-0.3,3.8-0.8
				c1.2-0.5,2-1.1,2.5-1.6l0.8-0.8l3.8,4.9l-0.5,0.5c-0.2,0.2-0.7,0.6-1.4,1.1c-0.7,0.5-1.5,1-2.3,1.4s-1.9,0.8-3.2,1.1
				c-1.3,0.3-2.6,0.5-4,0.5c-3.9,0-7.2-1.4-10-4.1s-4.1-6-4.1-9.7c0-3.8,1.4-7,4.1-9.7s6-4.1,9.8-4.1s7,1.3,9.5,3.8s3.8,5.7,3.8,9.5
				l-0.3,3h-19.3V625.7z M935.6,617c-1.1,0.9-1.8,2.1-2.3,3.5h12.2c-0.3-1.4-1-2.6-2-3.5c-1.1-0.9-2.4-1.4-3.9-1.4
				C938,615.7,936.7,616.1,935.6,617z"/>
			<path id="XMLID_1339_" class="st0" d="M961.5,602.1h6.5v8.4h5.4v6.5H968v10.6c0,0.8,0.3,1.5,0.9,2.1s1.4,0.9,2.3,0.9
				c0.5,0,0.9,0,1.4-0.1s0.8-0.2,1-0.3l0.3-0.1v6.2c-1.4,0.5-3.1,0.8-4.9,0.8c-5.6,0-8.4-3.1-8.4-9.2V617H956v-6.5h2.4
				c0.8,0,1.5-0.3,2.1-1c0.6-0.6,0.9-1.5,0.9-2.5L961.5,602.1L961.5,602.1z"/>
			<path id="XMLID_1336_" class="st0" d="M993.7,633.8c-0.2,0.2-0.5,0.5-0.9,0.9s-1.2,0.8-2.5,1.4s-2.6,0.9-4,0.9
				c-2.6,0-4.8-0.7-6.5-2.2s-2.5-3.3-2.5-5.4c0-2.2,0.7-4,2.1-5.4s3.3-2.4,5.8-2.8l8.4-1.5c0-1.1-0.4-2-1.2-2.7
				c-0.8-0.7-1.9-1.1-3.4-1.1c-1.2,0-2.3,0.2-3.3,0.7c-1,0.4-1.7,0.9-2.1,1.4l-0.6,0.6l-4-4c0.1-0.1,0.3-0.3,0.4-0.6
				c0.2-0.2,0.6-0.6,1.2-1.2c0.6-0.6,1.3-1.1,2.1-1.5c0.8-0.4,1.8-0.9,3-1.2c1.2-0.4,2.5-0.6,3.8-0.6c3.4,0,6.1,1,8.2,3
				s3.2,4.5,3.2,7.5v16.5h-7.3v-2.7H993.7z M992.2,629.5c1-1,1.5-2.5,1.5-4.4v-0.8l-6,1.1c-2,0.3-3,1.3-3,3c0,1.8,1.2,2.7,3.5,2.7
				C989.9,631.1,991.3,630.5,992.2,629.5z"/>
		</g>
	</g>
</g>
</svg>
