<?xml version="1.0" encoding="utf-8"?>
<!-- Generator: Adobe Illustrator 19.0.0, SVG Export Plug-In . SVG Version: 6.00 Build 0)  -->
<svg version="1.1" id="Layer_1" xmlns="http://www.w3.org/2000/svg" xmlns:xlink="http://www.w3.org/1999/xlink" x="0px" y="0px"
	 viewBox="0 0 1200 1200" style="enable-background:new 0 0 1200 1200;" xml:space="preserve">
<style type="text/css">
	.st0{fill:#DC080E;}
</style>
<g id="XMLID_108_">
	<g id="XMLID_194_">
		<path id="XMLID_197_" class="st0" d="M130.1,693.1l-0.5-0.6c-30.9-40.8-42.4-56.1-53-49.2c-1.9,1.3-4,3.4-5.5,5.5
			c-2.1,3-2.6,5.8-3.1,8.8c-0.6,3.5-1.4,7.2-4.5,11.4c-1.5,2-3.4,4-5.3,5.3c-8.2,6-19.9,4.9-27.8-2.6c-6.8-6.4-10.8-18.3-4.5-27.6
			c1.6-2.4,3.6-4.2,5.1-5.4c4-3.3,8-4.5,11.5-5.6c3-0.9,5.8-1.8,8.4-3.9c2.1-1.6,3.7-3.7,4.4-5.5c3.5-9.2-14.3-21.2-34.9-35.1
			c-6.2-4.2-12.7-8.6-19.2-13.2L0,574.4l0.9-1.2c4.7-6.4,9-12.9,13.2-19.1c15.2-22.5,27.3-40.4,38.7-36c2.4,0.9,4.8,2.9,6.8,5.4
			c2.3,3,3.4,6.3,4.4,9.4c1.1,3.4,2.2,6.9,5.1,10.5c1,1.2,2.7,3.1,4.7,4.4c7.2,4.8,18.3,3,24.7-3.9c6.5-6.9,7.3-17.6,2-24.9
			c-1.2-1.7-2.9-3.4-4.7-4.7c-3.7-2.7-6.8-3.3-10.2-3.9c-3.1-0.6-6.4-1.2-9.9-3.6c-2.4-1.7-4.8-4-6.2-6.3
			c-7.4-11.3,4.5-20.2,36.1-43.8c4.8-3.6,10.1-7.6,15.9-11.9l1.2-0.9l0.9,1.2c3.9,5.2,7.5,10,10.8,14.4c23.2,31,31.9,42.6,41,36.5
			c1.9-1.3,4-3.4,5.5-5.5c2.1-3,2.6-5.8,3.1-8.7c0.7-3.5,1.3-7.1,4.5-11.3c1.5-2,3.4-3.9,5.3-5.3c8.3-6.1,20-5,27.9,2.4
			c6.8,6.4,10.6,18.4,4.3,27.8c-1.6,2.4-3.6,4.2-5,5.4c-4,3.3-7.9,4.5-11.4,5.5c-2.9,0.9-5.7,1.8-8.4,3.8c-2.1,1.6-3.8,3.7-4.4,5.5
			c-3.5,9,13.8,20.6,33.9,34.1c6.6,4.4,13.3,8.9,20.2,13.9l-1.8,2.4c-6.8-4.9-13.5-9.4-20.1-13.8c-22-14.7-39.4-26.4-35.1-37.6
			c0.9-2.4,2.9-4.8,5.4-6.8c3-2.4,6.2-3.3,9.3-4.3c3.3-1,6.8-2.1,10.4-5c1.8-1.4,3.4-3.1,4.5-4.7c5.2-7.8,2.1-18.3-4-24
			c-6.9-6.5-17-7.4-24.1-2.2c-1.7,1.2-3.4,2.9-4.7,4.7c-2.7,3.7-3.3,6.8-3.9,10.1c-0.6,3.1-1.2,6.4-3.6,9.9c-1.7,2.4-4,4.8-6.3,6.2
			c-11.5,7.6-20.6-4.6-45-37.2c-3-4.1-6.3-8.5-9.9-13.2c-5.3,4-10.2,7.7-14.7,11c-30.1,22.4-41.3,30.8-35.5,39.8
			c1.3,2,3.4,4,5.5,5.5c3,2.1,5.8,2.6,8.8,3.2c3.5,0.7,7.2,1.4,11.4,4.5c2.1,1.5,4,3.4,5.3,5.3c6.2,8.4,5.2,20.8-2.2,28.7
			c-7.5,8-20.1,9.9-28.5,4.3c-2.4-1.6-4.3-3.6-5.4-5c-3.2-4-4.5-8-5.6-11.5c-1-3-1.9-5.8-3.9-8.5c-1.6-2.1-3.7-3.7-5.5-4.4
			c-9.1-3.5-21.2,14.3-35.1,34.9c-3.9,5.8-8.1,11.8-12.4,17.9c6.1,4.3,12,8.4,17.9,12.3c22.6,15.2,40.3,27.3,36,38.7
			c-0.9,2.4-2.8,4.8-5.4,6.8c-3,2.4-6.3,3.4-9.4,4.4c-3.4,1.1-6.9,2.2-10.5,5.1c-1.8,1.4-3.4,3.1-4.4,4.7c-5.3,8-1.9,18.2,4.1,23.8
			c5.9,5.6,16,8.1,24,2.3c1.7-1.2,3.4-2.9,4.7-4.7c2.7-3.6,3.3-6.8,3.9-10.2c0.6-3.1,1.2-6.4,3.6-9.9c1.6-2.3,4-4.7,6.3-6.2
			c12.9-8.5,24.9,7.4,57,49.9l0.5,0.6L130.1,693.1z"/>
		<path id="XMLID_196_" class="st0" d="M352.5,752.7c-7.5-5.6-13.3-2.8-20.2-7.6c-2.1-1.5-4.4-3.7-5.8-5.9
			c-7.6-11.6,10.4-21,51.9-52.3c-4.5-6-8.7-11.4-12.4-16.4c-22.4-29.8-30.7-40.9-39.7-35.1c-2,1.3-4.1,3.4-5.5,5.5
			c-2.1,3-2.6,5.8-3.1,8.8c-0.6,3.6-1.3,7.3-4.4,11.5c-1.5,2-3.4,3.9-5.3,5.3c-8.2,5.9-20.1,4.7-28.2-2.9c-7-6.6-11.1-18.6-4.9-27.9
			c1.6-2.4,3.6-4.3,5-5.4c4.1-3.3,8.1-4.5,11.6-5.5c2.2-0.7,4.3-1.3,6.3-2.4l2.1-1.4c1-0.8,2-1.7,2.9-2.7l1.6-2.7
			c3.5-9.3-14.7-21.6-35.7-35.9c-6.4-4.3-12.9-8.8-19.6-13.6l0.7-1l0,0c-21.3,29.5-37.1,59.8-50.3,54.8c-2.4-0.9-4.6-2.9-6.1-4.9
			c-4.7-6-3.5-12.5-9.3-19.8c-1.3-1.7-3.1-3.4-5.1-4.7c-8.2-5.5-19.5-2.7-26,4.2c-6.5,6.9-8.3,18-2.4,26.1c1.4,1.9,3.2,3.7,5,5
			c7.5,5.6,13.2,2.7,20.1,7.5c2.2,1.5,4.4,3.7,5.9,5.9c7.7,11.8-8.9,21.8-51.5,54.1c32.1,42.5,42,59.4,53.7,51.7
			c2.2-1.4,4.4-3.7,5.9-5.8c4.8-6.9,2.1-12.7,7.7-20.2c1.3-1.8,3.1-3.6,5-5c8.2-6,19.8-4.5,26.8,2.1c7,6.6,9.5,18.4,4,26.7
			c-1.3,1.9-3.1,3.7-4.8,5.1c-7.2,5.8-13.9,4.8-20,9.5c-2,1.6-4,3.9-4.9,6.2c-5.1,13.2,25.2,29,54.6,50.1
			c21.3-29.5,37.1-59.8,50.3-54.8c2.3,0.9,4.6,2.9,6.1,4.9c4.7,6.1,3.7,12.7,9.5,19.9c1.4,1.7,3.1,3.5,5.1,4.7
			c8.1,5.4,19.3,2.5,25.8-4.4c6.5-6.9,8.4-17.9,2.5-26C356.1,755.8,354.3,754,352.5,752.7z"/>
		<path id="XMLID_195_" class="st0" d="M444.2,506.7c0.9-2.3,2.8-4.6,4.9-6.2c6-4.6,12.6-3.4,19.8-9.2c1.7-1.4,3.5-3.1,4.8-5.1
			c5.4-8.2,2.6-19.5-4.3-26.1c-7-6.6-18.2-8.4-26.3-2.5c-1.9,1.4-3.7,3.2-5,5c-5.6,7.5-2.7,13.2-7.4,20.1c-1.5,2.1-3.7,4.4-5.9,5.8
			c-11.8,7.7-22-9-54.6-52c-42.6,32.1-59.5,41.9-51.7,53.7c1.5,2.2,3.7,4.5,6,6c6.9,4.8,12.8,2.1,20.4,7.8c1.8,1.3,3.6,3.1,5.1,5.1
			c6.1,8.3,4.7,19.9-1.9,27c-6.6,7-18.5,9.5-26.8,3.9c-2-1.3-3.8-3.1-5.1-4.8c-5.9-7.3-4.9-14-9.7-20.1c-1.6-2.1-3.9-4.1-6.2-5
			c-13.3-5.1-29,25.2-50.1,54.6l0.1,0.1l0.9-1.2c6.6,4.8,13.1,9.2,19.4,13.5c23,15.7,41.1,28,36.9,39.5c-0.9,2.4-2.9,4.9-5.4,6.8
			c-3.1,2.3-6.3,3.3-9.5,4.3c-3.4,1-7,2.1-10.6,5c-1.8,1.4-3.3,3.1-4.4,4.7c-5.3,8-1.7,18.4,4.4,24.1c6,5.7,16.4,8.4,24.4,2.6
			c1.7-1.2,3.3-2.9,4.7-4.7c2.8-3.6,3.3-6.8,3.9-10.2c0.6-3.2,1.1-6.5,3.6-10c1.6-2.4,4-4.8,6.3-6.2c11.3-7.4,20.1,4.4,43.7,35.8
			c3.6,4.8,7.7,10.2,12.1,16c41.7-31.3,58.5-40.7,50.8-52.4c-1.4-2.2-3.7-4.4-5.9-5.9c-7-4.8-12.8-2.1-20.4-7.8
			c-1.8-1.3-3.6-3.1-5.1-5.1c-6.1-8.3-4.7-19.9,1.9-27c6.6-7.1,18.4-9.5,26.7-3.9c2,1.3,3.8,3.1,5.2,4.8c5.9,7.3,5,14,9.7,20.1
			c1.6,2.1,3.9,4.1,6.2,5c13.3,5.1,28.7-25.6,49.9-55C469.7,536,439.2,519.9,444.2,506.7z"/>
	</g>
	<g id="XMLID_161_">
		<path id="XMLID_193_" class="st0" d="M542.8,678.1c-13.5,0-22.6,8.1-22.6,18.9c0,9.9,7,15.8,18.5,19.8c9.5,3.6,13.2,7.4,13.2,13.9
			c0,7-5.4,11.9-14.6,11.9c-6.2,0-12.1-2.1-16.2-4.5l-2.3,7.6c3.7,2.5,11.1,4.6,17.9,4.6c16.5,0,24.5-9.5,24.5-20.2
			c0-10.3-6-16-17.9-20.5c-9.6-3.7-13.9-6.9-13.9-13.5c0-4.8,3.6-10.5,13.1-10.5c6.3,0,11,2.1,13.3,3.3l2.5-7.4
			C555.2,679.7,550,678.1,542.8,678.1"/>
		<path id="XMLID_190_" class="st0" d="M594.6,743.4c-8.9,0-15.3-8.3-15.3-19.3c0-9.5,4.7-19.5,15.5-19.5c10.8,0,15,10.8,15,19.3
			C609.8,735.2,603.3,743.4,594.6,743.4 M595,697.7c-13.9,0-24.9,9.8-24.9,26.6c0,15.9,10.5,25.9,24.1,25.9c12.1,0,25-8.1,25-26.7
			C619.2,708.2,609.4,697.7,595,697.7"/>
		<path id="XMLID_189_" class="st0" d="M649.7,674.3c-4.3,0-8.8,1.3-12.2,4.7c-4.3,4.1-5.9,10.5-5.9,17.5v2.4h-7v6.9h7v43.2h9v-43.2
			h12.2v-6.9h-12.2v-2.7c0-7.7,2-14.5,9.8-14.5c2.5,0,4.4,0.6,5.8,1.2l1.3-7.1C655.7,675,652.9,674.3,649.7,674.3"/>
		<path id="XMLID_188_" class="st0" d="M673.1,686.8l-8.9,2.8v9.2h-7.8v6.9h7.8v27.4c0,5.9,0.9,10.4,3.5,13.1c2.2,2.5,5.6,4,9.9,4
			c3.5,0,6.3-0.6,8.1-1.4l-0.4-6.9c-1.4,0.4-2.8,0.6-5.3,0.6c-5.1,0-6.8-3.5-6.8-9.7v-27.1h13.1v-6.9h-13.1V686.8"/>
		<path id="XMLID_187_" class="st0" d="M764.6,698.9h-9l-7.1,25.2c-1.7,5.9-3,11.2-3.9,16.3h-0.3c-1.1-5.1-2.6-10.4-4.5-16.4
			l-7.8-25.1h-7.7l-8.2,25.5c-1.6,5.5-3.3,10.9-4.4,16h-0.3c-0.9-5.2-2.3-10.4-3.7-16l-6.6-25.5h-9.4l15.2,50.2h8.3l8.1-23.9
			c1.8-5.4,3.3-10.5,4.6-16.6h0.2c1.3,5.9,2.7,10.9,4.5,16.5l7.6,23.9h8.3L764.6,698.9"/>
		<path id="XMLID_184_" class="st0" d="M787.1,743.5c-4.7,0-8.6-2.8-8.6-8.7c0-9.3,10.3-11.3,19.8-11.3l1.4,0v8.7l-0.5,2.9
			C797.7,739.4,793.6,743.5,787.1,743.5 M789.5,697.7c-6.3,0-12.4,1.8-16.5,4.4l2.1,6c3.5-2.3,8.4-3.7,13.1-3.7
			c10.3,0,11.4,7.5,11.4,11.6v1H799c-19.1,0-29.7,6.6-29.7,18.7c0,7.3,5.2,14.4,15.4,14.4c7.1,0,12.5-3.5,15.3-7.5h0.3l0.7,6.3h8.3
			c-0.6-3.4-0.8-7.7-0.8-12v-18.8C808.6,708.2,804.8,697.7,789.5,697.7"/>
		<path id="XMLID_183_" class="st0" d="M845.5,697.7c-6.1,0-11.6,4.2-13.9,11h-0.4l-0.3-9.8h-8c0.3,4.7,0.4,9.7,0.4,15.7v34.5h9
			v-26.7c0-1.6,0.2-3,0.4-4.3c1.2-6.8,5.8-11.7,12.2-11.7c1.3,0,2.2,0.1,3.1,0.3v-8.6C847.2,697.9,846.5,697.7,845.5,697.7"/>
		<path id="XMLID_180_" class="st0" d="M861.3,719.1c0.7-6.3,4.8-14.8,14-14.8c10.3,0,12.7,9,12.7,14.8H861.3 M876,697.7
			c-14.6,0-23.6,11.9-23.6,27.1c0,15.1,9.3,25.4,24.7,25.4c8,0,13.5-1.8,16.7-3.2l-1.6-6.5c-3.4,1.4-7.4,2.6-13.9,2.6
			c-9.1,0-17.1-5.1-17.2-17.4h35.2c0.1-1,0.3-2.4,0.3-4.2C896.8,712.1,892.4,697.7,876,697.7"/>
		<path id="XMLID_175_" class="st0" d="M1171.4,480.8v-7l3.1-0.3c3.6,0,5.2,1.5,5.2,3.7c0,2.6-2.5,3.5-5.7,3.5H1171.4 M1174.9,469.4
			c-4.1,0-7.1,0.4-9.4,0.9v24.2h5.7v-9.7h2.6c3.3,0,4.7,1.2,5,3.8c0.9,2.8,1.3,4.9,2,5.9h6.1c-0.6-0.8-1-2.2-1.8-6
			c-0.7-3.3-2.1-5.3-4.5-6v-0.3c3-0.9,5.1-2.9,5.1-5.8c0-2.1-1.1-4.1-2.3-5.1C1181.5,470.2,1179.5,469.4,1174.9,469.4 M1175.4,501.3
			h-0.2c-11,0-19-8.6-19-19.4c0-10.7,8.1-19.5,18.7-19.5h0.2c10.8,0,18.6,8.8,18.6,19.5C1193.7,492.6,1186,501.3,1175.4,501.3
			 M1175.2,457.5h-0.1c-14,0-25.1,10.8-25.1,24.4c0,13.7,11.1,24.4,25.1,24.4c14.1,0,24.9-10.7,24.9-24.4
			C1200,468.4,1189.2,457.5,1175.2,457.5"/>
		<path id="XMLID_172_" class="st0" d="M573.5,558.6c-6.2,0-11.2-0.2-14.8-1.2v-56.5c3.2-0.7,9.2-1.5,17.5-1.5
			c21.1,0,34,9.9,34,28.5C610.1,547.5,596.2,558.6,573.5,558.6 M574.9,476.1c-20.5,0-35.7,1.5-46.6,3.5v164.7h30.2v-62.9
			c4,0.7,9.2,1,14.8,1c21.6,0,40.7-5.7,52.8-17.8c9.3-8.9,14.4-22.1,14.4-37.9c0-15.6-6.4-28.7-16.4-36.9
			C613.6,480.8,597.2,476.1,574.9,476.1"/>
		<polyline id="XMLID_171_" class="st0" points="931.6,477.3 814.2,477.3 814.2,502.7 892,502.7 892,503.4 806.5,627.5 806.5,644.3 
			932.9,644.3 932.9,619.1 847.4,619.1 847.4,618.1 931.6,495.2 931.6,477.3 		"/>
		<polyline id="XMLID_170_" class="st0" points="1037.1,564.4 919.6,564.4 919.6,589.7 997.5,589.7 997.5,590.5 911.9,714.6 
			911.9,731.4 1038.3,731.4 1038.3,706.2 952.8,706.2 952.8,705.2 1037.1,582.3 1037.1,564.4 		"/>
		<polyline id="XMLID_169_" class="st0" points="991.2,386.7 963.6,386.7 963.6,538.5 1053.6,538.5 1053.6,515.3 991.2,515.3 
			991.2,386.7 		"/>
		<polyline id="XMLID_168_" class="st0" points="1099.9,528.8 1019,658.1 1097,706.9 1109.1,687.5 1054.7,653.5 1078.4,615.5 
			1127.2,645.9 1139.1,626.8 1090.4,596.3 1111.3,562.9 1162.9,595.1 1175,575.8 1099.9,528.8 		"/>
		<path id="XMLID_167_" class="st0" d="M787.3,481.9h-30.4v97.4c0,32.7-13.1,47.9-35.2,47.9c-20.5,0-34.2-15.1-34.2-47.9v-97.4
			h-30.5v95.6c0,52.6,25.1,74.1,63.7,74.1c40.2,0,66.6-22.8,66.6-74.3V481.9"/>
	</g>
</g>
</svg>
