<?xml version="1.0" encoding="utf-8"?>
<!-- Generator: Adobe Illustrator 19.0.0, SVG Export Plug-In . SVG Version: 6.00 Build 0)  -->
<svg version="1.1" id="Layer_1" xmlns="http://www.w3.org/2000/svg" xmlns:xlink="http://www.w3.org/1999/xlink" x="0px" y="0px"
	 viewBox="0 0 1200 1200" style="enable-background:new 0 0 1200 1200;" xml:space="preserve">
<style type="text/css">
	.st0{fill:#DC080E;}
</style>
<g id="Layer_x0020_1">
	<g id="_51804264">
		<g id="XMLID_57_">
			<path id="_51493040" class="st0" d="M517.6,511.7c-48.7-83.2,5-175.2,117-206.6c108.9-29.9,234.2,8.1,284.9,85.3
				c14.6,22.3,23,44.2,25.2,65c5.6-3.7,8.3-5.7,14.4-10c31.4-22.2,56-37.6,75.5-69c32.4-52.2,14.1-102-14.5-143.5
				c-41.4-60.2-149.2-97.3-293.7-104.9c-103.9-10.7-230.1-1.3-363.5,31.7c-87.7,21.7-149,43.7-225.9,75.2
				c-5.6,0.9-29.6,13.7-49.1,0.7c-4.9-3-7.4-8.9-6.5-13.2c0.4-11.2,17.8-20.9,20.6-21.6c81.9-33.5,140.5-54.4,237.5-77.8
				c379.6-91.7,743.9-58,834.9,69c66.2,92.4-20.3,226.5-237,346.9c-19.8,11.2-47.1,22.7-47.1,22.7s-14.3,5.2-21.9,0
				c-8.7-6.5-9.2-17.1-3.6-37.3c2.4-26.9-3.7-44.2-16-65.7C835.1,435,815.5,416,788.8,405c-30-14.2-64-15.7-96.1-6.5
				c-32.2,9.6-54.7,28-61,53.3c-7.3,21.6-0.9,45.3,15.2,69.3c14.6,21.5,29.4,35.5,59.7,53.8c25.6,10.6,36.5,18,37.3,27.2
				c0.3,11-14.2,10.9-28.7,10.9C629.2,615.5,556.8,578.6,517.6,511.7L517.6,511.7z"/>
			<path id="_51449640" class="st0" d="M690.1,191.9c-8-5.8-23.1-5.8-25-5.3c-64.1,6.8-109.3,13.6-178.5,31.6
				c-304.2,79-531.1,248.4-470.9,367.3c43.6,86.2,233.5,119.9,472,84.9c26.6-3.8,43-7.9,51.7-14.3c6.2-4.4,9-10.1,7.7-14.4
				c0.2-6-5.5-10.3-6.4-11c-3.9-3.1-10.9-6-21.4-5c-156.8,15-277.5-21.4-318-96.6c-55.2-102.6,79.9-224.2,301.3-282.7
				c62.6-16.5,109.9-24,170-31c2.4,0.4,24.9-1.7,22.8-15C695.8,197.4,693.6,194,690.1,191.9L690.1,191.9z"/>
		</g>
		<g id="XMLID_39_">
			<path id="_51445408" class="st0" d="M40.5,1125.7v-3.8c0-1-0.5-1.5-1.4-1.5c0,0-0.1,0-0.2,0s-0.1,0-0.2,0c-1.7,0.2-4,0.3-6.7,0.5
				c-2.8,0.2-5.5,0.3-8.1,0.3c-4.5,0.1-8.2-1.5-11.1-4.7c-2.9-3.2-4.4-8.7-4.5-16.4v-12.9c0.1-7.8,1.6-13.3,4.5-16.5
				c2.9-3.2,6.6-4.7,11.1-4.6c2.7,0,5.5,0.1,8.3,0.3c2.8,0.2,5.1,0.4,6.8,0.5c0.1,0,0.2,0,0.3,0c0.4,0,0.7-0.1,0.9-0.3
				c0.1-0.2,0.2-0.4,0.2-0.7v-4.7c0-0.4-0.1-0.7-0.4-0.9c-0.3-0.2-0.6-0.3-1-0.3c-2-0.3-4.3-0.7-6.9-1c-2.6-0.3-5.3-0.5-8.2-0.5
				c-3.8-0.1-7.5,0.7-11.1,2.4c-3.6,1.7-6.6,4.6-9,8.8s-3.6,10.1-3.7,17.6v12.9c0.1,7.5,1.3,13.3,3.7,17.5c2.4,4.2,5.4,7.1,9,8.8
				c3.6,1.7,7.3,2.5,11.1,2.4c3.7,0,6.7-0.1,8.9-0.3c2.2-0.2,4.2-0.5,6-0.9c0.5-0.1,0.9-0.3,1.3-0.6
				C40.3,1126.7,40.5,1126.3,40.5,1125.7L40.5,1125.7z"/>
			<path id="_51445080" class="st0" d="M100.1,1099.6v-12c-0.1-10.3-2.4-17.7-6.9-22.4c-4.4-4.6-10.3-6.9-17.5-6.9
				c-7.2-0.1-13,2.2-17.5,6.9c-4.5,4.6-6.8,12.1-6.9,22.4v12c0.1,10.3,2.4,17.7,6.9,22.4c4.5,4.6,10.3,6.9,17.5,6.9
				c7.2,0.1,13-2.2,17.5-6.9C97.7,1117.3,100,1109.8,100.1,1099.6z M91.9,1099.6c-0.1,7.7-1.5,13.3-4.3,16.7
				c-2.8,3.4-6.7,5-11.7,4.9c-5,0.1-8.9-1.6-11.8-4.9c-2.8-3.4-4.3-8.9-4.3-16.7v-12c0.1-7.7,1.5-13.3,4.4-16.7
				c2.9-3.4,6.8-5,11.8-4.9c5-0.1,8.9,1.6,11.7,4.9c2.8,3.4,4.3,8.9,4.3,16.7V1099.6z"/>
			<path id="_51443200" class="st0" d="M169.6,1126.3v-60.7c0-3-0.6-4.9-1.7-5.6c-1.1-0.8-2.6-1.1-4.4-1h-3.3
				c-1.8-0.1-3.2,0.4-4.1,1.2c-0.9,0.9-1.8,2.5-2.7,5l-10.5,28.3c-0.1,0.4-0.2,0.6-0.3,0.7c-0.1,0.1-0.2,0.1-0.3,0.1
				c-0.1,0-0.2,0-0.3-0.1c-0.1-0.1-0.2-0.3-0.3-0.7l-10.5-28.3c-0.9-2.5-1.7-4.1-2.6-5c-0.9-0.9-2.3-1.3-4.2-1.2h-3.3
				c-1.8-0.1-3.2,0.2-4.4,1c-1.1,0.8-1.7,2.6-1.7,5.6v60.7c0,0.6,0.1,1,0.4,1.3c0.3,0.3,0.6,0.5,1.1,0.5h4.9c0.4,0,0.7-0.1,1-0.4
				c0.3-0.3,0.5-0.7,0.5-1.2v-58.5c0-0.4,0.1-0.7,0.2-0.9c0.1-0.1,0.3-0.2,0.5-0.2c0.2,0,0.3,0.1,0.5,0.2c0.1,0.1,0.3,0.4,0.4,0.8
				l11.2,29.6c0.4,1.2,1,2.1,1.6,2.8c0.6,0.6,1.5,1,2.7,1h4.7c1.1,0,2-0.3,2.7-1c0.6-0.6,1.2-1.6,1.6-2.8l11.2-29.6
				c0.1-0.4,0.3-0.7,0.4-0.8c0.1-0.1,0.3-0.2,0.5-0.2c0.2,0,0.3,0,0.5,0.2c0.1,0.1,0.2,0.4,0.2,0.9v58.5c0,0.5,0.2,0.9,0.5,1.2
				c0.3,0.3,0.7,0.4,1,0.4h4.9c0.5,0,0.9-0.2,1.1-0.5C169.4,1127.3,169.6,1126.9,169.6,1126.3L169.6,1126.3z"/>
			<path id="_51440808" class="st0" d="M228.3,1079.8v-1.2c-0.1-7.4-2.5-12.6-7.1-15.7c-4.6-3.1-10.6-4.6-18.1-4.5
				c-2.7,0-5.3,0.1-8,0.2c-2.7,0.1-5,0.3-7,0.5c-0.7,0.1-1.2,0.3-1.6,0.7c-0.4,0.4-0.6,0.9-0.6,1.6v64.9c0,0.5,0.2,1,0.5,1.3
				c0.3,0.3,0.7,0.5,1.1,0.5h4.9c0.5,0,0.9-0.2,1.2-0.6c0.3-0.4,0.4-0.8,0.4-1.3v-26.2c1.2,0.1,2.7,0.2,4.3,0.3
				c1.6,0.1,3.2,0.2,4.7,0.2c7.4,0.1,13.5-1.4,18.1-4.6C225.8,1092.8,228.1,1087.4,228.3,1079.8L228.3,1079.8z M220.1,1079.8
				c0.1,4.8-1.2,8.3-3.9,10.5c-2.7,2.2-7,3.3-13.1,3.3c-1.3,0-2.8-0.1-4.6-0.2c-1.8-0.1-3.3-0.2-4.4-0.2v-27.3
				c1.1-0.1,2.6-0.2,4.3-0.3c1.7-0.1,3.3-0.1,4.7-0.1c5.8,0,10.1,1,12.9,3c2.8,2,4.2,5.4,4.2,10V1079.8L220.1,1079.8z"/>
			<path id="_51437768" class="st0" d="M287.3,1124.8v-64c0-0.5-0.2-1-0.4-1.3c-0.3-0.3-0.7-0.5-1.2-0.5h-4.9
				c-0.5,0-0.9,0.2-1.2,0.6c-0.3,0.4-0.4,0.8-0.4,1.3v60c-0.8,0.1-2,0.1-3.6,0.2c-1.6,0.1-3.3,0.2-5.1,0.2c-1.8,0.1-3.3,0.1-4.7,0.1
				c-3.7,0.1-6.8-0.4-9.3-1.4c-2.5-1-4.3-2.9-5.5-5.8c-1.2-2.8-1.8-6.9-1.8-12.2v-41.1c0-0.5-0.2-1-0.4-1.3
				c-0.3-0.3-0.6-0.5-1.1-0.5h-5c-0.5,0-0.9,0.2-1.2,0.6c-0.3,0.4-0.4,0.8-0.4,1.3v41.1c0,6.8,0.9,12.2,2.8,16.1
				c1.8,3.9,4.6,6.7,8.2,8.4c3.6,1.6,8.2,2.4,13.6,2.4c1.6,0,3.6,0,6-0.1c2.4-0.1,4.8-0.2,7.2-0.4c2.4-0.2,4.4-0.4,6.1-0.6
				c0.9-0.1,1.5-0.3,1.9-0.7C287.1,1126.7,287.3,1125.9,287.3,1124.8L287.3,1124.8z"/>
			<path id="_51433584" class="st0" d="M346.6,1064.8v-4.1c0-0.5-0.2-0.9-0.5-1.2c-0.3-0.3-0.7-0.4-1.2-0.5h-43.3
				c-0.5,0-0.9,0.2-1.3,0.5c-0.3,0.3-0.5,0.7-0.5,1.2v4.1c0,0.5,0.2,0.9,0.5,1.1c0.3,0.2,0.8,0.4,1.3,0.4h17.6v60
				c0,0.5,0.2,1,0.5,1.3c0.3,0.3,0.7,0.5,1.1,0.5h4.9c0.5,0,0.9-0.2,1.2-0.6c0.3-0.4,0.4-0.8,0.4-1.3v-60h17.6
				c0.5,0,0.9-0.1,1.2-0.4C346.4,1065.6,346.6,1065.2,346.6,1064.8L346.6,1064.8z"/>
			<path id="_51434104" class="st0" d="M396.8,1127v-4.7c0-0.3-0.1-0.6-0.3-0.8s-0.4-0.3-0.7-0.3h-17.4c-4.6,0-7.7-0.7-9.1-2.2
				c-1.4-1.5-2.1-4-2-7.5v-15.6H395c0.5,0,0.9-0.2,1.3-0.5c0.3-0.4,0.5-0.8,0.5-1.3l0-3.5c0-0.5-0.2-1-0.5-1.3
				c-0.3-0.4-0.8-0.5-1.3-0.5h-27.7v-12.9c-0.1-3.5,0.5-6,2-7.5c1.4-1.5,4.5-2.2,9.1-2.2h17.4c0.3,0,0.6-0.1,0.7-0.3
				c0.2-0.2,0.3-0.5,0.3-0.8l0-4.6c0-0.3-0.1-0.6-0.2-0.8c-0.2-0.3-0.4-0.4-0.7-0.5c-1.3-0.1-3-0.2-5.1-0.3
				c-2.1-0.1-4.2-0.1-6.4-0.2c-2.2,0-4.3-0.1-6.1-0.1c-6.3-0.1-11.1,1.3-14.3,4c-3.2,2.7-4.8,7.2-4.9,13.3v35.8
				c0,6.1,1.6,10.6,4.9,13.3c3.2,2.7,8,4.1,14.3,4c1.8,0,3.9,0,6.2,0s4.4-0.1,6.5-0.1c2.1-0.1,3.7-0.2,4.9-0.3
				c0.3-0.1,0.5-0.2,0.7-0.5C396.7,1127.6,396.8,1127.3,396.8,1127L396.8,1127z"/>
			<path id="_51421984" class="st0" d="M457.1,1127.2c0-0.3-0.1-0.6-0.3-0.8l-16.6-28.6c4.2-1.1,7.6-3.2,10.1-6.3
				c2.6-3.1,3.9-7.3,4-12.5v-0.7c0-5-1.2-9-3.4-11.9c-2.2-2.9-5.2-5-9-6.3c-3.8-1.3-8.1-1.9-12.9-1.8c-2.7,0-5.5,0.1-8.4,0.2
				c-2.9,0.1-5.4,0.3-7.4,0.5c-0.8,0.1-1.4,0.3-1.7,0.6c-0.3,0.3-0.5,0.8-0.5,1.4v65.2c0,0.5,0.2,1,0.5,1.3c0.3,0.3,0.7,0.5,1.1,0.5
				h4.9c0.5,0,0.9-0.2,1.2-0.6c0.3-0.4,0.4-0.8,0.4-1.3v-27.4c1.2,0.1,2.8,0.1,4.7,0.2c1.9,0.1,3.7,0.1,5.2,0.1c0.3,0,0.5,0,0.8,0
				s0.5,0,0.8,0c0.3,0,0.5,0,0.8,0l16.1,27.7c0.3,0.6,0.6,0.9,0.9,1.1c0.2,0.1,0.6,0.2,1.1,0.2h6.3c0.4,0,0.7-0.1,0.9-0.3
				S457.1,1127.5,457.1,1127.2L457.1,1127.2z M446.3,1079c0,4.9-1.5,8.4-4.4,10.2c-2.9,1.9-7.2,2.8-12.7,2.7c-0.7,0-1.8,0-3.1,0
				c-1.3,0-2.6-0.1-3.9-0.1c-1.3,0-2.3,0-3,0v-25.5c1.2-0.1,2.8-0.2,4.7-0.2c2,0,3.7,0,5.2,0c5.6-0.1,9.9,0.8,12.8,2.7
				c2.9,1.9,4.3,5.1,4.3,9.7V1079L446.3,1079z"/>
			<path id="_51423264" class="st0" d="M549.9,1109.1v-1.6c0-3.6-0.9-6.8-2.7-9.4c-1.8-2.6-4.2-4.5-7.3-5.7c3.1-1.2,5.5-3.1,7.1-5.6
				c1.7-2.5,2.5-5.5,2.5-9v-1.5c-0.1-4.6-1.3-8.3-3.7-10.9c-2.4-2.6-5.6-4.5-9.5-5.5c-4-1.1-8.4-1.6-13.2-1.5c-3,0-5.7,0.1-8.2,0.2
				c-2.5,0.1-4.6,0.3-6.1,0.5c-1.9,0.2-2.9,1.3-2.9,3.4v62c0,1.1,0.2,2,0.7,2.5c0.5,0.5,1.2,0.8,2.3,1c1.7,0.3,3.9,0.5,6.4,0.6
				c2.5,0.1,5.3,0.2,8.3,0.2c4.8,0,9.1-0.5,13.1-1.6c4-1.1,7.1-3.1,9.5-6C548.6,1118.3,549.8,1114.2,549.9,1109.1L549.9,1109.1z
				 M541.3,1077.8c0.1,3-0.8,5.6-2.7,7.7c-1.9,2.1-5.4,3.2-10.5,3.3h-13.9v-23.1c1.3-0.1,2.7-0.1,4.3-0.2c1.6-0.1,3.1-0.1,4.7-0.1
				c5.6-0.1,10,0.6,13.2,2c3.2,1.5,4.9,4.4,5,8.7V1077.8z M541.7,1109.1c-0.1,4.9-1.7,8.3-4.9,10.1c-3.2,1.8-7.6,2.6-13.2,2.5
				c-1.6,0-3.2-0.1-4.8-0.2c-1.6-0.1-3.1-0.2-4.6-0.2v-25.6h13.9c5.2,0.1,8.8,1.3,10.8,3.6c2,2.3,2.9,5,2.8,8.2L541.7,1109.1
				L541.7,1109.1z"/>
			<path id="_51423056" class="st0" d="M607.7,1126.3v-48.7c0-7-1.6-12-4.9-15c-3.2-2.9-8.1-4.4-14.5-4.3h-5.2
				c-6.5-0.1-11.3,1.3-14.5,4.3c-3.2,2.9-4.8,7.9-4.8,15v48.7c0,0.5,0.2,0.9,0.5,1.3c0.3,0.4,0.7,0.6,1.1,0.6h4.9
				c0.5,0,0.9-0.2,1.2-0.6c0.3-0.4,0.4-0.8,0.4-1.3v-27.6h27.6v27.6c0,0.5,0.2,1,0.5,1.3c0.3,0.3,0.7,0.5,1.1,0.5h4.9
				c0.5,0,0.8-0.2,1.1-0.6C607.5,1127.2,607.7,1126.8,607.7,1126.3L607.7,1126.3z M599.5,1091.3h-27.6v-13.7c0-4.7,0.8-7.9,2.5-9.5
				c1.7-1.6,4.6-2.4,8.7-2.3h5.2c4.1-0.1,6.9,0.6,8.7,2.3c1.7,1.6,2.6,4.8,2.5,9.5L599.5,1091.3L599.5,1091.3z"/>
			<path id="_51421152" class="st0" d="M662,1110.2c0.1-3.6-1-6.9-3.2-9.9c-2.2-2.9-5.8-6-11-9.1l-8.3-5.1c-3.4-2.1-5.9-3.9-7.5-5.6
				c-1.6-1.7-2.4-3.6-2.3-5.7c0-3.3,1-5.7,3.1-7c2.1-1.3,5.5-1.9,10.1-1.9c2.7,0,5.4,0.1,8.2,0.2c2.8,0.1,5.2,0.2,7.3,0.4
				c0,0,0.1,0,0.1,0s0,0,0.1,0c0.5,0,0.8-0.1,1.1-0.4c0.3-0.3,0.4-0.6,0.4-1.1v-4c0-0.5-0.2-0.8-0.4-1.1c-0.3-0.3-0.6-0.4-1.1-0.5
				c-1.8-0.3-4.2-0.5-7.1-0.8c-2.9-0.2-5.8-0.3-8.5-0.3c-6.9,0-12.2,1.3-15.9,4c-3.7,2.7-5.6,6.8-5.6,12.5c0,3.7,1,6.8,3.1,9.5
				c2.1,2.7,5.2,5.3,9.3,7.9l8.7,5.5c4,2.5,6.9,4.7,8.5,6.4c1.6,1.8,2.4,3.8,2.3,6c0.1,3.3-0.8,6-2.8,7.9c-2,2-5.6,3-10.9,3
				c-2.2,0-4.7,0-7.4-0.1c-2.8-0.1-5.3-0.2-7.4-0.4c-0.1,0-0.2,0-0.3,0c-0.4,0-0.8,0.1-1.1,0.4c-0.3,0.2-0.4,0.6-0.5,1.1v3.7
				c0,0.5,0.1,0.9,0.3,1.1c0.2,0.2,0.7,0.4,1.4,0.6c2,0.3,4.2,0.6,6.6,0.9c2.4,0.3,5.2,0.4,8.4,0.4c5.9-0.1,10.4-1,13.7-2.8
				c3.2-1.8,5.5-4.2,6.8-7C661.4,1116.2,662,1113.2,662,1110.2L662,1110.2z"/>
			<path id="_51104296" class="st0" d="M713.4,1127v-4.7c0-0.3-0.1-0.6-0.3-0.8c-0.2-0.2-0.4-0.3-0.7-0.3H695
				c-4.6,0-7.7-0.7-9.1-2.2c-1.4-1.5-2.1-4-2-7.5v-15.6h27.7c0.5,0,0.9-0.2,1.3-0.5c0.3-0.4,0.5-0.8,0.5-1.3v-3.5
				c0-0.5-0.2-1-0.5-1.3c-0.3-0.4-0.8-0.5-1.3-0.5h-27.7v-12.9c-0.1-3.5,0.5-6,2-7.5c1.4-1.5,4.5-2.2,9.1-2.2h17.4
				c0.3,0,0.6-0.1,0.7-0.3c0.2-0.2,0.3-0.5,0.3-0.8v-4.6c0-0.3-0.1-0.6-0.2-0.8c-0.2-0.3-0.4-0.4-0.7-0.5c-1.3-0.1-3-0.2-5.1-0.3
				c-2.1-0.1-4.2-0.1-6.4-0.2c-2.2,0-4.3-0.1-6.1-0.1c-6.3-0.1-11.1,1.3-14.3,4c-3.2,2.7-4.9,7.2-4.9,13.3l0,35.8
				c0,6.1,1.6,10.6,4.9,13.3c3.2,2.7,8,4.1,14.3,4c1.8,0,3.9,0,6.2,0c2.3,0,4.4-0.1,6.5-0.1c2.1-0.1,3.7-0.2,4.9-0.3
				c0.3-0.1,0.5-0.2,0.7-0.5C713.3,1127.6,713.4,1127.3,713.4,1127L713.4,1127z"/>
			<path id="_51105176" class="st0" d="M773.3,1099.9v-12.6c-0.1-10-2.6-17.3-7.4-22c-4.8-4.7-11.5-7-19.9-6.9
				c-3.5,0-6.8,0.1-9.8,0.3c-3,0.2-5.2,0.4-6.6,0.6c-0.6,0.1-1.1,0.3-1.4,0.7c-0.3,0.4-0.5,0.9-0.5,1.6v63.9c0,0.7,0.2,1.2,0.5,1.6
				c0.3,0.4,0.8,0.6,1.4,0.7c1.4,0.2,3.6,0.5,6.6,0.6c3,0.2,6.3,0.3,9.8,0.3c8.4,0,15.1-2.3,19.9-7
				C770.7,1117.1,773.2,1109.8,773.3,1099.9z M765.1,1099.9c-0.1,8.2-2,13.9-5.5,17.1c-3.5,3.2-8.1,4.7-13.6,4.6c-2.1,0-3.9,0-5.5,0
				c-1.6,0-3.1-0.1-4.5-0.2v-55.5c1.5-0.1,3-0.2,4.5-0.2c1.6,0,3.4-0.1,5.5-0.1c5.5-0.1,10.1,1.4,13.6,4.5c3.5,3.2,5.4,8.9,5.5,17.2
				V1099.9L765.1,1099.9z"/>
			<path id="_51100864" class="st0" d="M862,1110.2c0.1-3.6-1-6.9-3.2-9.9c-2.2-2.9-5.8-6-11-9.1l-8.3-5.1c-3.4-2.1-5.9-3.9-7.5-5.6
				c-1.6-1.7-2.4-3.6-2.3-5.7c0-3.3,1-5.7,3.1-7c2.1-1.3,5.5-1.9,10.1-1.9c2.7,0,5.4,0.1,8.2,0.2c2.8,0.1,5.2,0.2,7.3,0.4
				c0,0,0.1,0,0.1,0s0,0,0.1,0c0.5,0,0.8-0.1,1.1-0.4c0.3-0.3,0.4-0.6,0.4-1.1v-4c0-0.5-0.2-0.8-0.4-1.1c-0.3-0.3-0.6-0.4-1.1-0.5
				c-1.8-0.3-4.2-0.5-7.1-0.8c-2.9-0.2-5.8-0.3-8.5-0.3c-6.9,0-12.2,1.3-15.9,4c-3.7,2.7-5.6,6.8-5.6,12.5c0,3.7,1,6.8,3.1,9.5
				c2.1,2.7,5.2,5.3,9.3,7.9l8.7,5.5c4,2.5,6.9,4.7,8.5,6.4c1.6,1.8,2.4,3.8,2.3,6c0.1,3.3-0.8,6-2.8,7.9c-2,2-5.6,3-10.9,3
				c-2.2,0-4.7,0-7.4-0.1c-2.8-0.1-5.3-0.2-7.4-0.4c-0.1,0-0.2,0-0.3,0c-0.4,0-0.8,0.1-1.1,0.4c-0.3,0.2-0.4,0.6-0.5,1.1v3.7
				c0,0.5,0.1,0.9,0.3,1.1c0.2,0.2,0.7,0.4,1.4,0.6c2,0.3,4.2,0.6,6.6,0.9c2.4,0.3,5.2,0.4,8.4,0.4c5.9-0.1,10.4-1,13.7-2.8
				c3.2-1.8,5.5-4.2,6.8-7C861.5,1116.2,862.1,1113.2,862,1110.2L862,1110.2z"/>
			<path id="_51100584" class="st0" d="M918.8,1060.3c0-0.4-0.2-0.7-0.4-1c-0.3-0.2-0.6-0.3-1.1-0.3h-5.6c-0.4,0-0.7,0.1-0.9,0.4
				c-0.3,0.3-0.5,0.6-0.6,0.9l-14.6,31.6l-14.6-31.6c-0.1-0.3-0.4-0.6-0.6-0.9c-0.3-0.3-0.6-0.4-0.9-0.4h-5.7
				c-0.5,0-0.8,0.1-1.1,0.3c-0.3,0.2-0.4,0.5-0.4,0.9c0,0.3,0.1,0.6,0.3,1.1l18.8,38.7v26.3c0,0.5,0.1,1,0.4,1.3
				c0.3,0.3,0.6,0.5,1.1,0.5h5.1c0.5,0,0.9-0.2,1.2-0.6c0.3-0.4,0.4-0.8,0.4-1.3V1100l18.8-38.7
				C918.8,1060.9,918.8,1060.6,918.8,1060.3L918.8,1060.3z"/>
			<path id="_51098680" class="st0" d="M969.7,1110.2c0.1-3.6-1-6.9-3.2-9.9c-2.2-2.9-5.8-6-11-9.1l-8.3-5.1
				c-3.4-2.1-5.9-3.9-7.5-5.6c-1.6-1.7-2.4-3.6-2.3-5.7c0-3.3,1-5.7,3.1-7c2.1-1.3,5.5-1.9,10.1-1.9c2.7,0,5.4,0.1,8.2,0.2
				c2.8,0.1,5.2,0.2,7.3,0.4c0,0,0.1,0,0.1,0c0,0,0,0,0.1,0c0.5,0,0.8-0.1,1.1-0.4c0.3-0.3,0.4-0.6,0.4-1.1v-4
				c0-0.5-0.1-0.8-0.4-1.1c-0.3-0.3-0.6-0.4-1.1-0.5c-1.8-0.3-4.2-0.5-7.1-0.8c-2.9-0.2-5.8-0.3-8.6-0.3c-6.9,0-12.2,1.3-15.9,4
				c-3.7,2.7-5.6,6.8-5.6,12.5c0,3.7,1,6.8,3.1,9.5c2.1,2.7,5.2,5.3,9.3,7.9l8.7,5.5c4,2.5,6.9,4.7,8.5,6.4c1.6,1.8,2.4,3.8,2.3,6
				c0.1,3.3-0.8,6-2.8,7.9c-2,2-5.6,3-10.9,3c-2.2,0-4.7,0-7.4-0.1c-2.8-0.1-5.3-0.2-7.4-0.4c-0.1,0-0.2,0-0.3,0
				c-0.4,0-0.8,0.1-1.1,0.4c-0.3,0.2-0.4,0.6-0.5,1.1v3.7c0,0.5,0.1,0.9,0.3,1.1c0.2,0.2,0.7,0.4,1.4,0.6c2,0.3,4.2,0.6,6.6,0.9
				c2.4,0.3,5.2,0.4,8.4,0.4c5.9-0.1,10.4-1,13.7-2.8c3.2-1.8,5.5-4.2,6.8-7C969.2,1116.2,969.8,1113.2,969.7,1110.2L969.7,1110.2z"
				/>
			<path id="_51400624" class="st0" d="M1026.5,1064.8v-4.1c0-0.5-0.2-0.9-0.5-1.2c-0.3-0.3-0.7-0.4-1.2-0.5h-43.3
				c-0.5,0-0.9,0.2-1.3,0.5c-0.3,0.3-0.5,0.7-0.5,1.2v4.1c0,0.5,0.2,0.9,0.5,1.1c0.3,0.2,0.8,0.4,1.3,0.4H999v60
				c0,0.5,0.2,1,0.5,1.3c0.3,0.3,0.7,0.5,1.1,0.5h4.9c0.5,0,0.9-0.2,1.2-0.6c0.3-0.4,0.4-0.8,0.4-1.3v-60h17.6
				c0.5,0,0.9-0.1,1.2-0.4C1026.3,1065.6,1026.5,1065.2,1026.5,1064.8L1026.5,1064.8z"/>
			<path id="_51396144" class="st0" d="M1076.7,1127v-4.7c0-0.3-0.1-0.6-0.3-0.8c-0.2-0.2-0.4-0.3-0.7-0.3h-17.4
				c-4.6,0-7.7-0.7-9.1-2.2c-1.4-1.5-2.1-4-2-7.5l0-15.6h27.7c0.5,0,0.9-0.2,1.3-0.5c0.3-0.4,0.5-0.8,0.5-1.3l0-3.5
				c0-0.5-0.2-1-0.5-1.3c-0.3-0.4-0.8-0.5-1.3-0.5h-27.7v-12.9c-0.1-3.5,0.5-6,2-7.5c1.4-1.5,4.5-2.2,9.1-2.2h17.4
				c0.3,0,0.6-0.1,0.7-0.3c0.2-0.2,0.3-0.5,0.3-0.8l0-4.6c0-0.3-0.1-0.6-0.2-0.8c-0.2-0.3-0.4-0.4-0.7-0.5c-1.3-0.1-3-0.2-5.1-0.3
				c-2.1-0.1-4.2-0.1-6.4-0.2c-2.2,0-4.3-0.1-6.1-0.1c-6.3-0.1-11.1,1.3-14.3,4c-3.2,2.7-4.8,7.2-4.9,13.3v35.8
				c0,6.1,1.6,10.6,4.9,13.3c3.2,2.7,8,4.1,14.3,4c1.8,0,3.9,0,6.2,0c2.3,0,4.4-0.1,6.5-0.1c2.1-0.1,3.7-0.2,4.9-0.3
				c0.3-0.1,0.5-0.2,0.7-0.5C1076.6,1127.6,1076.7,1127.3,1076.7,1127L1076.7,1127z"/>
			<path id="_51395840" class="st0" d="M1145.6,1126.3v-60.7c0-3-0.6-4.9-1.7-5.6c-1.1-0.8-2.6-1.1-4.4-1h-3.3
				c-1.8-0.1-3.2,0.4-4.1,1.2c-0.9,0.9-1.8,2.5-2.7,5l-10.5,28.3c-0.1,0.4-0.2,0.6-0.3,0.7c-0.1,0.1-0.2,0.1-0.3,0.1
				c-0.1,0-0.2,0-0.3-0.1c-0.1-0.1-0.2-0.3-0.3-0.7l-10.5-28.3c-0.9-2.5-1.7-4.1-2.6-5c-0.9-0.9-2.3-1.3-4.2-1.2h-3.3
				c-1.8-0.1-3.2,0.2-4.4,1c-1.1,0.8-1.7,2.6-1.7,5.6v60.7c0,0.6,0.1,1,0.4,1.3c0.3,0.3,0.6,0.5,1.1,0.5h4.9c0.4,0,0.7-0.1,1-0.4
				c0.3-0.3,0.5-0.7,0.5-1.2l0-58.5c0-0.4,0.1-0.7,0.2-0.9c0.1-0.1,0.3-0.2,0.5-0.2c0.2,0,0.3,0.1,0.5,0.2c0.1,0.1,0.3,0.4,0.4,0.8
				l11.2,29.6c0.4,1.2,1,2.1,1.6,2.8c0.6,0.6,1.5,1,2.7,1h4.7c1.1,0,2-0.3,2.7-1c0.6-0.6,1.2-1.6,1.6-2.8l11.2-29.6
				c0.1-0.4,0.3-0.7,0.4-0.8c0.1-0.1,0.3-0.2,0.5-0.2c0.2,0,0.3,0,0.5,0.2c0.1,0.1,0.2,0.4,0.2,0.9v58.5c0,0.5,0.2,0.9,0.5,1.2
				c0.3,0.3,0.7,0.4,1,0.4h4.9c0.5,0,0.9-0.2,1.1-0.5C1145.5,1127.3,1145.6,1126.9,1145.6,1126.3L1145.6,1126.3z"/>
			<path id="_51393936" class="st0" d="M1200,1110.2c0.1-3.6-1-6.9-3.2-9.9c-2.2-2.9-5.8-6-11-9.1l-8.3-5.1
				c-3.4-2.1-5.9-3.9-7.5-5.6c-1.6-1.7-2.4-3.6-2.3-5.7c0-3.3,1-5.7,3.1-7c2.1-1.3,5.5-1.9,10.1-1.9c2.7,0,5.4,0.1,8.2,0.2
				c2.8,0.1,5.2,0.2,7.3,0.4c0,0,0.1,0,0.1,0c0,0,0,0,0.1,0c0.5,0,0.8-0.1,1.1-0.4c0.3-0.3,0.4-0.6,0.4-1.1l0-4
				c0-0.5-0.2-0.8-0.4-1.1c-0.3-0.3-0.6-0.4-1.1-0.5c-1.8-0.3-4.2-0.5-7.1-0.8c-2.9-0.2-5.8-0.3-8.5-0.3c-6.9,0-12.2,1.3-15.9,4
				c-3.7,2.7-5.6,6.8-5.6,12.5c0,3.7,1,6.8,3.1,9.5c2.1,2.7,5.2,5.3,9.3,7.9l8.7,5.5c4,2.5,6.9,4.7,8.5,6.4c1.6,1.8,2.4,3.8,2.3,6
				c0.1,3.3-0.8,6-2.8,7.9c-2,2-5.6,3-10.9,3c-2.2,0-4.7,0-7.4-0.1c-2.8-0.1-5.3-0.2-7.4-0.4c-0.1,0-0.2,0-0.3,0
				c-0.4,0-0.8,0.1-1.1,0.4c-0.3,0.2-0.4,0.6-0.5,1.1l0,3.7c0,0.5,0.1,0.9,0.3,1.1c0.2,0.2,0.7,0.4,1.4,0.6c2,0.3,4.2,0.6,6.6,0.9
				c2.4,0.3,5.2,0.4,8.4,0.4c5.9-0.1,10.4-1,13.7-2.8c3.2-1.8,5.5-4.2,6.8-7C1199.4,1116.2,1200.1,1113.2,1200,1110.2L1200,1110.2z"
				/>
			<path id="_51393144" class="st0" d="M193.2,997.8l-65.6-96.1c16.1-3.6,28.5-11.7,37.2-24.2c8.7-12.5,13.1-27.8,13.2-45.7
				c0.2-10.6-1.8-21.4-6.1-32.4c-4.2-11-11.8-20.2-22.7-27.7c-10.9-7.5-26.3-11.4-46.2-11.8H1.9v237.9h41.4v-94.9H80l62.7,94.9
				H193.2L193.2,997.8z M135.6,831.8c0,5.6-0.9,10.7-2.8,15.1c-1.9,4.5-4.9,8.1-9.1,10.9c-3.4,2.2-7.3,3.8-11.7,4.8
				c-4.4,1-9.7,1.5-15.7,1.5h-53v-63.7h57.3c13.3,0.1,22.5,2.9,27.6,8.4C133.4,814.3,135.8,822,135.6,831.8z"/>
			<polygon id="_51391944" class="st0" points="1198,976.4 1095.3,871.4 1189.7,792.1 1160.5,760.5 1085.2,828.6 1048.4,862.5 
				1048.4,762.4 1007,762.4 1007,1000.2 1048.4,1000.2 1048.4,911.7 1064.3,898.6 1164.5,1004.3 			"/>
			<polygon id="_51390816" class="st0" points="629.5,913.3 629.5,877.6 530.4,877.6 530.4,913.3 			"/>
			<path id="_51806112" class="st0" d="M933.1,997.8l-65.6-96.1c16.1-3.6,28.5-11.7,37.2-24.2c8.7-12.5,13.1-27.8,13.2-45.7
				c0.2-10.6-1.8-21.4-6.1-32.4c-4.2-11-11.8-20.2-22.7-27.7c-10.9-7.5-26.3-11.4-46.2-11.8H741.7v237.9h41.4v-94.9h36.8l62.7,94.9
				H933.1L933.1,997.8z M875.4,831.8c0,5.6-0.9,10.7-2.8,15.1c-1.9,4.5-4.9,8.1-9.1,10.9c-3.4,2.2-7.3,3.8-11.7,4.8
				c-4.4,1-9.7,1.5-15.7,1.5h-53v-63.7h57.3c13.3,0.1,22.5,2.9,27.6,8.4C873.2,814.3,875.7,822,875.4,831.8z"/>
			<polygon id="_51804856" class="st0" points="442.3,793.3 442.3,757.6 240.1,757.6 240.1,793.3 320.5,793.3 320.5,995.5 
				361.9,995.5 361.9,793.3 			"/>
		</g>
	</g>
</g>
</svg>
